<svg id="svg" version="1.1" viewBox="0 0 300 300" width="300" height="300" xmlns="http://www.w3.org/2000/svg">

    <defs>
      <clipPath id="clip-1">
        <rect x="0" y="0" transform="scale(0.15,0.15)" width="2000" height="2000" fill="none"/>
      </clipPath>
    </defs>
    <g clip-path="url(#clip-1)" fill="none" fill-rule="nonzero" stroke="none" stroke-width="1" stroke-linecap="butt" stroke-linejoin="miter" stroke-miterlimit="10" stroke-dasharray="" stroke-dashoffset="0" font-family="none" font-weight="none" font-size="none" text-anchor="none" style="mix-blend-mode: normal">
      <path d="M182.6775,51.65805c0.339,-0.03045 0.678,-0.0516 1.0185,-0.06375c26.313,-0.6978 47.352,10.19595 60.1635,33.4833c18.027,32.76855 7.833,71.6919 -11.757,101.1279c-23.601,35.466 -66.7965,67.413 -110.63985,68.67c-4.5543,0.5085 -10.44165,-0.249 -14.9739,-0.948c-30.83115,-4.7535 -52.16685,-32.673 -55.1526,-62.706c-4.36005,-43.8549 26.4237,-84.1167 59.0235,-109.93995c3.67035,-2.9046 7.70055,-5.1762 11.52855,-7.8495c1.12485,-0.7848 2.4414,-1.72455 3.6108,-2.4027c11.33385,-6.57345 23.853,-12.72165 36.5745,-16.0848c4.9455,-1.32345 9.9795,-2.2794 15.066,-2.85975c1.8285,-0.20625 3.639,-0.2172 5.538,-0.42675zM84.51375,217.671c-11.11995,-5.7495 -18.75465,-12.672 -25.6914,-23.085c-1.4274,-2.1435 -2.7126,-4.4625 -4.0425,-6.4725c0.25155,2.1015 0.37845,4.308 0.9057,6.363c3.61605,14.097 16.35,23.9205 29.19915,29.3445c2.5953,1.0965 5.09565,2.193 7.7949,3.024c7.1202,2.172 15.7353,3.0795 23.15775,2.6415c5.28105,-0.4365 10.6626,-0.9525 15.8376,-2.106c25.99005,-5.7945 51.79005,-22.917 68.87805,-43.086c16.7865,-20.1585 30.2175,-46.6368 28.197,-73.53435c-0.447,-5.9412 -2.07,-11.4087 -4.557,-16.77735c-0.9165,-1.97865 -1.866,-3.5256 -3.132,-5.26965c-0.201,-0.2769 -0.186,-0.3162 -0.0285,-0.52095c0.9795,0.22635 2.6295,1.53 3.5265,2.04795c9.7395,5.6295 17.3385,13.99965 22.902,23.71785c0.705,1.2294 1.3425,2.5644 2.0895,3.7878c-0.363,-2.9991 -0.696,-5.8203 -1.5915,-8.7069c-2.2845,-7.3608 -7.608,-14.31555 -13.7055,-18.9666c-13.2735,-10.1241 -28.7325,-14.35845 -45.2175,-13.4931c-2.1975,0.26835 -4.533,0.3594 -6.69,0.70125c-26.8065,4.24635 -50.54985,19.1925 -69.7239,37.887c-17.87055,17.42355 -32.49795,40.03755 -36.28065,65.05905c-1.8339,12.1305 -0.20385,23.5305 5.85885,34.275c0.6609,1.17 1.61805,2.0865 2.31345,3.1695z" fill="#e9ba43"/>
      <path d="M92.928,149.91015c0.07755,0.02205 0.4074,0.17835 0.429,0.22185c4.7103,9.3345 10.32795,18.147 17.0937,26.175c9.8922,11.5785 21.65655,21.414 34.80345,29.1c3.85935,2.2605 7.71435,4.107 11.67885,6.129l-0.0405,0.309c-1.326,1.1025 -11.7126,5.3865 -13.52685,6.06c-4.37985,1.644 -8.8596,3.009 -13.41225,4.0875c-2.343,-0.7965 -6.5574,-3.996 -8.65425,-5.535c-12.23355,-9.0045 -23.1972,-19.6185 -32.59485,-31.5525c-2.0667,-2.6355 -3.87105,-5.325 -5.8251,-8.0295c1.81125,-7.6515 4.0677,-14.8035 7.38405,-21.9345c0.60105,-1.293 1.76715,-4.0395 2.66475,-5.03085z" fill="#e9ba43"/>
      <path d="M174.747,84.63765c2.8875,-0.2505 5.1705,2.16795 7.464,3.7398c13.473,9.2364 25.962,20.26965 36.036,33.1656c1.4955,1.9155 3.303,4.1484 4.368,6.288c-1.0245,6.8715 -5.706,20.09625 -8.862,26.40345c-1.4415,-3.24 -4.0845,-7.45965 -6.0315,-10.4034c-1.83,-3.15165 -6.84,-9.42465 -9.2415,-12.15705c-13.7145,-15.5496 -30.5175,-28.07085 -49.33965,-36.7653c1.31415,-0.75435 3.10515,-1.5465 4.49715,-2.2206c6.2685,-3.0357 14.28,-6.49515 21.1095,-8.0505z" fill="#e9ba43"/>
      <path d="M145.20135,155.214c-0.72315,-1.3935 -2.4297,-3.4905 -3.70665,-4.452c-8.40945,-6.3297 -18.0486,5.4465 -9.50805,12.1575c1.85115,1.455 5.10465,1.935 7.24515,1.0095c1.92405,-0.8325 4.3167,-3.399 5.8713,-4.827c2.2545,-1.9995 4.25805,-4.4955 6.5304,-6.45c2.9865,-2.5695 5.8695,-5.6982 9.0495,-7.9662c1.581,-1.12725 4.1565,-2.031 6.039,-2.3184c7.9785,-1.2168 15.5415,3.831 16.7925,11.9526c1.38,8.9655 -4.2225,15.6675 -12.9795,16.9215c-3.903,0.1485 -7.302,-0.7905 -10.443,-3.1875c-0.8415,-0.642 -4.7685,-4.2645 -4.8735,-5.0895c0.4875,-1.086 3.675,-3.864 4.701,-4.752c2.4105,3.0795 5.9895,6.699 10.2345,6.1695c6.6045,-0.822 9.348,-9.4005 4.0065,-13.6695c-1.6905,-1.30815 -4.458,-2.05095 -6.5865,-1.6953c-3.192,0.53355 -5.8185,3.5838 -7.983,5.6943c-2.7,2.61 -5.418,5.202 -8.151,7.776c-4.0323,3.8715 -7.0752,7.8225 -12.9378,8.5965c-3.89925,0.498 -7.83645,-0.5715 -10.9488,-2.973c-7.49235,-5.7825 -7.3071,-18.087 0.6342,-23.42865c2.1738,-1.46235 4.45965,-2.12505 7.04325,-2.4246c5.22975,-0.4545 9.80145,1.7181 13.2084,5.6334c0.76935,0.88425 1.92525,1.45545 1.76025,2.67735c-0.7677,1.134 -3.87405,3.8745 -4.99815,4.6455z" fill="#e9ba43"/>
      <path d="M151.95,131.1564c2.943,-0.4437 12.8145,2.1705 12.2805,5.7345c-0.3795,0.5718 -0.9945,0.91725 -1.572,1.3191c-3.4035,-3.0183 -4.0035,-3.6861 -8.5095,-4.42785c-5.61855,-0.02055 -6.9012,1.11345 -11.0724,4.4802c-1.07355,-0.74865 -2.1084,-1.623 -0.9564,-2.8734c2.45205,-2.66145 6.48945,-3.81885 9.8298,-4.23255z" fill="#e9ba43"/>
      <path d="M152.886,135.97005c0.2895,0.0129 0.5775,0.03615 0.8655,0.06975c1.9005,0.21075 3.8115,0.8877 5.391,1.9602c1.698,1.1526 2.238,2.01585 0.387,3.32175c-0.129,0.01755 -0.2595,0.03525 -0.3885,0.0528c-0.8835,-0.6201 -2.0415,-1.38795 -2.9835,-1.85835c-0.9375,-0.46755 -1.836,-0.69105 -2.769,-0.95205c-3.2025,0.01245 -4.6992,1.2813 -7.1442,3.03795c-0.5643,-0.4989 -1.0575,-1.04355 -1.57485,-1.5909c1.7433,-2.77905 5.1015,-3.86415 8.21655,-4.04115z" fill="#e9ba43"/>
      <path d="M152.3355,141.04125c1.821,-0.069 5.208,0.7281 4.92,3.23205c-0.222,1.9404 -2.9655,-0.21165 -3.8025,-0.68805c-2.151,-0.18765 -2.7165,1.68255 -4.33245,1.32225c-0.38655,-0.26685 -0.60555,-0.5172 -0.7131,-0.9813c-0.483,-2.0844 2.68005,-2.64795 3.92805,-2.88495z" fill="#e9ba43"/>
      <path d="M109.36665,59.91555c5.11245,-0.20985 10.23285,0.11385 15.2781,0.966c2.12115,0.3432 4.34295,0.9951 6.40695,1.1661c-5.1456,3.04095 -10.1373,6.3354 -14.95635,9.87135c-2.23275,1.6782 -4.42515,3.4098 -6.5748,5.19315c-0.8283,0.6813 -5.00835,4.3377 -5.5416,4.3824c-12.4707,1.04715 -21.78945,2.47605 -31.99005,11.3487c-6.25605,5.4549 -10.16505,13.1139 -10.91235,21.3804c-0.18285,2.01015 0.1485,4.0725 -0.0192,6.39615c0.5715,-1.2816 1.16925,-3.7611 1.70565,-5.2794c1.794,-5.17845 4.5924,-9.9519 8.235,-14.0466c0.6696,-0.70545 4.0821,-4.2018 4.8894,-3.94545c0.10665,0.46995 -0.2829,3.0615 -0.29985,3.97305c-0.04755,2.5422 0.021,3.94215 0.45465,6.4254c-3.9723,4.18665 -7.5828,10.03035 -10.9236,14.7852c-1.2678,1.8042 -2.83665,5.154 -4.19175,6.60435l-0.2043,-0.003c-1.1844,-1.8588 -1.84785,-11.38005 -1.9566,-13.8948c-0.57735,-14.40795 4.614,-28.4514 14.42385,-39.0195c9.58245,-10.413 22.12965,-15.72495 36.17685,-16.3035z" fill="#e9ba43"/>
      <path d="M244.3125,176.334l0.222,0.1935c2.4915,11.4105 3.264,20.79 -0.273,32.178c-7.7355,24.9135 -31.524,40.3455 -57.396,37.557c-4.0485,-0.4365 -7.893,-1.452 -11.8965,-1.9785c3.063,-1.8945 6.6585,-3.8235 9.8205,-5.718c3.6645,-2.2335 7.251,-4.5915 10.7535,-7.0725c2.3175,-1.71 4.6755,-3.72 7.0365,-5.433c1.1055,-0.8025 1.989,-1.698 3.1935,-2.499l1.284,-0.0795c18.108,-1.1535 36.7275,-13.6935 37.2525,-33.3555c0.039,-1.482 -0.123,-3.1125 -0.222,-4.602c-0.7635,2.6295 -1.605,5.541 -2.6355,8.0595c-2.1885,5.349 -7.0155,11.9385 -11.781,15.411c0.057,-4.329 0.462,-6.147 -0.0075,-10.803c1.266,-2.1495 4.2195,-5.5035 5.904,-7.893c3.2805,-4.656 5.7465,-9.246 8.745,-13.965z" fill="#e9ba43"/>
    </g>
 
</svg>
