<svg version="1.1" xmlns="http://www.w3.org/2000/svg" width="64" height="64" viewBox="0 0 64 64"><path d="M0 0h64v64H0z" fill="#000000"/><path d="m35.405 19.362 0.154 -0.001q0.162 -0.001 0.323 -0.001c0.161 -0.001 0.322 -0.003 0.483 -0.004 2.189 -0.014 4.113 0.746 5.697 2.269 1.089 1.105 1.787 2.565 2.234 4.035l0.038 0.12c0.214 0.734 0.251 1.487 0.247 2.247l0 0.131c-0.005 1.17 -0.15 2.281 -0.482 3.403a15.125 15.125 0 0 0 -0.093 0.334C43.722 32.91 43.242 33.883 42.75 34.813l-0.072 0.138c-0.348 0.657 -0.728 1.27 -1.177 1.862l-0.079 0.105A43.563 43.563 0 0 1 40.875 37.625l-0.129 0.166C40.302 38.35 39.807 38.862 39.313 39.375l-0.114 0.118C38.761 39.946 38.308 40.359 37.813 40.75q-0.103 0.085 -0.205 0.17c-2.737 2.268 -6.225 3.836 -9.811 3.845 -0.146 0.001 -0.293 0.003 -0.439 0.004 -0.91 0.006 -1.751 -0.133 -2.607 -0.457l-0.173 -0.061c-2.131 -0.808 -3.648 -2.596 -4.567 -4.625 -0.246 -0.588 -0.417 -1.196 -0.572 -1.814l-0.045 -0.179c-0.706 -3.163 0.522 -6.456 2.188 -9.095 0.58 -0.887 1.246 -1.72 1.961 -2.502 0.118 -0.131 0.234 -0.263 0.349 -0.397 0.243 -0.278 0.5 -0.539 0.762 -0.8l0.135 -0.136C27.412 22.084 30.861 20.157 34.5 19.438l0.17 -0.034c0.245 -0.034 0.488 -0.04 0.735 -0.041" fill="#020100"/><path d="m35.405 19.362 0.154 -0.001q0.162 -0.001 0.323 -0.001c0.161 -0.001 0.322 -0.003 0.483 -0.004 2.189 -0.014 4.113 0.746 5.697 2.269 1.089 1.105 1.787 2.565 2.234 4.035l0.038 0.12c0.214 0.734 0.251 1.487 0.247 2.247l0 0.131c-0.005 1.17 -0.15 2.281 -0.482 3.403a15.125 15.125 0 0 0 -0.093 0.334C43.722 32.91 43.242 33.883 42.75 34.813l-0.072 0.138c-0.348 0.657 -0.728 1.27 -1.177 1.862l-0.079 0.105A43.563 43.563 0 0 1 40.875 37.625l-0.129 0.166C40.302 38.35 39.807 38.862 39.313 39.375l-0.114 0.118C38.761 39.946 38.308 40.359 37.813 40.75q-0.103 0.085 -0.205 0.17c-2.737 2.268 -6.225 3.836 -9.811 3.845 -0.146 0.001 -0.293 0.003 -0.439 0.004 -0.91 0.006 -1.751 -0.133 -2.607 -0.457l-0.173 -0.061c-2.131 -0.808 -3.648 -2.596 -4.567 -4.625 -0.246 -0.588 -0.417 -1.196 -0.572 -1.814l-0.045 -0.179c-0.706 -3.163 0.522 -6.456 2.188 -9.095 0.58 -0.887 1.246 -1.72 1.961 -2.502 0.118 -0.131 0.234 -0.263 0.349 -0.397 0.243 -0.278 0.5 -0.539 0.762 -0.8l0.135 -0.136C27.412 22.084 30.861 20.157 34.5 19.438l0.17 -0.034c0.245 -0.034 0.488 -0.04 0.735 -0.041M29.625 25.063l-0.111 0.076c-0.545 0.373 -1.05 0.78 -1.546 1.217a24.375 24.375 0 0 1 -0.242 0.209c-0.254 0.218 -0.491 0.448 -0.726 0.687 -0.122 0.12 -0.249 0.231 -0.379 0.342 -0.254 0.22 -0.468 0.461 -0.684 0.719l-0.138 0.159c-2.055 2.403 -3.707 5.52 -3.47 8.763 0.105 0.856 0.362 1.647 0.767 2.406C23.188 39.813 23.188 39.813 23.25 40c-1.439 -0.902 -2.495 -1.949 -3.375 -3.408L19.813 36.5h-0.063c-0.068 0.869 0.365 1.734 0.913 2.39 0.167 0.191 0.344 0.369 0.524 0.548l0.143 0.147c0.868 0.843 2.141 1.511 3.327 1.754 0.155 0.036 0.155 0.036 0.311 0.098 1.666 0.665 4.086 0.129 5.719 -0.438l0.177 -0.06c0.172 -0.06 0.341 -0.124 0.51 -0.19l0.23 -0.086C34.171 39.672 36.555 37.852 38.25 35.688q0.08 -0.098 0.161 -0.196c0.447 -0.547 0.827 -1.127 1.193 -1.73a24.938 24.938 0 0 1 0.217 -0.35c1.279 -2.107 2.192 -4.991 1.639 -7.459C41.281 25.231 41.017 24.533 40.563 23.938c1.467 0.92 2.57 1.973 3.418 3.49L44.063 27.563h0.063c-0.018 -0.523 -0.103 -0.958 -0.313 -1.438l-0.068 -0.16c-0.191 -0.413 -0.452 -0.744 -0.744 -1.09l-0.121 -0.158C41.775 23.394 39.88 22.772 38.25 22.5l-0.183 -0.034C35.107 22.02 31.997 23.412 29.625 25.063" fill="#E7BA42"/><path d="M24.5 31.625c0.157 0.191 0.269 0.395 0.385 0.612 0.489 0.915 1.067 1.784 1.74 2.576l0.171 0.205c0.614 0.734 1.263 1.391 2.017 1.982q0.099 0.08 0.198 0.161C30.058 38.009 31.237 38.826 32.5 39.313v0.125c-0.792 0.395 -1.6 0.713 -2.438 1l-0.136 0.047c-0.686 0.235 -0.686 0.235 -0.926 0.141 -0.539 -0.294 -1.02 -0.682 -1.5 -1.063l-0.171 -0.134C26.193 38.522 25.067 37.47 24.188 36.313q-0.081 -0.103 -0.161 -0.207a26.438 26.438 0 0 1 -0.323 -0.423c-0.131 -0.177 -0.131 -0.177 -0.256 -0.3 -0.091 -0.097 -0.091 -0.097 -0.197 -0.32 0.017 -0.304 0.099 -0.586 0.188 -0.875l0.038 -0.13c0.244 -0.824 0.545 -1.714 1.024 -2.433" fill="#E6B940"/><path d="M35 23.438c0.179 0.098 0.34 0.218 0.504 0.34l0.142 0.103A56.25 56.25 0 0 1 36.063 24.188l0.214 0.158c0.927 0.687 1.813 1.421 2.629 2.237l0.122 0.122c0.448 0.453 0.853 0.935 1.245 1.436l0.119 0.149 0.113 0.145 0.102 0.129c0.13 0.2 0.148 0.331 0.119 0.567 -0.22 0.985 -0.569 2.036 -1.038 2.932h-0.125l-0.095 -0.179c-0.585 -1.087 -1.32 -2.13 -2.208 -2.993C37.125 28.75 37.125 28.75 37.125 28.625l-0.103 -0.041c-0.197 -0.113 -0.339 -0.269 -0.494 -0.432C36.184 27.802 35.826 27.488 35.438 27.188l-0.11 -0.086C34.171 26.205 32.939 25.457 31.625 24.813v-0.125c0.823 -0.386 1.641 -0.763 2.5 -1.063l0.175 -0.064c0.451 -0.161 0.451 -0.161 0.7 -0.124" fill="#E4B63D"/><path d="M29.188 20.625c-0.219 0.245 -0.474 0.402 -0.75 0.574 -0.74 0.472 -1.422 1.008 -2.102 1.562l-0.11 0.089c-0.104 0.086 -0.104 0.086 -0.195 0.19 -0.159 0.142 -0.363 0.109 -0.566 0.112 -1.276 0.047 -2.389 0.447 -3.402 1.223l-0.156 0.116c-0.713 0.577 -1.218 1.509 -1.328 2.414A22.125 22.125 0 0 0 20.5 27.875h0.125l-0.012 -0.157c0.014 -0.262 0.096 -0.467 0.203 -0.702l0.06 -0.134c0.32 -0.692 0.817 -1.448 1.498 -1.819 0.013 0.219 0.021 0.437 0.027 0.656l0.011 0.186c0.008 0.333 -0.008 0.54 -0.234 0.794q-0.121 0.119 -0.242 0.238c-0.139 0.174 -0.269 0.354 -0.398 0.535l-0.106 0.146a12 12 0 0 0 -0.701 1.105c-0.053 0.094 -0.111 0.185 -0.17 0.276h-0.125c-0.491 -1.995 -0.201 -3.895 0.852 -5.637 0.54 -0.852 1.242 -1.509 2.086 -2.051l0.165 -0.11c1.669 -1.067 3.787 -1.006 5.647 -0.577" fill="#EABD4B"/><path d="M43.438 34.938h0.063q0.045 0.191 0.09 0.383l0.051 0.215c0.388 1.767 -0.019 3.664 -0.964 5.191C42.015 41.735 41.128 42.508 40.063 43.063l-0.117 0.061C38.347 43.934 36.579 43.832 34.875 43.5v-0.125l0.113 -0.062c1.869 -0.99 1.869 -0.99 3.476 -2.35 0.119 -0.106 0.189 -0.119 0.346 -0.139l0.147 -0.02 0.157 -0.019c1.316 -0.189 2.531 -0.652 3.404 -1.702 0.346 -0.466 0.661 -0.951 0.795 -1.52l0.035 -0.141c0.035 -0.22 0.034 -0.437 0.031 -0.659l-0.001 -0.131q-0.001 -0.159 -0.003 -0.318l-0.051 0.174C43.029 37.458 42.56 38.245 41.813 38.938h-0.125c-0.126 -1.294 -0.126 -1.294 0.205 -1.718a17.625 17.625 0 0 1 0.277 -0.3c0.259 -0.276 0.445 -0.593 0.64 -0.915l0.103 -0.168A32.625 32.625 0 0 0 43.438 34.938" fill="#E1B23C"/><path d="M31.042 30.99c0.248 0.193 0.465 0.375 0.645 0.635 -0.098 0.256 -0.284 0.46 -0.5 0.625h-0.188c-0.101 -0.103 -0.101 -0.103 -0.207 -0.238 -0.186 -0.219 -0.322 -0.366 -0.606 -0.449 -0.348 -0.023 -0.608 0.019 -0.879 0.246 -0.205 0.196 -0.257 0.325 -0.266 0.609 0.004 0.332 0.07 0.505 0.27 0.769 0.237 0.216 0.478 0.216 0.786 0.205 0.408 -0.046 0.628 -0.292 0.898 -0.574 0.113 -0.115 0.227 -0.218 0.35 -0.322 0.216 -0.185 0.414 -0.383 0.612 -0.586 1.149 -1.173 1.149 -1.173 1.776 -1.242 0.599 -0.002 1.112 0.079 1.588 0.464 0.434 0.448 0.575 0.92 0.569 1.529 -0.041 0.502 -0.26 0.946 -0.642 1.277 -0.527 0.353 -1.02 0.46 -1.65 0.348 -0.381 -0.109 -0.694 -0.322 -0.975 -0.598l-0.067 -0.135c-0.053 -0.138 -0.053 -0.138 -0.246 -0.177 0.088 -0.201 0.194 -0.333 0.352 -0.484l0.12 -0.116L32.875 32.688l0.125 0.133q0.093 0.091 0.188 0.18l0.108 0.104c0.298 0.258 0.527 0.32 0.92 0.294 0.221 -0.033 0.357 -0.073 0.534 -0.211 0.211 -0.294 0.303 -0.574 0.25 -0.938 -0.115 -0.297 -0.268 -0.493 -0.563 -0.625 -0.266 -0.097 -0.549 -0.124 -0.812 -0.007 -0.408 0.25 -0.728 0.598 -1.059 0.938 -0.178 0.183 -0.366 0.35 -0.562 0.514 -0.139 0.125 -0.265 0.26 -0.393 0.396 -0.446 0.468 -0.915 0.856 -1.592 0.882 -0.54 -0.035 -1.01 -0.208 -1.395 -0.598 -0.409 -0.57 -0.497 -1.059 -0.438 -1.75 0.135 -0.493 0.459 -0.841 0.875 -1.125 0.621 -0.328 1.405 -0.28 1.98 0.115" fill="#E4B848"/><path d="M33.18 29.642c0.105 0.081 0.105 0.081 0.258 0.233v0.188c-0.133 0.051 -0.133 0.051 -0.313 0.063 -0.184 -0.144 -0.184 -0.144 -0.267 -0.23 -0.315 -0.242 -0.707 -0.241 -1.087 -0.237 -0.283 0.04 -0.47 0.152 -0.701 0.316 -0.131 0.087 -0.229 0.123 -0.383 0.151l-0.063 -0.25c0.703 -0.698 1.728 -0.793 2.555 -0.233" fill="#E3BB52"/><path d="M32.534 29.986c0.246 0.113 0.358 0.198 0.466 0.452 -0.111 0.07 -0.111 0.07 -0.25 0.125 -0.114 -0.043 -0.114 -0.043 -0.23 -0.117 -0.278 -0.152 -0.519 -0.194 -0.832 -0.133 -0.128 0.079 -0.253 0.162 -0.375 0.25 -0.148 -0.016 -0.148 -0.016 -0.25 -0.063 0 -0.25 0 -0.25 0.081 -0.343 0.426 -0.284 0.901 -0.32 1.391 -0.172" fill="#E2BA55"/><path d="m32 30.539 0.16 -0.001c0.179 0.029 0.267 0.094 0.402 0.212l-0.063 0.25c-0.188 0 -0.188 0 -0.313 -0.063 -0.24 -0.011 -0.454 0.008 -0.688 0.063l-0.063 -0.25c0.19 -0.167 0.31 -0.213 0.563 -0.211" fill="#DEB655"/><path d="M31.813 30c-0.062 0.225 -0.122 0.31 -0.305 0.461C31.313 30.563 31.313 30.563 31.164 30.547L31.063 30.5v-0.25c0.101 -0.095 0.101 -0.095 0.234 -0.176l0.132 -0.083c0.157 -0.063 0.227 -0.048 0.384 0.009" fill="#DBB24B"/><path d="M43.688 36.188v1.5h-0.063l-0.063 -0.438 -0.125 0.188 0.063 -1.188c0.125 -0.063 0.125 -0.063 0.188 -0.063" fill="#E9BA4A"/><path d="M43.625 35.75h0.063c0.078 0.362 0.07 0.718 0.066 1.086l-0.001 0.194q-0.001 0.235 -0.003 0.47h-0.063l-0.063 -1.188h-0.063l-0.063 0.813h-0.063q-0.005 -0.246 -0.008 -0.492l-0.003 -0.141c-0.001 -0.122 0.004 -0.244 0.011 -0.366l0.125 -0.125c0.04 -0.129 0.04 -0.129 0.063 -0.25" fill="#AB8734"/><path d="m32.063 29.313 -0.063 0.125 0.25 0.125 -0.875 0.125 0.125 -0.063v-0.25c0.185 -0.092 0.359 -0.066 0.563 -0.063" fill="#EEC755"/><path d="m35.25 43.188 0.125 0.063 -0.188 0.25 0.188 0.063 -0.5 -0.063v-0.125a6.313 6.313 0 0 1 0.375 -0.188" fill="#C79D39"/><path d="m32.375 30.625 0.188 0.125 -0.063 0.25h-0.188l-0.125 -0.125z" fill="#D7AC49"/><path d="m22.313 25.063 0.063 0.25c-0.165 0.088 -0.317 0.148 -0.5 0.188 0.297 -0.367 0.297 -0.367 0.438 -0.438" fill="#D5AC43"/><path d="M40.563 23.938c0.152 0.047 0.152 0.047 0.313 0.125 0.051 0.133 0.051 0.133 0.063 0.25h-0.188c-0.188 -0.208 -0.188 -0.208 -0.188 -0.375" fill="#D2AA3B"/><path d="M23.063 39.688h0.125l0.188 0.375c-0.305 -0.109 -0.305 -0.109 -0.375 -0.25z" fill="#CCA23A"/></svg>