<?xml version="1.0" encoding="UTF-8"?>
<svg version="1.1" xmlns="http://www.w3.org/2000/svg" width="1024" height="1024">
<path d="M0 0 C337.92 0 675.84 0 1024 0 C1024 337.92 1024 675.84 1024 1024 C686.08 1024 348.16 1024 0 1024 C0 686.08 0 348.16 0 0 Z " fill="#000000" transform="translate(0,0)"/>
<path d="M0 0 C0.81446594 -0.00570007 1.62893188 -0.01140015 2.46807861 -0.01727295 C4.19273598 -0.02669191 5.91741109 -0.03324455 7.64208984 -0.03710938 C10.2161651 -0.04669089 12.78939725 -0.07769033 15.36328125 -0.109375 C50.38160476 -0.33391349 81.17045834 11.82846546 106.515625 36.203125 C123.93820307 53.88167196 135.10664624 77.24710377 142.265625 100.765625 C142.56351929 101.71828247 142.56351929 101.71828247 142.86743164 102.69018555 C146.29137049 114.42835707 146.87936074 126.48438974 146.828125 138.640625 C146.82539078 139.67852676 146.82539078 139.67852676 146.82260132 140.73739624 C146.74022679 159.4525128 144.41574451 177.22797576 139.10791016 195.18554688 C138.58693933 196.96019769 138.10117308 198.74510333 137.62109375 200.53125 C133.06227934 216.76812326 125.38167824 232.32906815 117.515625 247.203125 C117.13293457 247.93128418 116.75024414 248.65944336 116.35595703 249.40966797 C110.79073208 259.92774125 104.71189267 269.72948652 97.515625 279.203125 C97.09780762 279.75838867 96.67999023 280.31365234 96.24951172 280.88574219 C93.3813789 284.69299814 90.46122072 288.45548701 87.515625 292.203125 C86.83371094 293.08097656 86.15179687 293.95882813 85.44921875 294.86328125 C78.34674929 303.79864605 70.43080993 311.99119337 62.515625 320.203125 C61.9160498 320.82606445 61.31647461 321.44900391 60.69873047 322.09082031 C53.68456643 329.3421783 46.45094845 335.95299121 38.515625 342.203125 C37.41975816 343.10942563 36.3261183 344.0184238 35.234375 344.9296875 C-8.55770063 381.21055992 -64.36193225 406.30100968 -121.74072266 406.44335938 C-124.08402634 406.45302049 -126.42643378 406.48411455 -128.76953125 406.515625 C-143.33692449 406.61738901 -156.7884049 404.39099246 -170.484375 399.203125 C-171.85722656 398.71779297 -171.85722656 398.71779297 -173.2578125 398.22265625 C-207.34586087 385.28787625 -231.62385443 356.69227337 -246.33203125 324.2265625 C-250.27206165 314.81482748 -253.01247242 305.08824348 -255.484375 295.203125 C-255.84015625 293.78193359 -255.84015625 293.78193359 -256.203125 292.33203125 C-267.50396561 241.72753177 -247.85771544 189.03815695 -221.19042969 146.81103516 C-211.90878608 132.62292454 -201.25186753 119.28978829 -189.8203125 106.78515625 C-187.92733439 104.69275068 -186.08000012 102.57448232 -184.23828125 100.4375 C-180.35288611 95.98834777 -176.23367562 91.80481464 -172.046875 87.640625 C-171.33466797 86.92455078 -170.62246094 86.20847656 -169.88867188 85.47070312 C-127.89025288 43.54857553 -72.71323205 12.71019215 -14.484375 1.203125 C-13.5862207 1.02515381 -12.68806641 0.84718262 -11.76269531 0.66381836 C-7.83424082 0.11176343 -3.95874017 0.02197391 0 0 Z " fill="#020100" transform="translate(566.484375,309.796875)"/>
<path d="M0 0 C0.81446594 -0.00570007 1.62893188 -0.01140015 2.46807861 -0.01727295 C4.19273598 -0.02669191 5.91741109 -0.03324455 7.64208984 -0.03710938 C10.2161651 -0.04669089 12.78939725 -0.07769033 15.36328125 -0.109375 C50.38160476 -0.33391349 81.17045834 11.82846546 106.515625 36.203125 C123.93820307 53.88167196 135.10664624 77.24710377 142.265625 100.765625 C142.56351929 101.71828247 142.56351929 101.71828247 142.86743164 102.69018555 C146.29137049 114.42835707 146.87936074 126.48438974 146.828125 138.640625 C146.82539078 139.67852676 146.82539078 139.67852676 146.82260132 140.73739624 C146.74022679 159.4525128 144.41574451 177.22797576 139.10791016 195.18554688 C138.58693933 196.96019769 138.10117308 198.74510333 137.62109375 200.53125 C133.06227934 216.76812326 125.38167824 232.32906815 117.515625 247.203125 C117.13293457 247.93128418 116.75024414 248.65944336 116.35595703 249.40966797 C110.79073208 259.92774125 104.71189267 269.72948652 97.515625 279.203125 C97.09780762 279.75838867 96.67999023 280.31365234 96.24951172 280.88574219 C93.3813789 284.69299814 90.46122072 288.45548701 87.515625 292.203125 C86.83371094 293.08097656 86.15179687 293.95882813 85.44921875 294.86328125 C78.34674929 303.79864605 70.43080993 311.99119337 62.515625 320.203125 C61.9160498 320.82606445 61.31647461 321.44900391 60.69873047 322.09082031 C53.68456643 329.3421783 46.45094845 335.95299121 38.515625 342.203125 C37.41975816 343.10942563 36.3261183 344.0184238 35.234375 344.9296875 C-8.55770063 381.21055992 -64.36193225 406.30100968 -121.74072266 406.44335938 C-124.08402634 406.45302049 -126.42643378 406.48411455 -128.76953125 406.515625 C-143.33692449 406.61738901 -156.7884049 404.39099246 -170.484375 399.203125 C-171.85722656 398.71779297 -171.85722656 398.71779297 -173.2578125 398.22265625 C-207.34586087 385.28787625 -231.62385443 356.69227337 -246.33203125 324.2265625 C-250.27206165 314.81482748 -253.01247242 305.08824348 -255.484375 295.203125 C-255.84015625 293.78193359 -255.84015625 293.78193359 -256.203125 292.33203125 C-267.50396561 241.72753177 -247.85771544 189.03815695 -221.19042969 146.81103516 C-211.90878608 132.62292454 -201.25186753 119.28978829 -189.8203125 106.78515625 C-187.92733439 104.69275068 -186.08000012 102.57448232 -184.23828125 100.4375 C-180.35288611 95.98834777 -176.23367562 91.80481464 -172.046875 87.640625 C-171.33466797 86.92455078 -170.62246094 86.20847656 -169.88867188 85.47070312 C-127.89025288 43.54857553 -72.71323205 12.71019215 -14.484375 1.203125 C-13.5862207 1.02515381 -12.68806641 0.84718262 -11.76269531 0.66381836 C-7.83424082 0.11176343 -3.95874017 0.02197391 0 0 Z M-92.484375 91.203125 C-93.0717041 91.60499023 -93.6590332 92.00685547 -94.26416016 92.42089844 C-102.98682212 98.3899216 -111.06920441 104.89829369 -118.9921875 111.89013672 C-120.27226079 113.01648393 -121.56464306 114.12881523 -122.859375 115.23828125 C-126.92938574 118.72799749 -130.72334565 122.41107948 -134.48046875 126.234375 C-136.43493952 128.15455681 -138.45751439 129.93179809 -140.546875 131.703125 C-144.61730614 135.22029365 -148.03933766 139.08189231 -151.484375 143.203125 C-152.21140625 144.04230469 -152.9384375 144.88148438 -153.6875 145.74609375 C-186.57171085 184.19940483 -212.99387387 234.07285474 -209.2109375 285.953125 C-207.5304482 299.65069814 -203.41440351 312.30815853 -196.9375 324.4453125 C-195.484375 327.203125 -195.484375 327.203125 -194.484375 330.203125 C-217.50407946 315.76259916 -234.40201163 299.01359303 -248.48193359 275.66967773 C-248.81273926 275.18571533 -249.14354492 274.70175293 -249.484375 274.203125 C-249.814375 274.203125 -250.144375 274.203125 -250.484375 274.203125 C-251.57526141 288.11192676 -244.64049072 301.94376536 -235.87109375 312.4375 C-233.19654173 315.48702497 -230.36650841 318.34952756 -227.484375 321.203125 C-226.72769531 321.98171875 -225.97101563 322.7603125 -225.19140625 323.5625 C-211.29703607 337.05032235 -190.93608735 347.74548697 -171.96484375 351.6328125 C-169.484375 352.203125 -169.484375 352.203125 -166.98828125 353.203125 C-140.32781417 363.85067503 -101.6094449 355.2722982 -75.484375 346.203125 C-74.54980469 345.88601563 -73.61523438 345.56890625 -72.65234375 345.2421875 C-69.90805054 344.27942197 -67.19694169 343.25198412 -64.484375 342.203125 C-63.27007812 341.74679687 -62.05578125 341.29046875 -60.8046875 340.8203125 C-19.74401339 324.95911535 18.39486646 295.82840167 45.515625 261.203125 C46.37173493 260.15854435 47.22989679 259.11564286 48.08984375 258.07421875 C55.24185495 249.32514401 61.32829028 240.04782961 67.18457031 230.39111328 C68.32698582 228.51321016 69.49081368 226.65164188 70.6640625 224.79296875 C91.12861109 191.08911015 105.74381405 144.93887204 96.890625 105.453125 C94.01606378 93.8957598 89.7955084 82.72892987 82.515625 73.203125 C105.98891472 87.9281901 123.64158012 104.76878081 137.203125 129.03515625 C137.63625 129.75058594 138.069375 130.46601563 138.515625 131.203125 C138.845625 131.203125 139.175625 131.203125 139.515625 131.203125 C139.22367237 122.83868208 137.86043562 115.87584937 134.515625 108.203125 C134.1546875 107.35878906 133.79375 106.51445312 133.421875 105.64453125 C130.37109677 99.0379473 126.19255831 93.7354815 121.515625 88.203125 C120.87882812 87.37167969 120.24203125 86.54023438 119.5859375 85.68359375 C101.91492944 64.51172561 71.60041514 54.56075075 45.515625 50.203125 C44.06470459 49.93725586 44.06470459 49.93725586 42.58447266 49.66601562 C-4.76542538 42.5239785 -54.53572289 64.79593265 -92.484375 91.203125 Z " fill="#E7BA42" transform="translate(566.484375,309.796875)"/>
<path d="M0 0 C2.50526769 3.0557883 4.30759999 6.31900004 6.15869141 9.78710938 C13.98830006 24.43422953 23.23875352 38.33374944 34 51 C34.91039365 52.09485472 35.82053014 53.18992331 36.73046875 54.28515625 C46.55848433 66.0245336 56.93966564 76.5345143 69 86 C70.05714491 86.8579534 71.11308852 87.71738864 72.16796875 88.578125 C88.91970392 102.14698152 107.79391242 115.22138232 128 123 C128 123.66 128 124.32 128 125 C115.32286772 131.32175297 102.39809248 136.41366909 89 141 C88.28102539 141.24830566 87.56205078 141.49661133 86.82128906 141.75244141 C75.84101996 145.50598407 75.84101996 145.50598407 72 144 C63.37351399 139.29071632 55.67355759 133.09157965 48 127 C47.09507812 126.29101562 46.19015625 125.58203125 45.2578125 124.8515625 C27.09223104 110.35143961 9.07454098 93.52056846 -5 75 C-5.85826752 73.89627334 -6.71770901 72.79345888 -7.578125 71.69140625 C-9.32555236 69.45121264 -11.04417282 67.19286407 -12.74609375 64.91796875 C-14.83908763 62.09073392 -14.83908763 62.09073392 -16.84765625 60.11328125 C-18.3125 58.5625 -18.3125 58.5625 -20 55 C-19.72492683 50.14037394 -18.41617097 45.630176 -17 41 C-16.79938965 40.31470215 -16.5987793 39.6294043 -16.39208984 38.92333984 C-12.48936831 25.73389442 -7.66424893 11.49637339 0 0 Z " fill="#E6B940" transform="translate(392,506)"/>
<path d="M0 0 C2.8664988 1.56927673 5.44393446 3.48899035 8.0625 5.4375 C8.81474854 5.98374023 9.56699707 6.52998047 10.34204102 7.09277344 C12.57058757 8.71638468 14.78648365 10.35598058 17 12 C18.14305523 12.84008047 19.28626626 13.67994902 20.4296875 14.51953125 C35.26189942 25.51848321 49.4306388 37.25843176 62.5 50.3125 C63.14598145 50.95767578 63.79196289 51.60285156 64.45751953 52.26757812 C71.61902667 59.5125095 78.1043091 67.22779415 84.375 75.25 C85.31666016 76.43335938 85.31666016 76.43335938 86.27734375 77.640625 C86.87417969 78.40375 87.47101563 79.166875 88.0859375 79.953125 C88.6226709 80.63536133 89.1594043 81.31759766 89.71240234 82.02050781 C91.79599861 85.22373089 92.0872536 87.309824 91.609375 91.08984375 C88.08993426 106.84733979 82.50674864 123.66007422 75 138 C74.34 138 73.68 138 73 138 C72.25169922 136.58074219 72.25169922 136.58074219 71.48828125 135.1328125 C62.12177913 117.73628894 50.37375831 101.04566913 36.15625 87.23828125 C34 85 34 85 34 83 C33.18208984 82.67708984 33.18208984 82.67708984 32.34765625 82.34765625 C29.19621278 80.53859136 26.92176828 78.04267686 24.4375 75.4375 C18.94974935 69.83270409 13.2134997 64.80061088 7 60 C6.41766602 59.54657227 5.83533203 59.09314453 5.23535156 58.62597656 C-13.25907279 44.27338286 -32.98128608 32.31764398 -54 22 C-54 21.34 -54 20.68 -54 20 C-40.83761799 13.82436335 -27.73716626 7.78522142 -14 3 C-13.07703125 2.66226562 -12.1540625 2.32453125 -11.203125 1.9765625 C-3.99214333 -0.59205515 -3.99214333 -0.59205515 0 0 Z " fill="#E4B63D" transform="translate(560,375)"/>
<path d="M0 0 C-3.50426643 3.91492265 -7.58722135 6.43115518 -12 9.1875 C-23.84685698 16.7342752 -34.75608472 25.30737891 -45.62890625 34.1796875 C-46.20713135 34.65132324 -46.78535645 35.12295898 -47.38110352 35.60888672 C-49.04311037 36.97893717 -49.04311037 36.97893717 -50.49951172 38.65307617 C-53.0396795 40.9332756 -56.30824368 40.40343744 -59.5625 40.4375 C-79.96951469 41.18632083 -97.78008921 47.58396815 -114 60 C-115.23556641 60.92232422 -115.23556641 60.92232422 -116.49609375 61.86328125 C-127.90137454 71.09424508 -135.98384177 86.01373146 -137.7421875 100.484375 C-138.28329861 105.64810862 -138.68616897 110.81774565 -139 116 C-138.34 116 -137.68 116 -137 116 C-137.06316406 115.16984375 -137.12632812 114.3396875 -137.19140625 113.484375 C-136.96131026 109.29568876 -135.65163129 106.01209077 -133.9375 102.25 C-133.62022949 101.54407715 -133.30295898 100.8381543 -132.97607422 100.11083984 C-127.85376912 89.04331855 -119.90518882 76.95002407 -109 71 C-108.79462097 74.49911695 -108.67170059 77.99666666 -108.5625 81.5 C-108.50384766 82.48226562 -108.44519531 83.46453125 -108.38476562 84.4765625 C-108.26050468 89.80203143 -108.51067774 93.12009875 -112.12890625 97.18359375 C-113.41774574 98.45727426 -114.70811664 99.72940696 -116 101 C-118.22598679 103.78108339 -120.29736616 106.66941478 -122.375 109.5625 C-122.93227783 110.33319824 -123.48955566 111.10389648 -124.0637207 111.89794922 C-128.13761332 117.60667064 -131.85288605 123.46435845 -135.28466797 129.58032227 C-136.14006317 131.0829596 -137.0632694 132.54667426 -138 134 C-138.66 134 -139.32 134 -140 134 C-147.86449298 102.07390351 -143.21438624 71.68165016 -126.375 43.8125 C-117.73660774 30.18314919 -106.50598628 19.66729156 -93 11 C-92.12730469 10.41734375 -91.25460937 9.8346875 -90.35546875 9.234375 C-63.65584647 -7.8464819 -29.76777391 -6.86712807 0 0 Z " fill="#EABD4B" transform="translate(467,330)"/>
<path d="M0 0 C0.33 0 0.66 0 1 0 C1.48150942 2.04111542 1.96010083 4.08291932 2.4375 6.125 C2.70433594 7.26195312 2.97117187 8.39890625 3.24609375 9.5703125 C9.46115075 37.84399149 2.94148712 68.18948527 -12.17578125 92.62109375 C-22.7652956 108.76323052 -36.9501339 121.13295578 -54 130 C-54.92377441 130.48267334 -54.92377441 130.48267334 -55.86621094 130.97509766 C-81.44975556 143.95236137 -109.72925474 142.31009851 -137 137 C-137 136.34 -137 135.68 -137 135 C-136.40276123 134.67427002 -135.80552246 134.34854004 -135.19018555 134.01293945 C-105.2801408 118.16667059 -105.2801408 118.16667059 -79.5793457 96.41040039 C-77.67416343 94.70901873 -76.55637081 94.4987333 -74.04296875 94.19140625 C-73.26727539 94.08675049 -72.49158203 93.98209473 -71.69238281 93.87426758 C-70.86577148 93.77138428 -70.03916016 93.66850098 -69.1875 93.5625 C-48.13723331 90.53289858 -28.6896576 83.13677977 -14.7265625 66.328125 C-9.19649186 58.87128767 -4.15443286 51.11627789 -2 42 C-1.814375 41.25363281 -1.62875 40.50726562 -1.4375 39.73828125 C-0.87430979 36.21331397 -0.89324326 32.74506081 -0.9375 29.1875 C-0.94426758 28.14819336 -0.94426758 28.14819336 -0.95117188 27.08789062 C-0.96286844 25.39188932 -0.98080076 23.69593297 -1 22 C-1.268125 22.92039062 -1.53625 23.84078125 -1.8125 24.7890625 C-6.53556955 40.33108793 -14.03547403 52.91900825 -26 64 C-26.66 64 -27.32 64 -28 64 C-30.0100607 43.30340294 -30.0100607 43.30340294 -24.72412109 36.51049805 C-23.26954909 34.88963893 -21.7886049 33.29763851 -20.296875 31.7109375 C-16.16145505 27.29865891 -13.17644887 22.22099219 -10.0625 17.0625 C-9.51956299 16.17361084 -8.97662598 15.28472168 -8.41723633 14.36889648 C-5.53370663 9.62221819 -2.73060007 4.83612302 0 0 Z " fill="#E1B23C" transform="translate(695,559)"/>
<path d="M0 0 C3.97416636 3.08846214 7.44216792 6.00442489 10.32421875 10.16015625 C8.75008458 14.2529051 5.78319498 17.51971638 2.32421875 20.16015625 C1.33421875 20.16015625 0.34421875 20.16015625 -0.67578125 20.16015625 C-2.2890625 18.515625 -2.2890625 18.515625 -3.98828125 16.34765625 C-6.96772729 12.84680715 -9.14546021 10.49260362 -13.67578125 9.16015625 C-19.24618153 8.79002999 -23.40180489 9.45715758 -27.73828125 13.09765625 C-31.0198298 16.24022156 -31.85612107 18.30551958 -31.98828125 22.84765625 C-31.92692663 28.15483084 -30.87058879 30.92919491 -27.67578125 35.16015625 C-23.88063741 38.62043446 -20.0199325 38.62278244 -15.09375 38.43359375 C-8.57146037 37.69601657 -5.05009145 33.75230852 -0.71875 29.2421875 C1.08269704 27.40629597 2.91888663 25.74961076 4.88671875 24.09765625 C8.34206076 21.14565146 11.50435925 17.9702229 14.67797852 14.72363281 C33.05335003 -4.04796696 33.05335003 -4.04796696 43.0859375 -5.140625 C52.67090901 -5.17901607 60.87524058 -3.87814154 68.5 2.27734375 C75.44748142 9.44797767 77.69902553 16.99890148 77.6015625 26.734375 C76.95090304 34.7713939 73.44577098 41.8727496 67.32421875 47.16015625 C58.8984154 52.8017811 51.00950056 54.52226311 40.921875 52.734375 C34.83400243 50.99039745 29.82575694 47.58555849 25.32421875 43.16015625 C24.97230469 42.44730469 24.62039063 41.73445312 24.2578125 41 C23.41194055 38.79889503 23.41194055 38.79889503 20.32421875 38.16015625 C21.73266593 34.9449132 23.42766661 32.83831757 25.94921875 30.41015625 C26.89667969 29.48976563 26.89667969 29.48976563 27.86328125 28.55078125 C28.34539062 28.091875 28.8275 27.63296875 29.32421875 27.16015625 C30.31421875 28.21203125 30.31421875 28.21203125 31.32421875 29.28515625 C32.31599413 30.25199873 33.3169864 31.20942718 34.32421875 32.16015625 C34.89398437 32.71058594 35.46375 33.26101563 36.05078125 33.828125 C40.8208224 37.96019768 44.4786096 38.94826985 50.7734375 38.5390625 C54.30496047 38.0144718 56.48568022 37.37560095 59.32421875 35.16015625 C62.70540628 30.45405197 64.17043847 25.9779168 63.32421875 20.16015625 C61.4834489 15.40565446 59.0326411 12.27894631 54.32421875 10.16015625 C50.0729799 8.60136867 45.54362455 8.17857951 41.328125 10.04296875 C34.80449537 14.04093627 29.6862499 19.61709009 24.38671875 25.05859375 C21.52992723 27.98315587 18.5304869 30.65869973 15.3984375 33.28515625 C13.18109185 35.28953649 11.15522777 37.43872446 9.10742188 39.61401367 C1.96640443 47.10639646 -5.52934734 53.31525205 -16.36328125 53.72265625 C-25.00867556 53.16368679 -32.51680026 50.39677146 -38.67578125 44.16015625 C-45.21228175 35.03747511 -46.62531625 27.21944626 -45.67578125 16.16015625 C-43.52056629 8.27522345 -38.32641497 2.70657307 -31.67578125 -1.83984375 C-21.73787862 -7.09172468 -9.19921038 -6.32529648 0 0 Z " fill="#E4B848" transform="translate(496.67578125,495.83984375)"/>
<path d="M0 0 C1.68359375 1.2890625 1.68359375 1.2890625 4.12109375 3.7265625 C4.12109375 4.7165625 4.12109375 5.7065625 4.12109375 6.7265625 C1.99609375 7.5390625 1.99609375 7.5390625 -0.87890625 7.7265625 C-3.81640625 5.4140625 -3.81640625 5.4140625 -5.15625 4.05078125 C-10.19271224 0.17921504 -16.46550146 0.19916748 -22.546875 0.26171875 C-27.07857271 0.89392511 -30.07443735 2.68897338 -33.7578125 5.31640625 C-35.8491475 6.70677814 -37.42783809 7.28748226 -39.87890625 7.7265625 C-40.20890625 6.4065625 -40.53890625 5.0865625 -40.87890625 3.7265625 C-29.63472213 -7.44531176 -13.22856358 -8.96572085 0 0 Z " fill="#E3BB52" transform="translate(530.87890625,474.2734375)"/>
<path d="M0 0 C3.94214952 1.80233065 5.72702319 3.17389812 7.45703125 7.23046875 C5.6875 8.34765625 5.6875 8.34765625 3.45703125 9.23046875 C1.6328125 8.55078125 1.6328125 8.55078125 -0.23046875 7.35546875 C-4.68033599 4.91922858 -8.53304802 4.25451017 -13.54296875 5.23046875 C-15.58346297 6.50096515 -17.5931434 7.82478071 -19.54296875 9.23046875 C-21.91796875 8.98046875 -21.91796875 8.98046875 -23.54296875 8.23046875 C-23.54296875 4.23046875 -23.54296875 4.23046875 -22.25 2.74609375 C-15.44010954 -1.8031939 -7.83183215 -2.37000143 0 0 Z " fill="#E2BA55" transform="translate(520.54296875,479.76953125)"/>
<path d="M0 0 C0.845625 -0.00773437 1.69125 -0.01546875 2.5625 -0.0234375 C5.43365432 0.4458858 6.83441027 1.48010899 9 3.375 C8.67 4.695 8.34 6.015 8 7.375 C5 7.375 5 7.375 3 6.375 C-0.83588262 6.20451633 -4.2651627 6.49621475 -8 7.375 C-8.33 6.055 -8.66 4.735 -9 3.375 C-5.95464354 0.7103131 -4.03928889 -0.03694472 0 0 Z " fill="#DEB655" transform="translate(512,488.625)"/>
<path d="M0 0 C-0.99815686 3.59336471 -1.94825458 4.95725379 -4.875 7.375 C-8 9 -8 9 -10.375 8.75 C-10.91125 8.5025 -11.4475 8.255 -12 8 C-12 6.68 -12 5.36 -12 4 C-10.390625 2.48046875 -10.390625 2.48046875 -8.25 1.1875 C-7.20585937 0.52814453 -7.20585937 0.52814453 -6.140625 -0.14453125 C-3.62193352 -1.15108861 -2.50389814 -0.91922387 0 0 Z " fill="#DBB24B" transform="translate(509,480)"/>
<path d="M0 0 C0 7.92 0 15.84 0 24 C-0.33 24 -0.66 24 -1 24 C-1.33 21.69 -1.66 19.38 -2 17 C-2.66 17.99 -3.32 18.98 -4 20 C-3.67 13.73 -3.34 7.46 -3 1 C-1 0 -1 0 0 0 Z " fill="#E9BA4A" transform="translate(699,579)"/>
<path d="M0 0 C0.33 0 0.66 0 1 0 C2.25406138 5.78645644 2.11186913 11.48868116 2.0625 17.375 C2.05798828 18.39722656 2.05347656 19.41945313 2.04882812 20.47265625 C2.037103 22.98183194 2.02069176 25.4908849 2 28 C1.67 28 1.34 28 1 28 C0.67 21.73 0.34 15.46 0 9 C-0.33 9 -0.66 9 -1 9 C-1.33 13.29 -1.66 17.58 -2 22 C-2.33 22 -2.66 22 -3 22 C-3.05382106 19.37472811 -3.09358313 16.75055287 -3.125 14.125 C-3.14175781 13.37863281 -3.15851562 12.63226562 -3.17578125 11.86328125 C-3.1933959 9.90805539 -3.10320189 7.95257979 -3 6 C-2.34 5.34 -1.68 4.68 -1 4 C-0.3574765 1.93125966 -0.3574765 1.93125966 0 0 Z " fill="#AB8734" transform="translate(698,572)"/>
<path d="M0 0 C-0.33 0.66 -0.66 1.32 -1 2 C0.32 2.66 1.64 3.32 3 4 C-1.62 4.66 -6.24 5.32 -11 6 C-10.34 5.67 -9.68 5.34 -9 5 C-9 3.68 -9 2.36 -9 1 C-6.04335481 -0.4783226 -3.25770263 -0.06032783 0 0 Z " fill="#EEC755" transform="translate(513,469)"/>
<path d="M0 0 C0.66 0.33 1.32 0.66 2 1 C1.01 2.32 0.02 3.64 -1 5 C-0.01 5.33 0.98 5.66 2 6 C-0.64 5.67 -3.28 5.34 -6 5 C-6 4.34 -6 3.68 -6 3 C-4.03533587 1.93224776 -2.03144641 0.93446535 0 0 Z " fill="#C79D39" transform="translate(564,691)"/>
<path d="M0 0 C0.99 0.66 1.98 1.32 3 2 C2.67 3.32 2.34 4.64 2 6 C1.01 6 0.02 6 -1 6 C-1.66 5.34 -2.32 4.68 -3 4 C-2.01 2.68 -1.02 1.36 0 0 Z " fill="#D7AC49" transform="translate(518,490)"/>
<path d="M0 0 C0.33 1.32 0.66 2.64 1 4 C-1.63904371 5.41377341 -4.07120629 6.37240135 -7 7 C-2.25 1.125 -2.25 1.125 0 0 Z " fill="#D5AC43" transform="translate(357,401)"/>
<path d="M0 0 C2.4375 0.75 2.4375 0.75 5 2 C5.8125 4.125 5.8125 4.125 6 6 C5.01 6 4.02 6 3 6 C0 2.66666667 0 2.66666667 0 0 Z " fill="#D2AA3B" transform="translate(649,383)"/>
<path d="M0 0 C0.66 0 1.32 0 2 0 C2.99 1.98 3.98 3.96 5 6 C0.125 4.25 0.125 4.25 -1 2 C-0.67 1.34 -0.34 0.68 0 0 Z " fill="#CCA23A" transform="translate(369,635)"/>
</svg>
