<svg id="svg" version="1.1" viewBox="0 0 300 300" width="300" height="300" xmlns="http://www.w3.org/2000/svg">
  
    <defs>
      <clipPath id="clip-1">
        <rect x="0" y="0" transform="scale(0.15,0.15)" width="2000" height="2000" fill="none"/>
      </clipPath>
      <linearGradient x1="118.3695" y1="154.2315" x2="136.5729" y2="152.2725" gradientUnits="userSpaceOnUse" id="color-1">
        <stop offset="0" stop-color="#bc8531"/>
        <stop offset="1" stop-color="#edc365"/>
      </linearGradient>
      <linearGradient x1="178.6875" y1="155.259" x2="163.0785" y2="152.382" gradientUnits="userSpaceOnUse" id="color-2">
        <stop offset="0" stop-color="#c48f39"/>
        <stop offset="1" stop-color="#eec464"/>
      </linearGradient>
      <linearGradient x1="133.58925" y1="143.17035" x2="145.4253" y2="147.0804" gradientUnits="userSpaceOnUse" id="color-3">
        <stop offset="0" stop-color="#e8c061"/>
        <stop offset="1" stop-color="#ffe492"/>
      </linearGradient>
      <linearGradient x1="162.132" y1="162.1545" x2="152.0955" y2="158.184" gradientUnits="userSpaceOnUse" id="color-4">
        <stop offset="0" stop-color="#eec668"/>
        <stop offset="1" stop-color="#fce694"/>
      </linearGradient>
      <linearGradient x1="240.96" y1="156.051" x2="169.836" y2="181.71" gradientUnits="userSpaceOnUse" id="color-5">
        <stop offset="0" stop-color="#c18113"/>
        <stop offset="1" stop-color="#fffeb7"/>
      </linearGradient>
      <linearGradient x1="236.9265" y1="91.56555" x2="227.826" y2="105.91965" gradientUnits="userSpaceOnUse" id="color-6">
        <stop offset="0" stop-color="#2a1200"/>
        <stop offset="1" stop-color="#61390f"/>
      </linearGradient>
      <linearGradient x1="233.733" y1="71.3616" x2="212.8725" y2="84.39795" gradientUnits="userSpaceOnUse" id="color-7">
        <stop offset="0" stop-color="#4a2807"/>
        <stop offset="1" stop-color="#724610"/>
      </linearGradient>
      <linearGradient x1="227.52" y1="86.75775" x2="230.439" y2="82.10415" gradientUnits="userSpaceOnUse" id="color-8">
        <stop offset="0" stop-color="#c69245"/>
        <stop offset="1" stop-color="#f1be5b"/>
      </linearGradient>
      <linearGradient x1="246.705" y1="125.1201" x2="213.141" y2="164.568" gradientUnits="userSpaceOnUse" id="color-9">
        <stop offset="0" stop-color="#78460c"/>
        <stop offset="1" stop-color="#c99b3e"/>
      </linearGradient>
      <linearGradient x1="215.1525" y1="136.2099" x2="204.384" y2="130.63365" gradientUnits="userSpaceOnUse" id="color-10">
        <stop offset="0" stop-color="#5a340c"/>
        <stop offset="1" stop-color="#9e6817"/>
      </linearGradient>
      <linearGradient x1="209.676" y1="130.2816" x2="199.8825" y2="121.3347" gradientUnits="userSpaceOnUse" id="color-11">
        <stop offset="0" stop-color="#a87021"/>
        <stop offset="1" stop-color="#d7aa51"/>
      </linearGradient>
      <linearGradient x1="59.95035" y1="138.75015" x2="116.2542" y2="104.84325" gradientUnits="userSpaceOnUse" id="color-12">
        <stop offset="0" stop-color="#ca8c1c"/>
        <stop offset="1" stop-color="#ffef9e"/>
      </linearGradient>
      <linearGradient x1="50.08095" y1="206.925" x2="69.882" y2="150.891" gradientUnits="userSpaceOnUse" id="color-13">
        <stop offset="0" stop-color="#552f0a"/>
        <stop offset="1" stop-color="#966218"/>
      </linearGradient>
      <linearGradient x1="60.57795" y1="206.4105" x2="86.23905" y2="169.908" gradientUnits="userSpaceOnUse" id="color-14">
        <stop offset="0" stop-color="#351800"/>
        <stop offset="1" stop-color="#88551c"/>
      </linearGradient>
      <linearGradient x1="62.09295" y1="151.0425" x2="79.51905" y2="127.6422" gradientUnits="userSpaceOnUse" id="color-15">
        <stop offset="0" stop-color="#966317"/>
        <stop offset="1" stop-color="#d5a544"/>
      </linearGradient>
      <linearGradient x1="156.456" y1="98.35185" x2="149.39865" y2="80.28825" gradientUnits="userSpaceOnUse" id="color-16">
        <stop offset="0" stop-color="#be8123"/>
        <stop offset="1" stop-color="#f8e191"/>
      </linearGradient>
      <linearGradient x1="162.7785" y1="83.50995" x2="174.0195" y2="100.0098" gradientUnits="userSpaceOnUse" id="color-17">
        <stop offset="0" stop-color="#482805"/>
        <stop offset="1" stop-color="#b17721"/>
      </linearGradient>
      <linearGradient x1="154.9245" y1="81.4662" x2="156.597" y2="89.98665" gradientUnits="userSpaceOnUse" id="color-18">
        <stop offset="0" stop-color="#311400"/>
        <stop offset="1" stop-color="#4e2c04"/>
      </linearGradient>
      <linearGradient x1="194.0565" y1="52.77705" x2="157.7805" y2="72.42585" gradientUnits="userSpaceOnUse" id="color-19">
        <stop offset="0" stop-color="#9d6a21"/>
        <stop offset="1" stop-color="#deb04e"/>
      </linearGradient>
      <linearGradient x1="153.726" y1="62.62815" x2="132.0648" y2="77.8656" gradientUnits="userSpaceOnUse" id="color-20">
        <stop offset="0" stop-color="#dfb350"/>
        <stop offset="1" stop-color="#f9e68d"/>
      </linearGradient>
      <linearGradient x1="136.53405" y1="240.942" x2="151.4085" y2="193.2285" gradientUnits="userSpaceOnUse" id="color-21">
        <stop offset="0" stop-color="#f0ce67"/>
        <stop offset="1" stop-color="#fffcbd"/>
      </linearGradient>
      <linearGradient x1="104.07825" y1="245.4015" x2="125.3184" y2="229.1985" gradientUnits="userSpaceOnUse" id="color-22">
        <stop offset="0" stop-color="#9b681f"/>
        <stop offset="1" stop-color="#c89a3f"/>
      </linearGradient>
      <linearGradient x1="131.3904" y1="241.8615" x2="152.5695" y2="223.125" gradientUnits="userSpaceOnUse" id="color-23">
        <stop offset="0" stop-color="#c5933b"/>
        <stop offset="1" stop-color="#f1d371"/>
      </linearGradient>
      <linearGradient x1="130.4382" y1="211.4865" x2="122.83365" y2="199.107" gradientUnits="userSpaceOnUse" id="color-24">
        <stop offset="0" stop-color="#6b410f"/>
        <stop offset="1" stop-color="#b87d22"/>
      </linearGradient>
      <linearGradient x1="137.46135" y1="214.005" x2="133.8567" y2="207.384" gradientUnits="userSpaceOnUse" id="color-25">
        <stop offset="0" stop-color="#512e07"/>
        <stop offset="1" stop-color="#6e4411"/>
      </linearGradient>
      <linearGradient x1="131.88615" y1="211.209" x2="138.79365" y2="223.512" gradientUnits="userSpaceOnUse" id="color-26">
        <stop offset="0" stop-color="#e8bd6e"/>
        <stop offset="1" stop-color="#f5eaa9"/>
      </linearGradient>
      <linearGradient x1="220.77" y1="230.538" x2="198.93" y2="217.812" gradientUnits="userSpaceOnUse" id="color-27">
        <stop offset="0" stop-color="#ecc15a"/>
        <stop offset="1" stop-color="#fef4bb"/>
      </linearGradient>
      <linearGradient x1="179.235" y1="226.668" x2="190.7505" y2="235.026" gradientUnits="userSpaceOnUse" id="color-28">
        <stop offset="0" stop-color="#7e4d0c"/>
        <stop offset="1" stop-color="#af7a22"/>
      </linearGradient>
      <linearGradient x1="170.2785" y1="225.9195" x2="186.6675" y2="233.3175" gradientUnits="userSpaceOnUse" id="color-29">
        <stop offset="0" stop-color="#603b05"/>
        <stop offset="1" stop-color="#88570f"/>
      </linearGradient>
      <linearGradient x1="232.71" y1="217.0095" x2="221.3745" y2="212.19" gradientUnits="userSpaceOnUse" id="color-30">
        <stop offset="0" stop-color="#8a5717"/>
        <stop offset="1" stop-color="#c4933e"/>
      </linearGradient>
      <linearGradient x1="211.2705" y1="223.3005" x2="212.6355" y2="203.3745" gradientUnits="userSpaceOnUse" id="color-31">
        <stop offset="0" stop-color="#613b12"/>
        <stop offset="1" stop-color="#a26a24"/>
      </linearGradient>
      <linearGradient x1="215.394" y1="229.803" x2="211.317" y2="227.124" gradientUnits="userSpaceOnUse" id="color-32">
        <stop offset="0" stop-color="#bc8531"/>
        <stop offset="1" stop-color="#f1cb69"/>
      </linearGradient>
      <linearGradient x1="75.69975" y1="101.86995" x2="71.4663" y2="62.8284" gradientUnits="userSpaceOnUse" id="color-33">
        <stop offset="0" stop-color="#634610"/>
        <stop offset="1" stop-color="#ce933c"/>
      </linearGradient>
      <linearGradient x1="120.6771" y1="72.57045" x2="110.334" y2="62.1261" gradientUnits="userSpaceOnUse" id="color-34">
        <stop offset="0" stop-color="#533105"/>
        <stop offset="1" stop-color="#a76e1b"/>
      </linearGradient>
      <linearGradient x1="85.34565" y1="66.60435" x2="88.85145" y2="69.1635" gradientUnits="userSpaceOnUse" id="color-35">
        <stop offset="0" stop-color="#dcb256"/>
        <stop offset="1" stop-color="#fbe07a"/>
      </linearGradient>
      <linearGradient x1="82.35405" y1="160.875" x2="92.10765" y2="165.8355" gradientUnits="userSpaceOnUse" id="color-36">
        <stop offset="0" stop-color="#5a3409"/>
        <stop offset="1" stop-color="#9e691a"/>
      </linearGradient>
      <linearGradient x1="125.1927" y1="204.8265" x2="106.93035" y2="189.7995" gradientUnits="userSpaceOnUse" id="color-37">
        <stop offset="0" stop-color="#b57c25"/>
        <stop offset="1" stop-color="#fbe68c"/>
      </linearGradient>
      <linearGradient x1="88.3029" y1="169.983" x2="99.47805" y2="177.3495" gradientUnits="userSpaceOnUse" id="color-38">
        <stop offset="0" stop-color="#b27d2b"/>
        <stop offset="1" stop-color="#deb85d"/>
      </linearGradient>
      <linearGradient x1="178.7415" y1="95.5971" x2="194.175" y2="129.0813" gradientUnits="userSpaceOnUse" id="color-39">
        <stop offset="0" stop-color="#e3bd64"/>
        <stop offset="1" stop-color="#fff8a8"/>
      </linearGradient>
      <linearGradient x1="172.5315" y1="93.44145" x2="183.9345" y2="103.09245" gradientUnits="userSpaceOnUse" id="color-40">
        <stop offset="0" stop-color="#ae7d2f"/>
        <stop offset="1" stop-color="#e1b960"/>
      </linearGradient>
      <linearGradient x1="201.4455" y1="120.2388" x2="194.7315" y2="114.12735" gradientUnits="userSpaceOnUse" id="color-41">
        <stop offset="0" stop-color="#d8ab50"/>
        <stop offset="1" stop-color="#f7df86"/>
      </linearGradient>
      <linearGradient x1="64.34355" y1="227.3895" x2="83.3151" y2="214.1655" gradientUnits="userSpaceOnUse" id="color-42">
        <stop offset="0" stop-color="#452507"/>
        <stop offset="1" stop-color="#6f430b"/>
      </linearGradient>
    </defs>
    <g clip-path="url(#clip-1)" fill="none" fill-rule="nonzero" stroke="none" stroke-width="1" stroke-linecap="butt" stroke-linejoin="miter" stroke-miterlimit="10" stroke-dasharray="" stroke-dashoffset="0" font-family="none" font-weight="none" font-size="none" text-anchor="none" style="mix-blend-mode: normal">
      <path d="M142.92585,162.624c-5.56545,6.3405 -16.71735,5.9595 -21.7293,-0.8775c-2.37315,-3.237 -3.5478,-6.9765 -2.9676,-10.989c0.51975,-3.8025 2.5464,-7.2366 5.62425,-9.52965c2.8611,-2.0922 6.9483,-3.18915 10.46475,-2.6556c0.3081,0.22305 0.576,0.41025 0.89655,0.6204c0.288,1.74225 0.09345,4.1307 -0.67545,5.742l-0.4218,0.19185c-0.75285,-0.0516 -1.4058,-0.08985 -2.1606,-0.048c-6.6366,0.3672 -9.5628,8.208 -5.1501,13.005c1.42965,1.524 3.4176,2.4 5.5065,2.427c2.51445,0.0375 3.9117,-0.8625 5.8242,-2.238c-0.5424,1.212 -1.24365,1.0155 -1.78515,1.734c-0.7227,0.96 0.6204,3.0405 0.38835,4.14c-0.05295,0.417 -0.05085,1.461 0.11955,1.8105c1.57035,0.366 4.5387,-2.898 6.06585,-3.333z" fill="url(#color-1)"/>
      <path d="M160.917,138.93165c3.4935,-1.1082 7.5075,-0.51855 10.7235,1.1598c3.3645,1.73625 5.8815,4.7622 6.975,8.3865c1.1805,3.75255 0.804,7.82355 -1.0485,11.29455c-1.7205,3.267 -4.689,5.7 -8.2305,6.7455c-3.2535,0.9885 -6.348,0.792 -9.54,-0.2625c0.216,-0.03 0.7665,-0.096 0.813,-0.225c0.3525,-0.975 1.1205,-5.3265 1.191,-6.165c2.1435,0.705 4.3875,1.0335 6.447,-0.0855c9.927,-5.3865 1.9095,-18.876 -7.92,-13.4607c0.984,-1.79955 3.546,-1.10235 4.9425,-1.7685c0.309,-0.80835 -0.459,-1.5183 0,-2.65425c0.2535,-0.63015 0.5205,-2.3556 0.642,-3.078c-1.6245,-0.66975 -3.4335,0.42135 -4.995,0.1131z" fill="url(#color-2)"/>
      <path d="M160.917,138.93165c1.5615,0.30825 3.3705,-0.78285 4.995,-0.1131c-0.1215,0.7224 -0.3885,2.44785 -0.642,3.078c-0.459,1.13595 0.309,1.8459 0,2.65425c-1.3965,0.66615 -3.9585,-0.03105 -4.9425,1.7685c-2.547,1.8693 -4.908,4.5087 -7.2345,6.6912c-2.289,2.1495 -4.5936,4.311 -6.89685,6.4455c-0.6144,0.57 -2.78685,2.8905 -3.2703,3.168c-1.52715,0.435 -4.4955,3.699 -6.06585,3.333c-0.1704,-0.3495 -0.1725,-1.3935 -0.11955,-1.8105c0.23205,-1.0995 -1.11105,-3.18 -0.38835,-4.14c0.5415,-0.7185 1.24275,-0.522 1.78515,-1.734c0.5322,-0.684 2.2701,-2.2905 2.95455,-2.9535c2.03355,-1.9755 4.0812,-3.9375 6.14265,-5.88345c3.29655,-3.1272 9.33855,-9.78645 13.68255,-10.5039z" fill="#f9e599"/>
      <path d="M134.31795,138.57225c5.52945,0.5532 8.5842,4.0614 12.22335,7.7556c-1.6902,1.7823 -3.4734,3.4737 -5.34255,5.06715c-1.9566,-2.9655 -3.513,-5.2209 -7.0815,-6.2685l0.4218,-0.19185c0.7689,-1.6113 0.96345,-3.99975 0.67545,-5.742c-0.32055,-0.21015 -0.58845,-0.39735 -0.89655,-0.6204z" fill="url(#color-3)"/>
      <path d="M155.664,154.3275c2.0475,2.4135 3.315,4.1205 6.1365,5.538c-0.0705,0.8385 -0.8385,5.19 -1.191,6.165c-0.0465,0.129 -0.597,0.195 -0.813,0.225c-3.636,-1.509 -6.057,-4.3005 -8.7435,-7.089c1.347,-1.6455 3.0975,-3.3525 4.611,-4.839z" fill="url(#color-4)"/>
      <path d="M147.77355,128.0124c3.06795,-0.31995 7.13445,0.90585 9.66045,2.62605c1.854,1.263 3.5295,2.45145 0.9255,4.0524c-3.114,-2.64675 -4.3125,-3.5778 -8.40375,-4.16475c-5.0304,-0.1956 -7.17285,1.0122 -10.8969,4.1265c-1.0026,-0.6657 -1.94895,-1.5177 -0.7239,-2.68245c2.4516,-2.33115 6.09105,-3.6948 9.4386,-3.95775z" fill="#f9e599"/>
      <path d="M147.06645,132.92055c1.11255,-0.069 2.06595,-0.13065 3.17655,0.00225c2.526,0.2775 4.833,1.56585 6.393,3.57135c-0.5445,0.70785 -0.9345,1.0335 -1.587,1.62195c-1.7505,-1.4259 -2.4945,-2.0916 -4.68,-2.75505c-0.228,-0.033 -0.45705,-0.06165 -0.6861,-0.08595c-3.1035,-0.321 -5.0847,0.8763 -7.38225,2.72955c-0.5451,-0.48855 -1.09245,-1.05015 -1.61595,-1.5675c1.73715,-1.9272 3.86085,-3.02385 6.38175,-3.5166z" fill="#f9e599"/>
      <path d="M148.27935,137.59425c1.46055,-0.08655 4.53165,0.4734 4.75215,2.3925c0.072,0.6237 -0.6555,1.15155 -1.089,1.5303c-0.951,-0.6924 -1.548,-1.2018 -2.6568,-1.61565c-1.716,-0.0048 -2.39535,0.6696 -3.78405,1.6542c-0.70125,-0.74895 -0.8391,-0.9252 -1.37055,-1.8006c1.3158,-1.482 2.2647,-1.89435 4.14825,-2.16075z" fill="#f9e599"/>
      <path d="M191.3175,48.6861c32.232,2.85705 56.2455,31.6986 58.4115,63.09285c0.5895,5.80065 0.684,10.51485 -0.057,16.2996c-1.536,10.69935 -3.7005,18.78165 -8.1825,28.78545c-1.56,3.4815 -3.3405,6.651 -4.956,10.0365c-0.75,1.4025 -8.406,14.0775 -9.318,14.616c-2.082,3.546 -7.0875,9.2865 -9.7365,12.7875c-1.074,1.4025 -2.8455,3.2835 -4.0635,4.632c-4.5465,5.0355 -9.3945,9.7905 -14.517,14.2395c-0.48,0.4155 -2.6745,2.3265 -3.1575,2.5785l-0.357,-0.138c-0.4215,0.3015 -0.6705,0.5535 -1.179,0.594c-0.0165,-0.03 -0.4365,-0.918 -0.348,-0.867c-3.069,-1.7565 -5.4225,-3.9345 -7.9065,-6.423c-0.831,-0.8325 -2.043,-1.662 -2.9565,-2.5185c-1.8705,-1.755 -3.81,-5.2185 -6.7155,-5.037c-3.3555,2.6085 -7.1475,5.0025 -10.77,7.2255c-1.749,1.0725 -3.8145,1.8915 -5.529,3.123c-0.543,-0.969 -1.7655,-0.963 -2.634,-2.493c0.09,-0.351 6.075,-2.8845 6.7275,-4.1235c-0.0735,0.1125 9.3435,-6.3975 10.1055,-6.9585c10.2915,-7.5615 18.795,-16.2795 26.58,-26.364c1.9335,-3.1425 7.2645,-10.089 8.5065,-13.389c-0.876,-1.6965 -1.7445,-3.741 -2.5365,-5.5065c-1.773,-4.0875 -3.912,-7.27215 -5.9865,-11.09085c-0.381,-0.33555 -3.1785,-4.8387 -3.6855,-5.56965c-1.6545,-2.35215 -3.381,-4.6533 -5.178,-6.9c0.4155,0.18165 0.5175,0.25755 0.972,0.30825c0.426,-0.16725 0.909,-0.9816 1.4205,-1.4052l-0.48,-0.6156l0.8055,-0.05235c1.9035,-1.82415 12.5625,-13.02165 13.1475,-14.72475c1.0365,1.2327 2.4405,2.91945 3.3465,4.2534c1.953,2.63775 5.049,6.81705 6.5295,9.6696c0.825,1.31205 1.8645,2.8752 2.592,4.2171l0.252,-0.0012c1.455,-4.72335 1.32,-7.92765 2.2605,-12.12705c0.345,-11.65995 0.6795,-22.5096 -5.2815,-33.1398c-0.675,-1.2033 -3.54,-6.2592 -4.281,-6.74595l-2.8155,-0.85665c0.3015,-0.02025 0.1845,0.0429 0.369,-0.15975l-0.684,-0.18435l-0.0435,-0.2478c0.3885,-0.4263 1.59,-2.44365 2.2545,-3.29985c0.645,0.2769 1.1685,0.58755 1.8495,0.55125c-1.23,-0.6171 -4.4595,-1.3218 -4.995,-1.6725c1.1895,-0.5862 4.6095,1.81935 6.024,1.1298l-0.012,0.00585l-0.009,-0.1842c-1.047,-0.93855 -5.7225,-1.47465 -6.9135,-2.5446c-0.615,-0.05265 -3.525,-0.72345 -4.326,-0.89475c-0.336,-1.1109 -1.3125,-2.25075 -1.842,-3.3012c-1.0065,-1.9971 -2.394,-4.5447 -3.396,-6.4269c-1.1025,-2.07225 -7.1115,-10.6791 -7.305,-12.1827z" fill="url(#color-5)"/>
      <path d="M191.3175,48.6861c32.232,2.85705 56.2455,31.6986 58.4115,63.09285c0.5895,5.80065 0.684,10.51485 -0.057,16.2996c-0.1065,-0.42645 -0.081,-0.4095 -0.3645,-0.73905l-0.42,0.30585c-0.591,-0.01725 -3.18,-2.30115 -3.831,-2.87085c-2.367,-2.0697 -5.3805,-2.8389 -7.947,-4.45335c-3.891,-2.4486 -4.2975,-4.75245 -9.024,-5.68665c-0.018,-0.4701 0.0315,-1.1115 -0.246,-1.4826c-0.273,-1.8846 -0.1965,-3.85995 -0.555,-6.0168c-0.2715,-0.67905 -0.4425,-1.38795 -0.627,-2.09415l0.0675,0.32625l-0.111,-0.2901c0.129,0.87495 0.1665,1.98765 0.027,2.8629c0.234,3.4485 0.222,6.909 -0.033,10.35585c-0.564,-1.8273 0.204,-8.3178 -0.273,-10.77135c-0.2415,-1.24215 -0.363,-5.19855 -1.0305,-6.14415c-0.9285,-0.2538 -0.63,0.4779 -2.103,-0.02685l-0.2805,0.1071c-0.0945,1.06245 0.2055,3.1362 0.285,4.21875c0.165,2.2731 0.5175,11.87205 -0.435,13.1001l-0.0465,0.06075c0.345,-11.65995 0.6795,-22.5096 -5.2815,-33.1398c-0.675,-1.2033 -3.54,-6.2592 -4.281,-6.74595l-2.8155,-0.85665c0.3015,-0.02025 0.1845,0.0429 0.369,-0.15975l-0.684,-0.18435l-0.0435,-0.2478c0.3885,-0.4263 1.59,-2.44365 2.2545,-3.29985c0.645,0.2769 1.1685,0.58755 1.8495,0.55125c-1.23,-0.6171 -4.4595,-1.3218 -4.995,-1.6725c1.1895,-0.5862 4.6095,1.81935 6.024,1.1298l-0.012,0.00585l-0.009,-0.1842c-1.047,-0.93855 -5.7225,-1.47465 -6.9135,-2.5446c-0.615,-0.05265 -3.525,-0.72345 -4.326,-0.89475c-0.336,-1.1109 -1.3125,-2.25075 -1.842,-3.3012c-1.0065,-1.9971 -2.394,-4.5447 -3.396,-6.4269c-1.1025,-2.07225 -7.1115,-10.6791 -7.305,-12.1827z" fill="url(#color-6)"/>
      <path d="M191.3175,48.6861c32.232,2.85705 56.2455,31.6986 58.4115,63.09285c-0.384,-0.9279 -0.252,-0.8106 -0.9795,-1.26315c-0.585,-3.1803 -2.766,-8.9643 -4.2135,-11.805c-0.567,-1.0395 -1.068,-1.91745 -1.695,-2.91945l-0.507,0.44445c-1.515,-2.00295 -2.547,-3.5448 -4.2375,-5.517c-5.1915,-6.0288 -11.6805,-10.80255 -18.9825,-13.9626c-1.6065,-0.6858 -3.3285,-1.57155 -5.022,-1.9989c-1.23,-0.6171 -4.4595,-1.3218 -4.995,-1.6725c1.1895,-0.5862 4.6095,1.81935 6.024,1.1298l-0.012,0.00585l-0.009,-0.1842c-1.047,-0.93855 -5.7225,-1.47465 -6.9135,-2.5446c-0.615,-0.05265 -3.525,-0.72345 -4.326,-0.89475c-0.336,-1.1109 -1.3125,-2.25075 -1.842,-3.3012c-1.0065,-1.9971 -2.394,-4.5447 -3.396,-6.4269c-1.1025,-2.07225 -7.1115,-10.6791 -7.305,-12.1827z" fill="url(#color-7)"/>
      <path d="M208.1865,71.49165c14.445,3.57345 26.6265,11.69325 34.6545,24.2997l-0.507,0.44445c-1.515,-2.00295 -2.547,-3.5448 -4.2375,-5.517c-5.1915,-6.0288 -11.6805,-10.80255 -18.9825,-13.9626c-1.6065,-0.6858 -3.3285,-1.57155 -5.022,-1.9989c-1.23,-0.6171 -4.4595,-1.3218 -4.995,-1.6725c1.1895,-0.5862 4.6095,1.81935 6.024,1.1298l-0.012,0.00585l-0.009,-0.1842c-1.047,-0.93855 -5.7225,-1.47465 -6.9135,-2.5446z" fill="url(#color-8)"/>
      <path d="M225.48,100.18215c-0.12,-0.4641 -0.198,-0.59865 -0.048,-1.05645l0.207,0.00315l0.135,0.22275c0.159,0.2535 0.1755,0.2865 0.3615,0.49575c1.2555,-0.0927 11.04,6.27285 12.7365,7.572c1.494,1.1319 2.889,2.39025 4.1685,3.7608c2.3475,2.52105 3.855,5.0571 5.631,7.95225c0.198,0.3231 0.2625,0.38265 0.6,0.41175c0.1605,-0.73605 -0.4215,-3.61845 -0.5865,-4.5603c0.555,0.5637 0.795,3.042 1.0605,4.07745l0.084,-0.10605c0.0825,-1.29585 -0.081,-6.4581 -0.942,-7.41795c-0.1755,-0.1953 -0.123,-0.68055 -0.138,-1.0215c0.7275,0.45255 0.5955,0.33525 0.9795,1.26315c0.5895,5.80065 0.684,10.51485 -0.057,16.2996c-0.1065,-0.42645 -0.081,-0.4095 -0.3645,-0.73905l-0.42,0.30585c-0.591,-0.01725 -3.18,-2.30115 -3.831,-2.87085c-2.367,-2.0697 -5.3805,-2.8389 -7.947,-4.45335c-3.891,-2.4486 -4.2975,-4.75245 -9.024,-5.68665c-0.018,-0.4701 0.0315,-1.1115 -0.246,-1.4826c-0.273,-1.8846 -0.1965,-3.85995 -0.555,-6.0168c0.042,-1.16475 -0.9255,-6.4845 -1.6035,-7.2243z" fill="#6d4310"/>
      <path d="M212.2425,74.20605c0.645,0.2769 1.1685,0.58755 1.8495,0.55125c1.6935,0.42735 3.4155,1.3131 5.022,1.9989c7.302,3.16005 13.791,7.9338 18.9825,13.9626c1.6905,1.9722 2.7225,3.51405 4.2375,5.517l0.507,-0.44445c0.627,1.002 1.128,1.87995 1.695,2.91945c1.4475,2.8407 3.6285,8.6247 4.2135,11.805c0.015,0.34095 -0.0375,0.8262 0.138,1.0215c0.861,0.95985 1.0245,6.1221 0.942,7.41795l-0.084,0.10605c-0.2655,-1.03545 -0.5055,-3.51375 -1.0605,-4.07745c-1.0275,-5.1375 -2.4495,-8.1288 -4.89,-12.65715c-6.2235,-11.5458 -17.9025,-19.9245 -30.633,-23.37225l-2.8155,-0.85665c0.3015,-0.02025 0.1845,0.0429 0.369,-0.15975l-0.684,-0.18435l-0.0435,-0.2478c0.3885,-0.4263 1.59,-2.44365 2.2545,-3.29985z" fill="#996823"/>
      <path d="M242.841,95.79135c0.627,1.002 1.128,1.87995 1.695,2.91945l-0.273,0.3738l-0.2325,-0.0399c-0.7815,-0.8205 -1.2405,-1.7793 -1.6965,-2.8089z" fill="#b17e2f"/>
      <path d="M225.48,100.18215l0.201,-0.27135c0.678,0.7398 1.6455,6.05955 1.6035,7.2243c-0.2715,-0.67905 -0.4425,-1.38795 -0.627,-2.09415l0.0675,0.32625l-0.111,-0.2901c0.129,0.87495 0.1665,1.98765 0.027,2.8629c-0.471,-1.57995 -0.5265,-5.4912 -1.161,-7.75785z" fill="#996823"/>
      <path d="M227.8395,113.1519c0.2775,0.3711 0.228,1.0125 0.246,1.4826c4.7265,0.9342 5.133,3.23805 9.024,5.68665c2.5665,1.61445 5.58,2.38365 7.947,4.45335c0.651,0.5697 3.24,2.8536 3.831,2.87085l0.42,-0.30585c0.2835,0.32955 0.258,0.3126 0.3645,0.73905c-1.536,10.69935 -3.7005,18.78165 -8.1825,28.78545c-1.56,3.4815 -3.3405,6.651 -4.956,10.0365c-0.75,1.4025 -8.406,14.0775 -9.318,14.616c-0.09,-0.8325 1.356,-2.1015 1.767,-2.9985c0.501,-0.663 -0.777,-1.335 -1.3245,-1.725c-5.814,-4.1295 -8.9235,-10.5675 -13.134,-16.0965c-0.3615,-0.4725 0.2925,0.069 -0.2505,-0.372l-0.7995,0.966c-0.006,0.144 4.308,-8.2755 4.647,-9.0315c2.9655,-6.60015 5.934,-13.50435 7.3995,-20.60415c0.1395,-0.23475 0.492,-1.89705 0.5745,-2.25045c1.3335,-5.6841 1.587,-10.5105 1.7445,-16.2525z" fill="url(#color-9)"/>
      <path d="M207.744,112.82835c1.0365,1.2327 2.4405,2.91945 3.3465,4.2534c1.953,2.63775 5.049,6.81705 6.5295,9.6696c-0.5955,0.60855 -1.092,3.09255 -1.3815,4.05105c-0.9015,3.0534 -1.9005,6.07665 -2.9985,9.0651c-1.1265,2.9958 -2.6325,5.8407 -4.0605,8.7009c-0.2445,0.49005 -0.81,1.8426 -1.062,2.1681c-0.33,0.5175 -1.0155,1.833 -1.389,2.142c-1.773,-4.0875 -3.912,-7.27215 -5.9865,-11.09085c-0.381,-0.33555 -3.1785,-4.8387 -3.6855,-5.56965c-1.6545,-2.35215 -3.381,-4.6533 -5.178,-6.9c0.4155,0.18165 0.5175,0.25755 0.972,0.30825c0.426,-0.16725 0.909,-0.9816 1.4205,-1.4052l-0.48,-0.6156l0.8055,-0.05235c1.9035,-1.82415 12.5625,-13.02165 13.1475,-14.72475z" fill="url(#color-10)"/>
      <path d="M207.744,112.82835c1.0365,1.2327 2.4405,2.91945 3.3465,4.2534c-0.3735,0.8487 -0.45,1.5366 -0.711,2.4138c-0.435,1.44345 -0.891,2.8809 -1.368,4.3119c-1.608,4.7793 -4.1835,10.9644 -6.6585,15.3363l-0.3735,-0.22635c0.8355,2.6049 -0.1215,1.52805 -0.582,3.3948c-0.2295,-0.3474 -0.2745,-0.3579 -0.6555,-0.52455c-0.381,-0.33555 -3.1785,-4.8387 -3.6855,-5.56965c-1.6545,-2.35215 -3.381,-4.6533 -5.178,-6.9c0.4155,0.18165 0.5175,0.25755 0.972,0.30825c0.426,-0.16725 0.909,-0.9816 1.4205,-1.4052l-0.48,-0.6156l0.8055,-0.05235c1.9035,-1.82415 12.5625,-13.02165 13.1475,-14.72475z" fill="url(#color-11)"/>
      <path d="M194.271,128.22105c0.933,0.65085 5.2275,7.15065 6.213,8.47275c0.252,0.33765 1.296,2.0667 1.4955,2.2236c0.8355,2.6049 -0.1215,1.52805 -0.582,3.3948c-0.2295,-0.3474 -0.2745,-0.3579 -0.6555,-0.52455c-0.381,-0.33555 -3.1785,-4.8387 -3.6855,-5.56965c-1.6545,-2.35215 -3.381,-4.6533 -5.178,-6.9c0.4155,0.18165 0.5175,0.25755 0.972,0.30825c0.426,-0.16725 0.909,-0.9816 1.4205,-1.4052z" fill="#e6bb5b"/>
      <path d="M201.9795,138.9174l0.3735,0.22635c1.2495,3.22335 5.4585,7.7664 5.7645,11.59275c-0.33,0.5175 -1.0155,1.833 -1.389,2.142c-1.773,-4.0875 -3.912,-7.27215 -5.9865,-11.09085c0.381,0.16665 0.426,0.17715 0.6555,0.52455c0.4605,-1.86675 1.4175,-0.7899 0.582,-3.3948z" fill="#996823"/>
      <path d="M222.7245,118.8402l0.0465,-0.06075c0.9525,-1.22805 0.6,-10.827 0.435,-13.1001c-0.0795,-1.08255 -0.3795,-3.1563 -0.285,-4.21875l0.2805,-0.1071c1.473,0.50475 1.1745,-0.22695 2.103,0.02685c0.6675,0.9456 0.789,4.902 1.0305,6.14415c0.477,2.45355 -0.291,8.94405 0.273,10.77135c-0.078,3.85995 -0.852,6.83475 -1.3875,10.5153c-0.9645,3.5322 -1.7235,6.9729 -2.9355,10.47045c-3.216,9.2913 -7.779,18.5064 -13.1415,26.7549c-0.717,1.1025 -3.321,5.064 -3.984,5.7945l-0.108,-0.09c0.1995,-0.789 1.1175,-1.209 1.3335,-2.307c-0.4335,-0.5295 -1.86,-0.1245 -3.126,-0.312l-0.234,-0.036c-0.6735,0.972 -1.179,2.094 -2.2665,2.688c1.9335,-3.1425 7.2645,-10.089 8.5065,-13.389c-0.876,-1.6965 -1.7445,-3.741 -2.5365,-5.5065c0.3735,-0.309 1.059,-1.6245 1.389,-2.142c0.252,-0.3255 0.8175,-1.67805 1.062,-2.1681c1.428,-2.8602 2.934,-5.7051 4.0605,-8.7009c1.098,-2.98845 2.097,-6.0117 2.9985,-9.0651c0.2895,-0.9585 0.786,-3.4425 1.3815,-4.05105c0.825,1.31205 1.8645,2.8752 2.592,4.2171l0.252,-0.0012c1.455,-4.72335 1.32,-7.92765 2.2605,-12.12705z" fill="#996823"/>
      <path d="M217.62,126.75135c0.825,1.31205 1.8645,2.8752 2.592,4.2171l0.252,-0.0012c-0.795,5.4891 -7.9695,22.88775 -11.199,27.41775c-0.876,-1.6965 -1.7445,-3.741 -2.5365,-5.5065c0.3735,-0.309 1.059,-1.6245 1.389,-2.142c0.252,-0.3255 0.8175,-1.67805 1.062,-2.1681c1.428,-2.8602 2.934,-5.7051 4.0605,-8.7009c1.098,-2.98845 2.097,-6.0117 2.9985,-9.0651c0.2895,-0.9585 0.786,-3.4425 1.3815,-4.05105z" fill="#462605"/>
      <path d="M200.7585,171.774c1.0875,-0.594 1.593,-1.716 2.2665,-2.688l0.234,0.036c1.266,0.1875 2.6925,-0.2175 3.126,0.312c-0.216,1.098 -1.134,1.518 -1.3335,2.307l0.108,0.09c-0.7365,1.359 -2.9985,4.137 -4.0065,5.3805c-7.356,8.9625 -15.7005,17.064 -24.8745,24.153c-3.3555,2.6085 -7.1475,5.0025 -10.77,7.2255c-1.749,1.0725 -3.8145,1.8915 -5.529,3.123c-0.543,-0.969 -1.7655,-0.963 -2.634,-2.493c0.09,-0.351 6.075,-2.8845 6.7275,-4.1235c-0.0735,0.1125 9.3435,-6.3975 10.1055,-6.9585c10.2915,-7.5615 18.795,-16.2795 26.58,-26.364z" fill="#c99945"/>
      <path d="M226.641,107.94c0.1395,-0.87525 0.102,-1.98795 -0.027,-2.8629l0.111,0.2901l-0.0675,-0.32625c0.1845,0.7062 0.3555,1.4151 0.627,2.09415c0.3585,2.15685 0.282,4.1322 0.555,6.0168c-0.1575,5.742 -0.411,10.5684 -1.7445,16.2525c-0.0825,0.3534 -0.435,2.0157 -0.5745,2.25045c-0.0555,-0.0522 -0.111,-0.1044 -0.1665,-0.15675c0.3435,-1.99455 2.5185,-12.1797 1.839,-13.4469l-0.177,0.04815c-0.2895,0.87765 -0.3165,2.9631 -0.435,4.0236c-0.255,2.2596 -0.642,4.50225 -1.161,6.7161l-0.1995,-0.0279c0.5355,-3.68055 1.3095,-6.65535 1.3875,-10.5153c0.255,-3.44685 0.267,-6.90735 0.033,-10.35585z" fill="#b17e2f"/>
      <path d="M80.02545,103.31265c7.27005,-8.03025 12.5454,-13.41525 20.75955,-20.5737c-0.3945,1.9785 2.65875,5.35785 3.66105,7.13775c2.56815,4.56075 6.7272,7.9875 10.0242,11.96655c0.2403,0.28995 -0.0063,0.08475 0.3126,0.30915c-1.5576,1.5015 -3.56925,3.02055 -5.04765,4.4832c-5.17005,5.1156 -11.66355,11.66055 -15.7863,17.5854c1.19775,-0.582 3.51045,-4.4019 4.7121,-5.56095c0.19845,-0.1914 0.24135,0.0741 0.5367,-0.3201c0.88425,0.1506 1.8051,0.429 2.64495,0.5262c0.051,1.19655 -4.00695,4.52805 -3.39225,5.30445c-3.54015,5.1906 -7.2885,9.8679 -10.05555,15.6105c-2.28285,4.0104 -4.3812,8.12295 -6.28845,12.3249c-0.76575,2.226 -5.34315,13.6335 -5.0019,15.3945c-3.9795,15.816 -4.19505,33.3225 4.3932,47.748c0.66345,1.1145 2.1144,3.6135 3.11085,4.2645c-7.2654,-1.671 -16.76805,-6.69 -22.1259,-11.8785c0.28155,1.176 1.6203,1.332 1.8954,2.145c-0.7098,0.4665 -0.74805,1.0335 -0.87825,1.875c-1.63515,-1.035 -4.2324,-4.629 -5.79555,-6.039c-1.1232,-1.0125 -1.68735,-3.0285 -3.31125,-3.342c-1.23915,-1.1115 -3.85695,-7.449 -4.50765,-9.2835c-0.9378,-2.6445 -0.71745,-3.8805 -2.45625,-6.3c-0.28575,-2.9745 -0.5457,-7.4445 -0.38685,-10.428c0.5313,-9.9765 3.28365,-21.6975 7.1352,-30.9039c1.11615,-2.95395 2.56365,-6.05955 3.9459,-8.90445c0.98595,-2.02935 2.12265,-3.93195 2.98335,-6.03645c2.6328,-3.8169 4.59405,-8.23845 7.64715,-12.2079c0.2709,-0.5736 2.05515,-3.00675 2.4576,-3.57555c2.75595,-3.89625 5.9244,-7.54155 8.814,-11.3211z" fill="url(#color-12)"/>
      <path d="M93.9489,124.221c1.19775,-0.582 3.51045,-4.4019 4.7121,-5.56095c0.19845,-0.1914 0.24135,0.0741 0.5367,-0.3201c0.88425,0.1506 1.8051,0.429 2.64495,0.5262c0.051,1.19655 -4.00695,4.52805 -3.39225,5.30445c-3.54015,5.1906 -7.2885,9.8679 -10.05555,15.6105c-2.28285,4.0104 -4.3812,8.12295 -6.28845,12.3249c-0.76575,2.226 -5.34315,13.6335 -5.0019,15.3945c-3.9795,15.816 -4.19505,33.3225 4.3932,47.748c0.66345,1.1145 2.1144,3.6135 3.11085,4.2645c-7.2654,-1.671 -16.76805,-6.69 -22.1259,-11.8785c0.28155,1.176 1.6203,1.332 1.8954,2.145c-0.7098,0.4665 -0.74805,1.0335 -0.87825,1.875c-1.63515,-1.035 -4.2324,-4.629 -5.79555,-6.039c-1.1232,-1.0125 -1.68735,-3.0285 -3.31125,-3.342c-1.23915,-1.1115 -3.85695,-7.449 -4.50765,-9.2835c-0.9378,-2.6445 -0.71745,-3.8805 -2.45625,-6.3c-0.28575,-2.9745 -0.5457,-7.4445 -0.38685,-10.428c0.5313,-9.9765 3.28365,-21.6975 7.1352,-30.9039c4.7469,1.95915 15.9666,8.5059 18.9363,13.3119c0.51885,0.8385 0.1893,1.725 -0.12255,2.5845l0.10995,0.291c-0.79155,2.94 -1.44225,5.919 -2.12955,8.8845c-0.79335,3.4245 -0.93225,6.936 -1.239,10.4235c0.1215,0.441 0.1875,1.008 0.2559,1.473c0.06315,-0.7155 0.0903,-1.281 0.51165,-1.875c0.5538,-9.798 4.848,-23.3565 8.94675,-32.2083c0.2751,-0.6036 0.5457,-1.15875 0.7554,-1.78935c0.46335,-0.7755 0.90195,-1.7334 1.32045,-2.5503c3.49725,-6.8238 7.58565,-13.7088 12.42615,-19.68255z" fill="url(#color-13)"/>
      <path d="M93.9489,124.221c1.19775,-0.582 3.51045,-4.4019 4.7121,-5.56095c0.19845,-0.1914 0.24135,0.0741 0.5367,-0.3201c0.88425,0.1506 1.8051,0.429 2.64495,0.5262c0.051,1.19655 -4.00695,4.52805 -3.39225,5.30445c-3.54015,5.1906 -7.2885,9.8679 -10.05555,15.6105c-2.28285,4.0104 -4.3812,8.12295 -6.28845,12.3249c-0.76575,2.226 -5.34315,13.6335 -5.0019,15.3945c-3.9795,15.816 -4.19505,33.3225 4.3932,47.748c0.66345,1.1145 2.1144,3.6135 3.11085,4.2645c-7.2654,-1.671 -16.76805,-6.69 -22.1259,-11.8785c-0.5373,-0.819 -3.2598,-3.231 -4.2156,-4.4745c-5.6817,-7.3875 -9.4836,-15.0315 -10.33965,-24.3975c5.4063,7.8105 11.66715,13.8495 20.32365,17.9685c0.792,0.3765 2.15925,0.8805 2.8512,1.3305l0.65265,0.429l0.19335,-0.111c-0.00195,-0.444 0.02985,-0.435 -0.1935,-0.8085c-1.2807,-6.7395 -1.2405,-10.5345 -1.2546,-17.1195c0.5538,-9.798 4.848,-23.3565 8.94675,-32.2083c0.2751,-0.6036 0.5457,-1.15875 0.7554,-1.78935c0.46335,-0.7755 0.90195,-1.7334 1.32045,-2.5503c3.49725,-6.8238 7.58565,-13.7088 12.42615,-19.68255z" fill="url(#color-14)"/>
      <path d="M93.9489,124.221c1.19775,-0.582 3.51045,-4.4019 4.7121,-5.56095c0.19845,-0.1914 0.24135,0.0741 0.5367,-0.3201c0.88425,0.1506 1.8051,0.429 2.64495,0.5262c0.051,1.19655 -4.00695,4.52805 -3.39225,5.30445c-3.54015,5.1906 -7.2885,9.8679 -10.05555,15.6105c-2.28285,4.0104 -4.3812,8.12295 -6.28845,12.3249l-0.25245,0.078c-1.5396,3 -3.20655,8.175 -4.10655,11.502c-0.8958,0.081 -2.4855,-0.183 -3.378,-0.3855c-0.2625,-0.729 0.45915,-2.556 0.70215,-3.3075c1.2591,-3.894 2.7972,-7.6965 4.4715,-11.42895c-0.0321,-0.10695 -0.0642,-0.2139 -0.09615,-0.32085c0.2751,-0.6036 0.5457,-1.15875 0.7554,-1.78935c0.46335,-0.7755 0.90195,-1.7334 1.32045,-2.5503c3.49725,-6.8238 7.58565,-13.7088 12.42615,-19.68255z" fill="#996823"/>
      <path d="M70.50015,180.4515c0.0141,6.585 -0.0261,10.38 1.2546,17.1195c-0.07935,0.1275 -0.01725,0.048 -0.24075,0.1875c-1.30695,-3.5055 -2.4156,-13.3305 -1.7814,-16.905c0.1215,0.441 0.1875,1.008 0.2559,1.473c0.06315,-0.7155 0.0903,-1.281 0.51165,-1.875z" fill="#996823"/>
      <path d="M61.1067,130.4172c2.6328,-3.8169 4.59405,-8.23845 7.64715,-12.2079c-0.1428,0.4665 -0.2142,0.6807 -0.28365,1.1751c0.82905,1.4976 5.37135,4.95885 6.8217,6.2085c2.9232,2.51865 5.9328,5.07495 8.7417,7.7367c0.23475,0.22245 0.5571,0.858 0.87315,1.25655c0.25275,-0.0726 1.21605,-1.6368 1.5822,-2.0925l0.0462,0.1152c-1.7043,2.86005 -6.04005,10.1565 -6.9732,13.0143c-1.07445,1.1211 -4.4286,10.28385 -5.2059,12.28935c-0.3132,0.8085 -0.8637,2.841 -1.2549,3.633l-0.10995,-0.291c0.31185,-0.8595 0.6414,-1.746 0.12255,-2.5845c-2.9697,-4.806 -14.1894,-11.35275 -18.9363,-13.3119c1.11615,-2.95395 2.56365,-6.05955 3.9459,-8.90445c0.98595,-2.02935 2.12265,-3.93195 2.98335,-6.03645z" fill="url(#color-15)"/>
      <path d="M73.10115,161.5455c0.3912,-0.792 0.9417,-2.8245 1.2549,-3.633c0.7773,-2.0055 4.13145,-11.16825 5.2059,-12.28935c0.09615,1.14525 -6.50355,14.25135 -5.80635,15.80235l0.2889,0.06c1.37565,-4.224 2.84715,-8.5875 4.83555,-12.5766c0.44625,-0.8952 0.5226,-1.52055 1.1238,-2.415l0.19845,-0.04005c-0.2097,0.6306 -0.4803,1.18575 -0.7554,1.78935c-4.09875,8.8518 -8.39295,22.4103 -8.94675,32.2083c-0.42135,0.594 -0.4485,1.1595 -0.51165,1.875c-0.0684,-0.465 -0.1344,-1.032 -0.2559,-1.473c0.30675,-3.4875 0.44565,-6.999 1.239,-10.4235c0.6873,-2.9655 1.338,-5.9445 2.12955,-8.8845z" fill="#c99945"/>
      <path d="M148.2273,55.07115c14.3547,-4.9542 27.7902,-7.911 43.0902,-6.38505c0.1935,1.5036 6.2025,10.11045 7.305,12.1827c1.002,1.8822 2.3895,4.4298 3.396,6.4269c0.5295,1.05045 1.506,2.1903 1.842,3.3012c0.801,0.1713 3.711,0.8421 4.326,0.89475c1.191,1.06995 5.8665,1.60605 6.9135,2.5446l0.009,0.1842l0.012,-0.00585c-1.4145,0.68955 -4.8345,-1.716 -6.024,-1.1298c0.5355,0.3507 3.765,1.0554 4.995,1.6725c-0.681,0.0363 -1.2045,-0.27435 -1.8495,-0.55125c-0.6645,0.8562 -1.866,2.87355 -2.2545,3.29985l0.0435,0.2478l0.684,0.18435c-0.1845,0.20265 -0.0675,0.1395 -0.369,0.15975c-14.277,-3.1437 -26.238,-3.0651 -40.509,0.28635l-0.6885,0.2655l-0.057,0.225c0.4365,0.52245 2.886,1.97535 3.744,2.604c5.3505,3.56835 9.2205,6.387 14.1645,10.47735c-0.873,0.3285 -1.7445,0.47115 -2.631,0.747c-5.2215,1.62495 -10.4475,3.67875 -15.2445,6.31545c-1.2225,0.67245 -2.565,1.38705 -3.6645,2.2008l0.0735,0.10185l0.1335,0.4095l-0.1845,0.08295c-1.407,0.64005 -1.0605,0.52005 -1.932,1.64085c-2.028,-1.3371 -4.0725,-2.6484 -6.135,-3.93345c-0.5925,-0.2184 -2.595,-1.43415 -3.303,-1.80495c-2.7615,-1.4457 -6.03285,-3.39525 -8.9331,-4.4193c-1.2222,-0.60855 -5.7417,-2.72985 -6.93585,-2.9361c-2.81085,1.2684 -6.9171,3.88365 -9.48135,5.62275c-8.3562,5.57115 -16.0428,12.0867 -22.9074,19.4175c-2.9121,3.12495 -4.78725,5.7435 -7.4049,8.76975c-0.6147,-0.7764 3.44325,-4.1079 3.39225,-5.30445c-0.83985,-0.0972 -1.7607,-0.3756 -2.64495,-0.5262c-0.29535,0.3942 -0.33825,0.1287 -0.5367,0.3201c-1.20165,1.15905 -3.51435,4.97895 -4.7121,5.56095c4.12275,-5.92485 10.61625,-12.4698 15.7863,-17.5854c1.4784,-1.46265 3.49005,-2.9817 5.04765,-4.4832c-0.3189,-0.2244 -0.0723,-0.0192 -0.3126,-0.30915c-3.297,-3.97905 -7.45605,-7.4058 -10.0242,-11.96655c-1.0023,-1.7799 -4.05555,-5.15925 -3.66105,-7.13775c1.26705,-1.12155 2.6181,-2.22495 3.91815,-3.3141c0.56115,-0.32445 3.03405,-2.2272 3.6771,-2.70435c3.0078,-2.07735 5.96175,-4.24845 9.04185,-6.2181c1.12905,-0.7221 2.88555,-1.9221 4.08315,-2.47215c0.51735,-0.4203 2.0736,-1.3002 2.70135,-1.66875c2.7069,-1.58415 5.46315,-3.08265 8.2644,-4.49325c2.1456,-0.9054 4.5297,-2.1459 6.6969,-3.1275c2.97645,-1.32765 5.99805,-2.5515 9.0594,-3.6696z" fill="#f9e599"/>
      <path d="M114.78285,102.1524c1.7325,-1.24335 3.4218,-2.9982 5.1624,-4.32585c13.9113,-10.6113 31.22775,-19.8741 48.25875,-24.1752c7.788,-1.89135 15.7725,-2.86065 23.7885,-2.8881c2.406,0.00705 6.231,-0.012 8.517,0.3903c2.658,0.4677 5.862,1.3644 8.5875,1.93125c0.5355,0.3507 3.765,1.0554 4.995,1.6725c-0.681,0.0363 -1.2045,-0.27435 -1.8495,-0.55125c-0.6645,0.8562 -1.866,2.87355 -2.2545,3.29985l0.0435,0.2478l0.684,0.18435c-0.1845,0.20265 -0.0675,0.1395 -0.369,0.15975c-14.277,-3.1437 -26.238,-3.0651 -40.509,0.28635l-0.6885,0.2655l-0.057,0.225c0.4365,0.52245 2.886,1.97535 3.744,2.604c5.3505,3.56835 9.2205,6.387 14.1645,10.47735c-0.873,0.3285 -1.7445,0.47115 -2.631,0.747c-5.2215,1.62495 -10.4475,3.67875 -15.2445,6.31545c-1.2225,0.67245 -2.565,1.38705 -3.6645,2.2008l0.0735,0.10185l0.1335,0.4095l-0.1845,0.08295c-1.407,0.64005 -1.0605,0.52005 -1.932,1.64085c-2.028,-1.3371 -4.0725,-2.6484 -6.135,-3.93345c-0.5925,-0.2184 -2.595,-1.43415 -3.303,-1.80495c-2.7615,-1.4457 -6.03285,-3.39525 -8.9331,-4.4193c-1.2222,-0.60855 -5.7417,-2.72985 -6.93585,-2.9361c-2.81085,1.2684 -6.9171,3.88365 -9.48135,5.62275c-8.3562,5.57115 -16.0428,12.0867 -22.9074,19.4175c-2.9121,3.12495 -4.78725,5.7435 -7.4049,8.76975c-0.6147,-0.7764 3.44325,-4.1079 3.39225,-5.30445c-0.83985,-0.0972 -1.7607,-0.3756 -2.64495,-0.5262c-0.29535,0.3942 -0.33825,0.1287 -0.5367,0.3201c-1.20165,1.15905 -3.51435,4.97895 -4.7121,5.56095c4.12275,-5.92485 10.61625,-12.4698 15.7863,-17.5854c1.4784,-1.46265 3.49005,-2.9817 5.04765,-4.4832z" fill="url(#color-16)"/>
      <path d="M167.031,83.41995c0.7485,-0.0933 5.109,-1.5369 5.805,-1.9413c5.3505,3.56835 9.2205,6.387 14.1645,10.47735c-0.873,0.3285 -1.7445,0.47115 -2.631,0.747c-5.2215,1.62495 -10.4475,3.67875 -15.2445,6.31545c-1.2225,0.67245 -2.565,1.38705 -3.6645,2.2008l0.0735,0.10185l0.1335,0.4095l-0.1845,0.08295c-1.407,0.64005 -1.0605,0.52005 -1.932,1.64085c-2.028,-1.3371 -4.0725,-2.6484 -6.135,-3.93345c-0.5925,-0.2184 -2.595,-1.43415 -3.303,-1.80495c-2.7615,-1.4457 -6.03285,-3.39525 -8.9331,-4.4193c-0.04065,-0.261 -0.02745,-0.3846 -0.0267,-0.6492c0.3927,-0.5664 1.03935,-0.8427 1.65945,-1.19475c0.5592,-0.04575 0.94095,-0.05205 1.4772,-0.2061c0.98115,0.4707 1.96515,0.93555 2.95215,1.39425c-0.2835,-0.33615 -0.312,-0.32385 -0.438,-0.7344c0.5235,-0.6822 1.2075,-0.8958 2.043,-1.11135c2.217,-0.5724 3.645,-2.27745 5.724,-3.26835c2.1975,-1.0482 7.257,-1.77225 8.46,-4.10685z" fill="url(#color-17)"/>
      <path d="M146.81265,91.45275c0.5592,-0.04575 0.94095,-0.05205 1.4772,-0.2061c0.98115,0.4707 1.96515,0.93555 2.95215,1.39425c0.948,0.49695 7.8045,4.2084 8.127,4.629c0.2205,0.5145 0.9585,0.8178 1.5345,1.1754l-0.171,0.1629c-0.7335,0.70635 -0.8415,0.88275 -1.299,1.78335c-0.771,-0.44355 -0.8595,-0.573 -1.749,-0.9693l-0.2685,0.0987c-0.5925,-0.2184 -2.595,-1.43415 -3.303,-1.80495c-2.7615,-1.4457 -6.03285,-3.39525 -8.9331,-4.4193c-0.04065,-0.261 -0.02745,-0.3846 -0.0267,-0.6492c0.3927,-0.5664 1.03935,-0.8427 1.65945,-1.19475z" fill="#b17e2f"/>
      <path d="M159.369,97.2699c2.148,1.197 4.047,2.74035 6.0915,3.94935l0.0735,0.10185l0.1335,0.4095l-0.1845,0.08295c-1.407,0.64005 -1.0605,0.52005 -1.932,1.64085c-2.028,-1.3371 -4.0725,-2.6484 -6.135,-3.93345l0.2685,-0.0987c0.8895,0.3963 0.978,0.52575 1.749,0.9693c0.4575,-0.9006 0.5655,-1.077 1.299,-1.78335l0.171,-0.1629c-0.576,-0.3576 -1.314,-0.6609 -1.5345,-1.1754z" fill="#c99945"/>
      <path d="M138.24405,90.3606c8.1393,-4.602 16.81395,-8.18505 25.82895,-10.66815c1.4865,-0.39705 4.2855,-1.1289 5.7645,-1.3083l-0.6885,0.2655l-0.057,0.225c0.4365,0.52245 2.886,1.97535 3.744,2.604c-0.696,0.4044 -5.0565,1.848 -5.805,1.9413c-1.203,2.3346 -6.2625,3.05865 -8.46,4.10685c-2.079,0.9909 -3.507,2.69595 -5.724,3.26835c-0.8355,0.21555 -1.5195,0.42915 -2.043,1.11135c0.126,0.41055 0.1545,0.39825 0.438,0.7344c-0.987,-0.4587 -1.971,-0.92355 -2.95215,-1.39425c-0.53625,0.15405 -0.918,0.16035 -1.4772,0.2061c-0.6201,0.35205 -1.26675,0.62835 -1.65945,1.19475c-0.00075,0.2646 -0.01395,0.3882 0.0267,0.6492c-1.2222,-0.60855 -5.7417,-2.72985 -6.93585,-2.9361z" fill="url(#color-18)"/>
      <path d="M146.81265,91.45275l0.27615,-0.5595c-0.30165,-0.333 -0.37455,-0.32565 -0.77175,-0.5517l0.1314,-0.11175l1.2969,0.55725c0.2658,-0.0636 0.2349,-0.03645 0.4269,-0.13305c6.09225,-3.06495 12.39525,-5.1222 18.85875,-7.23405c-1.203,2.3346 -6.2625,3.05865 -8.46,4.10685c-2.079,0.9909 -3.507,2.69595 -5.724,3.26835c-0.8355,0.21555 -1.5195,0.42915 -2.043,1.11135c0.126,0.41055 0.1545,0.39825 0.438,0.7344c-0.987,-0.4587 -1.971,-0.92355 -2.95215,-1.39425c-0.53625,0.15405 -0.918,0.16035 -1.4772,0.2061z" fill="#462605"/>
      <path d="M148.2273,55.07115c14.3547,-4.9542 27.7902,-7.911 43.0902,-6.38505c0.1935,1.5036 6.2025,10.11045 7.305,12.1827c1.002,1.8822 2.3895,4.4298 3.396,6.4269c0.5295,1.05045 1.506,2.1903 1.842,3.3012c-11.0865,-1.32615 -20.6415,-1.26735 -31.6905,0.91845c-3.1035,0.6141 -6.864,1.8666 -9.5925,2.36775c-0.6525,-0.3618 -0.813,0.2901 -1.194,-0.1599c-4.455,-5.2587 -8.2485,-10.8663 -11.7762,-16.7739c-0.34635,-0.5802 -0.8286,-1.5759 -1.38,-1.87815z" fill="url(#color-19)"/>
      <path d="M132.471,61.86825c2.1456,-0.9054 4.5297,-2.1459 6.6969,-3.1275c2.97645,-1.32765 5.99805,-2.5515 9.0594,-3.6696c0.5514,0.30225 1.03365,1.29795 1.38,1.87815c3.5277,5.9076 7.3212,11.5152 11.7762,16.7739c0.381,0.45 0.5415,-0.2019 1.194,0.1599c-0.6045,0.32205 -4.473,1.56405 -5.3655,1.8759c-2.3655,0.85365 -4.701,1.788 -7.0035,2.80155c-3.8373,1.6518 -7.5033,3.5541 -11.2464,5.40225c-0.79635,0.39315 -1.767,1.005 -2.59245,1.2372c0.2592,-0.42405 1.63785,-0.9507 2.1462,-1.1643c-0.58515,-0.31305 -1.1937,-0.669 -1.6467,-1.1703c-3.50235,-3.87645 -6.67335,-8.16795 -9.8745,-12.30165c-0.87105,-1.1247 -0.95055,-2.29185 -1.80675,-3.1797c-0.81675,-0.84705 -0.08205,-0.24645 -0.21285,-0.9606c-1.2108,0.2727 -1.9935,1.33635 -3.4698,1.6068c0.51735,-0.4203 2.0736,-1.3002 2.70135,-1.66875c2.7069,-1.58415 5.46315,-3.08265 8.2644,-4.49325z" fill="url(#color-20)"/>
      <path d="M134.08005,195.0375c2.64,1.6215 6.6918,3.927 9.18285,5.601c2.6844,1.1265 6.699,3.3945 9.6381,4.755c2.082,0.861 3.7815,1.4595 5.646,2.739c1.7475,-0.81 3.798,-2.073 5.526,-3.036c-0.6525,1.239 -6.6375,3.7725 -6.7275,4.1235c0.8685,1.53 2.091,1.524 2.634,2.493c1.7145,-1.2315 3.78,-2.0505 5.529,-3.123c3.6225,-2.223 7.4145,-4.617 10.77,-7.2255c2.9055,-0.1815 4.845,3.282 6.7155,5.037c0.9135,0.8565 2.1255,1.686 2.9565,2.5185c2.484,2.4885 4.8375,4.6665 7.9065,6.423c-0.0885,-0.051 0.3315,0.837 0.348,0.867c0.5085,-0.0405 0.7575,-0.2925 1.179,-0.594l0.357,0.138c-0.975,0.864 -1.9515,1.644 -2.9655,2.46c-1.0215,0.693 -3.321,2.328 -4.2255,3.105c-5.664,4.239 -11.418,8.238 -17.5995,11.694c-0.6705,0.3765 -3.177,1.776 -3.8325,1.9635c-0.7485,0.477 -1.4055,0.792 -2.199,1.185c-2.709,1.1805 -5.298,2.526 -8.0265,3.699c-6.89595,2.9505 -14.01135,5.358 -21.2817,7.2015c-8.89425,2.109 -19.8786,3.6045 -29.02095,2.367c-0.04605,-0.1665 -0.11535,-0.4335 -0.2145,-0.579c-2.2527,-3.123 -4.44615,-6.4965 -6.58485,-9.663c-1.3602,-2.0145 -5.59845,-11.127 -7.2672,-11.697c-1.96125,-0.426 -5.2158,-1.071 -7.0224,-1.794l0.17475,-0.1725c0.81855,0.2265 4.79055,1.398 5.3904,1.4325c0.1167,-0.39 0.09585,-0.1845 -0.0735,-0.639c-0.92865,-0.816 -2.98905,-0.8535 -4.42245,-1.3455l0.0231,-0.1695c6.2463,1.389 10.1586,2.3475 16.53495,2.436c2.27025,0.3855 5.83785,0.123 8.1717,-0.051c0.85665,-0.0645 2.3046,-0.306 3.0609,-0.2205c0.58875,-0.0765 1.176,-0.165 1.76145,-0.2655c-0.2529,-0.1485 -1.9065,0.1845 -2.84865,0.0045c-1.1853,-0.735 -0.6417,-2.328 -1.3539,-3.798l-0.2076,0.021l-0.0561,-0.141l0.20445,-0.0465c0.6135,0.2415 1.30665,-0.141 1.8423,-0.4635c0.50355,-0.1455 2.54745,-0.318 3.2055,-0.384c3.7527,-0.3825 7.2615,-1.2795 10.92495,-2.0355c0.4476,-0.2745 0.54975,-0.2265 0.7095,-0.6165c-1.3989,-0.888 -2.7276,-1.7205 -4.0722,-2.6925c-0.9366,-0.612 -1.9929,-1.263 -2.84025,-1.977c-1.2138,-0.36 -9.5934,-7.0335 -11.04015,-8.2575c0.60345,-0.51 1.6227,-0.642 2.38995,-0.8685c6.2199,-1.83 12.1353,-4.3515 17.742,-7.6035c0.29745,-0.1725 1.16385,-0.3705 1.57545,-0.528l-0.48465,-0.4515c0.33705,0.1335 0.51645,0.171 0.86505,0.258c0.7509,-0.1815 1.93875,-0.375 2.05365,-1.236c-0.30885,-0.315 -0.4116,-0.489 -0.65145,-0.8475z" fill="url(#color-21)"/>
      <path d="M92.5233,227.49c10.5066,1.4475 18.0084,1.7985 28.671,0.0015c0.3432,0.507 0.98625,0.903 1.53045,1.3125c1.8096,1.362 3.11175,3.0585 4.6974,4.5915c3.52785,3.4095 8.81505,7.791 8.1543,13.254c-0.02145,0.1815 -0.0009,0.192 0.03435,0.4125c-8.89425,2.109 -19.8786,3.6045 -29.02095,2.367c-0.04605,-0.1665 -0.11535,-0.4335 -0.2145,-0.579c-2.2527,-3.123 -4.44615,-6.4965 -6.58485,-9.663c-1.3602,-2.0145 -5.59845,-11.127 -7.2672,-11.697z" fill="url(#color-22)"/>
      <path d="M121.1943,227.4915c7.1946,-1.215 14.2557,-3.1185 21.0855,-5.6865c1.5375,-0.561 3.05655,-1.1715 4.5549,-1.83c0.8619,-0.3855 6.8463,-3.2955 7.4088,-3.354c-0.3885,0.3825 -4.6626,2.2875 -5.48505,2.6985c1.49205,1.878 2.71155,3.9 4.26105,5.7585c1.5315,1.839 3.444,3.483 5.358,5.0925c1.785,1.5 3.546,4.5 5.514,5.739c0.5355,0.3375 2.181,-0.978 3.2265,-0.933c-0.7485,0.477 -1.4055,0.792 -2.199,1.185c-2.709,1.1805 -5.298,2.526 -8.0265,3.699c-6.89595,2.9505 -14.01135,5.358 -21.2817,7.2015c-0.03525,-0.2205 -0.0558,-0.231 -0.03435,-0.4125c0.66075,-5.463 -4.62645,-9.8445 -8.1543,-13.254c-1.58565,-1.533 -2.8878,-3.2295 -4.6974,-4.5915c-0.5442,-0.4095 -1.18725,-0.8055 -1.53045,-1.3125z" fill="url(#color-23)"/>
      <path d="M134.08005,195.0375c2.64,1.6215 6.6918,3.927 9.18285,5.601c2.6844,1.1265 6.699,3.3945 9.6381,4.755c-0.465,0.363 -2.5725,1.809 -3.0864,2.019l0.0933,0.093c-5.70105,3.618 -16.5717,6.117 -23.0511,8.1885c-0.7929,0.2535 -1.81575,0.234 -2.38635,0.855c-0.9366,-0.612 -1.9929,-1.263 -2.84025,-1.977c-1.2138,-0.36 -9.5934,-7.0335 -11.04015,-8.2575c0.60345,-0.51 1.6227,-0.642 2.38995,-0.8685c6.2199,-1.83 12.1353,-4.3515 17.742,-7.6035c0.29745,-0.1725 1.16385,-0.3705 1.57545,-0.528l-0.48465,-0.4515c0.33705,0.1335 0.51645,0.171 0.86505,0.258c0.7509,-0.1815 1.93875,-0.375 2.05365,-1.236c-0.30885,-0.315 -0.4116,-0.489 -0.65145,-0.8475z" fill="url(#color-24)"/>
      <path d="M143.2629,200.6385c2.6844,1.1265 6.699,3.3945 9.6381,4.755c-0.465,0.363 -2.5725,1.809 -3.0864,2.019l0.0933,0.093c-5.70105,3.618 -16.5717,6.117 -23.0511,8.1885c-0.7929,0.2535 -1.81575,0.234 -2.38635,0.855c-0.9366,-0.612 -1.9929,-1.263 -2.84025,-1.977c0.468,-0.048 0.66525,0.1485 1.1226,0.3885c3.1974,-0.546 5.6982,-2.346 8.33175,-4.053c2.0529,-1.3305 4.404,-2.064 6.21075,-3.8775c0.8493,-0.852 3.5967,-2.5095 4.01445,-3.564c-0.204,-0.531 -0.3036,-0.4515 -0.8874,-0.849l0.0885,-0.1365l0.21855,-0.03c0.816,0.0345 2.82885,1.4175 3.6519,1.9185c0.5712,-0.627 1.25835,-1.0965 1.071,-1.9635c-0.54015,-0.6195 -1.46325,-1.098 -2.1951,-1.494z" fill="url(#color-25)"/>
      <path d="M143.2629,200.6385c2.6844,1.1265 6.699,3.3945 9.6381,4.755c-0.465,0.363 -2.5725,1.809 -3.0864,2.019c-2.4258,-1.3365 -6.9084,-3.0525 -9.0852,-4.962c0.816,0.0345 2.82885,1.4175 3.6519,1.9185c0.5712,-0.627 1.25835,-1.0965 1.071,-1.9635c-0.54015,-0.6195 -1.46325,-1.098 -2.1951,-1.494z" fill="#b17e2f"/>
      <path d="M134.08005,195.0375c2.64,1.6215 6.6918,3.927 9.18285,5.601l-0.0057,0.273c0.73185,0.396 1.65495,0.8745 2.1951,1.494c0.18735,0.867 -0.4998,1.3365 -1.071,1.9635c-0.82305,-0.501 -2.8359,-1.884 -3.6519,-1.9185l-0.21855,0.03c-0.52395,-0.5265 -7.16475,-4.479 -8.2134,-5.166l-0.48465,-0.4515c0.33705,0.1335 0.51645,0.171 0.86505,0.258c0.7509,-0.1815 1.93875,-0.375 2.05365,-1.236c-0.30885,-0.315 -0.4116,-0.489 -0.65145,-0.8475z" fill="#c99945"/>
      <path d="M158.547,208.1325c1.7475,-0.81 3.798,-2.073 5.526,-3.036c-0.6525,1.239 -6.6375,3.7725 -6.7275,4.1235c0.8685,1.53 2.091,1.524 2.634,2.493c-0.8115,0.459 -6.282,3.252 -6.3975,3.5685l0.402,0.0795c-10.78935,5.331 -22.2498,9.3915 -34.17735,11.226c-1.41,0.2175 -4.12815,0.675 -5.4459,0.3795c0.58875,-0.0765 1.176,-0.165 1.76145,-0.2655c-0.2529,-0.1485 -1.9065,0.1845 -2.84865,0.0045c-1.1853,-0.735 -0.6417,-2.328 -1.3539,-3.798l-0.2076,0.021l-0.0561,-0.141l0.20445,-0.0465c0.6135,0.2415 1.30665,-0.141 1.8423,-0.4635c0.50355,-0.1455 2.54745,-0.318 3.2055,-0.384c3.7527,-0.3825 7.2615,-1.2795 10.92495,-2.0355c0.4476,-0.2745 0.54975,-0.2265 0.7095,-0.6165c-1.3989,-0.888 -2.7276,-1.7205 -4.0722,-2.6925c0.5706,-0.621 1.59345,-0.6015 2.38635,-0.855c6.4794,-2.0715 17.35005,-4.5705 23.0511,-8.1885l-0.0933,-0.093c0.5139,-0.21 2.6214,-1.656 3.0864,-2.019c2.082,0.861 3.7815,1.4595 5.646,2.739z" fill="url(#color-26)"/>
      <path d="M152.901,205.3935c2.082,0.861 3.7815,1.4595 5.646,2.739c-0.8835,0.6045 -2.871,1.5255 -3.9015,2.037c-9.0438,4.7385 -16.97115,7.212 -26.81235,9.6885c0.4476,-0.2745 0.54975,-0.2265 0.7095,-0.6165c-1.3989,-0.888 -2.7276,-1.7205 -4.0722,-2.6925c0.5706,-0.621 1.59345,-0.6015 2.38635,-0.855c6.4794,-2.0715 17.35005,-4.5705 23.0511,-8.1885l-0.0933,-0.093c0.5139,-0.21 2.6214,-1.656 3.0864,-2.019z" fill="#3c1c02"/>
      <path d="M152.901,205.3935c2.082,0.861 3.7815,1.4595 5.646,2.739c-0.8835,0.6045 -2.871,1.5255 -3.9015,2.037c-0.561,-0.81 -3.6495,-2.118 -4.7376,-2.664l-0.0933,-0.093c0.5139,-0.21 2.6214,-1.656 3.0864,-2.019z" fill="#462605"/>
      <path d="M227.2155,181.5165c0.912,-0.5385 8.568,-13.2135 9.318,-14.616c-0.2115,1.2765 1.3395,5.4045 1.7865,7.0395c1.095,3.9945 2.649,15.684 1.8375,19.461c-0.9195,15.018 -9.369,30.3495 -21.8865,38.865c-2.718,1.848 -6.1095,3.8145 -9.1785,4.956c-1.4895,0.7215 -4.653,1.7895 -6.3435,2.07c-1.152,0.405 -4.4235,1.0485 -5.706,1.116c-2.1705,0.3645 -4.9125,0.5325 -7.11,0.513c-1.44,-0.012 -2.8785,-0.06 -4.314,-0.1455c-3.4515,-0.06 -11.601,-1.638 -14.9955,-2.6025c-2.109,-0.5895 -4.0215,-1.53 -5.7045,-2.0115c0.7935,-0.393 1.4505,-0.708 2.199,-1.185c0.6555,-0.1875 3.162,-1.587 3.8325,-1.9635c6.1815,-3.456 11.9355,-7.455 17.5995,-11.694c0.9045,-0.777 3.204,-2.412 4.2255,-3.105l0.234,0.33c2.64,0.4455 6.288,0.417 9,0.4275c0.849,0.0045 2.31,-0.141 3.0165,-0.1005c1.314,-0.3615 2.2545,-1.3365 3.138,-2.3445c4.0935,-4.6785 6.732,-10.47 8.505,-16.383c0.522,-1.7415 0.531,-4.3155 1.3275,-5.85l-0.0915,-0.138l-0.426,0.1485c2.649,-3.501 7.6545,-9.2415 9.7365,-12.7875z" fill="url(#color-27)"/>
      <path d="M227.2155,181.5165c0.912,-0.5385 8.568,-13.2135 9.318,-14.616c-0.2115,1.2765 1.3395,5.4045 1.7865,7.0395c1.095,3.9945 2.649,15.684 1.8375,19.461c-0.0135,-0.2745 -0.0495,-1.548 -0.1245,-1.71l-0.0735,0.693c-0.1605,-0.282 -0.2175,-0.411 -0.3405,-0.7125c-0.4575,4.8915 -3.054,10.5465 -6.0255,14.415l-0.1665,0.147c-1.896,1.7085 -3.0585,3.396 -5.328,5.2845c-5.1615,4.293 -15.9825,7.707 -22.686,7.38c-0.129,-0.0075 -0.258,-0.0165 -0.387,-0.027c1.314,-0.3615 2.2545,-1.3365 3.138,-2.3445c4.0935,-4.6785 6.732,-10.47 8.505,-16.383c0.522,-1.7415 0.531,-4.3155 1.3275,-5.85l-0.0915,-0.138l-0.426,0.1485c2.649,-3.501 7.6545,-9.2415 9.7365,-12.7875z" fill="#462605"/>
      <path d="M167.118,234.9765c0.6555,-0.1875 3.162,-1.587 3.8325,-1.9635c6.1815,-3.456 11.9355,-7.455 17.5995,-11.694c0.6855,1.155 1.2405,0.5325 2.3295,0.879l-0.4965,0.2115l-0.036,0.153c0.4995,0.2355 1.1115,0.279 1.668,0.3585c1.1475,0.156 7.188,0.342 7.3095,1.0425c-1.9935,1.6635 -4.4895,5.169 -6.105,7.2705c-1.6335,2.0895 -3.303,4.1505 -5.01,6.18c-0.396,0.471 -2.856,2.934 -2.8965,3.0255c0.0825,0.0945 0.216,0.2595 0.306,0.336c-3.4515,-0.06 -11.601,-1.638 -14.9955,-2.6025c-2.109,-0.5895 -4.0215,-1.53 -5.7045,-2.0115c0.7935,-0.393 1.4505,-0.708 2.199,-1.185z" fill="url(#color-28)"/>
      <path d="M167.118,234.9765c0.6555,-0.1875 3.162,-1.587 3.8325,-1.9635c6.1815,-3.456 11.9355,-7.455 17.5995,-11.694c0.6855,1.155 1.2405,0.5325 2.3295,0.879l-0.4965,0.2115l-0.036,0.153c0.4995,0.2355 1.1115,0.279 1.668,0.3585c-0.558,0.9465 -0.8385,0.8895 -1.593,1.494c-4.8195,3.8685 -9.684,7.4265 -15,10.6125c-1.1175,0.6705 -4.2795,2.235 -4.7985,3.1455c-2.109,-0.5895 -4.0215,-1.53 -5.7045,-2.0115c0.7935,-0.393 1.4505,-0.708 2.199,-1.185z" fill="url(#color-29)"/>
      <path d="M233.5935,206.0865c2.9715,-3.8685 5.568,-9.5235 6.0255,-14.415c0.123,0.3015 0.18,0.4305 0.3405,0.7125l0.0735,-0.693c0.075,0.162 0.111,1.4355 0.1245,1.71c-0.9195,15.018 -9.369,30.3495 -21.8865,38.865c-2.718,1.848 -6.1095,3.8145 -9.1785,4.956c-0.1875,-0.642 2.3895,-1.026 2.5785,-1.593c2.217,-6.615 7.593,-10.4565 10.5675,-16.9305c0.714,-0.372 0.834,-0.465 1.3005,-1.122c4.8285,-2.8905 7.251,-4.5765 10.4265,-9.207l-0.393,-0.486c0.0795,-0.1365 1.452,-1.9365 1.683,-2.268l-0.231,-0.507c-0.7095,0.198 -0.639,0.6885 -1.431,0.978z" fill="url(#color-30)"/>
      <path d="M235.2555,205.6155l0.198,-0.6165c0.429,-0.1875 0.216,-0.1695 0.6615,-0.0765c-0.273,0.627 -1.68,3.186 -2.1495,3.447l-0.393,-0.486c0.0795,-0.1365 1.452,-1.9365 1.683,-2.268z" fill="#c99945"/>
      <path d="M233.5935,206.0865c0.792,-0.2895 0.7215,-0.78 1.431,-0.978l0.231,0.507c-0.231,0.3315 -1.6035,2.1315 -1.683,2.268c-1.6185,2.028 -3.963,4.542 -6.054,6.087c-5.7045,4.215 -14.3235,7.5465 -21.3435,8.352c-0.495,0.0555 -0.99,0.1005 -1.485,0.135l-0.129,0.0315c-1.533,0.363 -3.882,0.4935 -5.2365,1.4745c-0.1215,-0.7005 -6.162,-0.8865 -7.3095,-1.0425c-0.5565,-0.0795 -1.1685,-0.123 -1.668,-0.3585l0.036,-0.153l0.4965,-0.2115c-1.089,-0.3465 -1.644,0.276 -2.3295,-0.879c0.9045,-0.777 3.204,-2.412 4.2255,-3.105l0.234,0.33c2.64,0.4455 6.288,0.417 9,0.4275c0.849,0.0045 2.31,-0.141 3.0165,-0.1005c0.129,0.0105 0.258,0.0195 0.387,0.027c6.7035,0.327 17.5245,-3.087 22.686,-7.38c2.2695,-1.8885 3.432,-3.576 5.328,-5.2845z" fill="url(#color-31)"/>
      <path d="M190.8795,222.198c3.267,0.4965 10.3575,0.261 13.8105,0.2595l-0.129,0.0315c-1.533,0.363 -3.882,0.4935 -5.2365,1.4745c-0.1215,-0.7005 -6.162,-0.8865 -7.3095,-1.0425c-0.5565,-0.0795 -1.1685,-0.123 -1.668,-0.3585l0.036,-0.153z" fill="#e6bb5b"/>
      <path d="M223.539,217.5765c-0.4665,0.657 -0.5865,0.75 -1.3005,1.122c-2.9745,6.474 -8.3505,10.3155 -10.5675,16.9305c-0.189,0.567 -2.766,0.951 -2.5785,1.593c-1.4895,0.7215 -4.653,1.7895 -6.3435,2.07c0.5085,-0.567 1.119,-0.48 1.7625,-0.792c0.579,-0.2655 0.8085,-1.2315 1.1895,-1.794c1.8855,-2.79 3.306,-5.838 5.19,-8.6145c0.5115,-0.753 2.709,-2.994 2.8905,-3.549l-0.45,-0.105l-0.0045,-0.1725c0.8925,-0.7395 1.9365,-1.1085 2.799,-1.662c0.4065,-0.261 1.002,-1.791 1.9035,-2.2425c1.896,-0.948 3.6975,-1.6755 5.5095,-2.784z" fill="url(#color-32)"/>
      <path d="M189.933,240.921c1.1385,-1.293 1.6515,-2.3565 3.51,-2.9025c1.677,-0.4935 2.157,0.528 2.448,1.905l0.0555,0.2745c0.738,-0.0225 0.528,-0.117 1.0965,0.21c-2.1705,0.3645 -4.9125,0.5325 -7.11,0.513z" fill="#f9e599"/>
      <path d="M203.4705,224.688c0.315,0.363 0.312,0.36 0.522,0.795c-0.111,2.184 -3.528,7.329 -5.5965,7.95c-0.0495,-0.072 -0.2385,-0.3645 -0.249,-0.4275c-0.5865,-3.648 2.3835,-6.849 5.3235,-8.3175z" fill="#f9e599"/>
      <path d="M98.6016,58.02525c3.29865,-1.0476 10.83525,-0.83985 14.4003,-0.57285c0.4833,0.0288 0.8892,0.05385 1.36875,0.1167c5.35875,0.4386 10.8807,1.92015 16.0206,3.4896c0.6486,0.198 1.45005,0.76725 2.07975,0.80955c-2.80125,1.4106 -5.5575,2.9091 -8.2644,4.49325c-0.62775,0.36855 -2.184,1.24845 -2.70135,1.66875c-1.1976,0.55005 -2.9541,1.75005 -4.08315,2.47215c-3.0801,1.96965 -6.03405,4.14075 -9.04185,6.2181l-0.6804,-0.41595c0.3411,-0.1269 0.2289,-0.06465 0.50325,-0.29655l-0.1044,-0.21555c-0.63285,-0.26445 -2.05185,-0.4506 -2.74815,-0.46815c-0.73005,-0.0474 -2.20965,-0.32685 -2.9865,-0.45105c-1.0416,-0.03345 -3.2016,-0.0231 -4.13025,-0.37575c-0.55815,0.36855 -1.02705,0.71085 -1.64085,0.98025l0.2391,-0.04635c-0.7266,0.20265 -1.12785,0.16305 -1.7616,0.31545c-3.7257,0.3135 -6.0735,0.5613 -9.7572,1.52925c0.8208,0.28155 2.28705,-0.5586 2.484,-0.0396c0.1962,0.51675 0.29835,0.9915 0.63225,1.6209l-0.0222,0.32475c-0.9123,0.50745 -2.8176,0.0831 -3.93465,0.92625c2.2215,-0.28485 4.93305,-0.9219 7.146,-0.80355c-1.4487,0.79965 -2.03235,2.1843 -3.03645,3.3441c-3.51375,4.05855 -5.78085,8.86125 -7.30245,13.98345c-0.6213,2.09145 -0.99,4.4223 -1.61775,6.58335c0.2376,0.15405 0.114,0.13245 0.36345,0.0969c-2.8896,3.77955 -6.05805,7.42485 -8.814,11.3211c-0.40245,0.5688 -2.1867,3.00195 -2.4576,3.57555c-3.0531,3.96945 -5.01435,8.391 -7.64715,12.2079c-0.6699,-1.3266 -1.11855,-2.148 -1.36485,-3.6489c-0.8808,-2.17905 -2.2119,-9.8241 -2.30235,-12.13605c-0.4167,-2.32455 -0.55485,-7.34445 -0.15525,-9.6582c0.06165,-1.3608 0.31725,-2.84535 0.5163,-4.2039c0.74325,-4.8993 1.8669,-9.0411 3.92565,-13.57635c4.107,-9.04665 10.254,-16.52535 18.58815,-21.98235c1.9374,-1.26855 4.989,-2.9982 7.19775,-3.8037c2.6949,-1.31625 8.1747,-2.85405 11.0895,-3.3825z" fill="url(#color-33)"/>
      <path d="M84.47265,80.1084c2.2215,-0.28485 4.93305,-0.9219 7.146,-0.80355c-1.4487,0.79965 -2.03235,2.1843 -3.03645,3.3441c-3.51375,4.05855 -5.78085,8.86125 -7.30245,13.98345c-0.6213,2.09145 -0.99,4.4223 -1.61775,6.58335c0.2376,0.15405 0.114,0.13245 0.36345,0.0969c-2.8896,3.77955 -6.05805,7.42485 -8.814,11.3211c-0.40245,0.5688 -2.1867,3.00195 -2.4576,3.57555c-3.0531,3.96945 -5.01435,8.391 -7.64715,12.2079c-0.6699,-1.3266 -1.11855,-2.148 -1.36485,-3.6489c-0.8808,-2.17905 -2.2119,-9.8241 -2.30235,-12.13605c-0.4167,-2.32455 -0.55485,-7.34445 -0.15525,-9.6582c0.06165,-1.3608 0.31725,-2.84535 0.5163,-4.2039c0.0264,0.40965 -0.01515,0.2748 0.16365,0.61275c0.48945,0.9252 -0.4092,1.52175 -0.08775,2.44515l0.13785,-0.0063c0.05625,-0.87495 0.3699,-2.2182 1.04835,-2.8149c0.72675,-1.8981 1.6173,-4.3005 2.74725,-5.9568c6.0291,-8.8377 12.5298,-12.6462 22.66275,-14.94165z" fill="#462605"/>
      <path d="M57.4395,114.63225c0.03,-0.53565 0.0555,-1.0587 0.10905,-1.593c0.0516,0.78165 0.09615,1.56375 0.13365,2.3463c0.0303,0.7386 0.474,1.9245 0.61095,2.85465c0.4479,0.039 2.4654,0.15945 2.60415,0.31815c1.6539,1.8912 1.01565,-0.26115 2.10285,-0.61995c-0.14625,0.5535 -3.2364,5.3052 -3.71295,6.0102c0.1815,0.73845 0.6354,2.15055 0.45465,2.8197c-0.8808,-2.17905 -2.2119,-9.8241 -2.30235,-12.13605z" fill="#6d4310"/>
      <path d="M57.28425,104.97405c0.06165,-1.3608 0.31725,-2.84535 0.5163,-4.2039c0.0264,0.40965 -0.01515,0.2748 0.16365,0.61275c0.48945,0.9252 -0.4092,1.52175 -0.08775,2.44515l0.13785,-0.0063c0.05625,-0.87495 0.3699,-2.2182 1.04835,-2.8149c-0.66015,1.93935 -0.82395,3.07725 -1.28955,5.01015c-0.0252,-0.21945 -0.01935,-0.2985 -0.1239,-0.49605c-0.1929,0.3315 -0.18075,0.31575 -0.25215,0.69495z" fill="#6d4310"/>
      <path d="M113.0019,57.4524c0.4833,0.0288 0.8892,0.05385 1.36875,0.1167c5.35875,0.4386 10.8807,1.92015 16.0206,3.4896c0.6486,0.198 1.45005,0.76725 2.07975,0.80955c-2.80125,1.4106 -5.5575,2.9091 -8.2644,4.49325c-0.62775,0.36855 -2.184,1.24845 -2.70135,1.66875c-1.1976,0.55005 -2.9541,1.75005 -4.08315,2.47215c-3.0801,1.96965 -6.03405,4.14075 -9.04185,6.2181l-0.6804,-0.41595c0.3411,-0.1269 0.2289,-0.06465 0.50325,-0.29655l-0.1044,-0.21555c-0.63285,-0.26445 -2.05185,-0.4506 -2.74815,-0.46815c-0.73005,-0.0474 -2.20965,-0.32685 -2.9865,-0.45105c-1.0416,-0.03345 -3.2016,-0.0231 -4.13025,-0.37575c1.8732,-1.97685 3.43275,-4.5582 5.28825,-6.58725c0.91965,-1.05375 1.8825,-2.08365 2.8227,-3.11715c2.13315,-2.34465 4.0818,-4.87335 6.51285,-6.92835c0.048,-0.13755 0.09615,-0.27495 0.1443,-0.41235z" fill="url(#color-34)"/>
      <path d="M113.0019,57.4524c0.4833,0.0288 0.8892,0.05385 1.36875,0.1167c0.01845,0.8232 -0.0315,0.9444 -0.30945,1.72605c-0.1971,1.1004 -6.40425,6.47415 -7.6482,7.48575c-0.98085,0.7974 -1.93485,2.15745 -2.72535,2.9703c-0.75405,1.17555 -2.06775,3.12705 -2.47035,4.3836l0.0738,0.2328l0.15465,0.04755c0.41565,0.13065 0.6063,0.1518 0.9183,0.4581c-1.0416,-0.03345 -3.2016,-0.0231 -4.13025,-0.37575c1.8732,-1.97685 3.43275,-4.5582 5.28825,-6.58725c0.91965,-1.05375 1.8825,-2.08365 2.8227,-3.11715c2.13315,-2.34465 4.0818,-4.87335 6.51285,-6.92835c0.048,-0.13755 0.09615,-0.27495 0.1443,-0.41235z" fill="#c99945"/>
      <path d="M114.0612,59.29515c-0.1971,1.1004 -6.40425,6.47415 -7.6482,7.48575c-0.98085,0.7974 -1.93485,2.15745 -2.72535,2.9703c0.58725,-1.6515 8.8713,-10.19865 10.37355,-10.45605z" fill="#b17e2f"/>
      <path d="M98.6016,58.02525c3.29865,-1.0476 10.83525,-0.83985 14.4003,-0.57285c-0.04815,0.1374 -0.0963,0.2748 -0.1443,0.41235c-2.43105,2.055 -4.3797,4.5837 -6.51285,6.92835c-0.9402,1.0335 -1.90305,2.0634 -2.8227,3.11715c-1.8555,2.02905 -3.41505,4.6104 -5.28825,6.58725c-0.55815,0.36855 -1.02705,0.71085 -1.64085,0.98025l0.2391,-0.04635c-0.7266,0.20265 -1.12785,0.16305 -1.7616,0.31545c-3.7257,0.3135 -6.0735,0.5613 -9.7572,1.52925c-1.01955,0.1206 -2.95635,0.7686 -4.01295,1.08885c-0.4587,-0.3813 -2.06205,0.7128 -2.8443,0.64335c0.32325,-0.47295 1.1571,-1.02015 1.68,-1.506c0.05205,-0.01335 6.99945,-5.6166 7.0857,-5.83125c1.89285,-4.71675 5.16045,-8.7741 8.22075,-12.645c1.10415,-0.20115 2.33895,-0.285 3.15915,-1.0008z" fill="#f9e599"/>
      <path d="M87.5121,61.40775c2.6949,-1.31625 8.1747,-2.85405 11.0895,-3.3825c-0.8202,0.7158 -2.055,0.79965 -3.15915,1.0008c-3.0603,3.8709 -6.3279,7.92825 -8.22075,12.645c-0.08625,0.21465 -7.03365,5.8179 -7.0857,5.83125l-0.2031,-0.26685c-0.5661,0.00135 -5.86455,3.06195 -6.804,3.5721c0.7461,-1.42575 3.35205,-1.71945 3.8724,-2.41905c2.18385,-2.93625 4.88505,-5.6682 7.05735,-8.63505c0.4071,-0.55605 0.4932,-1.8852 0.8985,-2.16915c0.6315,-0.44235 1.84845,-0.441 1.96695,-1.49025l-0.12735,-0.051c-0.40065,0.3642 -0.4164,0.408 -0.9174,0.6558l-0.11925,-0.1155l0.17625,-0.48645c2.13825,-1.02585 3.2313,-2.9115 3.5358,-5.22315c-0.582,0.29565 -1.3395,0.7956 -1.96005,0.534z" fill="url(#color-35)"/>
      <path d="M73.1289,80.80755c0.93945,-0.51015 6.2379,-3.57075 6.804,-3.5721l0.2031,0.26685c-0.5229,0.48585 -1.35675,1.03305 -1.68,1.506c0.78225,0.06945 2.3856,-1.02465 2.8443,-0.64335c-1.32045,0.61635 -2.75925,1.07715 -4.10325,1.6671c-3.96555,1.74105 -7.69905,3.8253 -10.6848,7.03935c-0.56775,0.61125 -2.07105,2.34645 -2.7939,2.96655c-0.141,-0.0156 -0.28185,-0.0312 -0.42285,-0.0468c0.0411,-0.86745 3.70125,-4.57515 4.50375,-5.31345c1.19325,-1.09785 3.8913,-3.16065 5.32965,-3.87015z" fill="#e6bb5b"/>
      <path d="M82.1064,152.106c1.90725,-4.20195 4.0056,-8.3145 6.28845,-12.3249c0.3285,0.96555 0.70425,1.63005 1.09095,2.5344c0.4656,0.80055 1.0794,2.1972 1.41915,3.0747c2.1174,4.6158 4.3242,8.1468 6.80835,12.4833c1.22895,1.8555 2.4831,3.693 3.76245,5.514c0.6159,0.867 1.5735,2.073 2.1147,2.931c2.56905,3.0555 4.6209,5.7855 7.38585,8.8245c6.9084,7.5 14.6613,14.1765 23.10375,19.8945c0.23985,0.3585 0.3426,0.5325 0.65145,0.8475c-0.1149,0.861 -1.30275,1.0545 -2.05365,1.236c-0.3486,-0.087 -0.528,-0.1245 -0.86505,-0.258l0.48465,0.4515c-0.4116,0.1575 -1.278,0.3555 -1.57545,0.528c-5.6067,3.252 -11.5221,5.7735 -17.742,7.6035c-0.76725,0.2265 -1.7865,0.3585 -2.38995,0.8685c-3.3138,-2.6865 -9.16365,-7.884 -11.9934,-11.106c-0.6015,-0.387 -3.1653,-3.156 -3.6732,-3.8145c-1.6383,-1.317 -7.10355,-8.334 -8.45025,-10.104c-0.57915,-0.72 -1.20975,-1.6095 -1.7715,-2.3595c-1.79895,-2.3475 -3.43155,-4.8495 -5.01675,-7.344c-0.8007,-1.4145 -1.67895,-2.739 -2.58045,-4.086c-0.34125,-1.761 4.23615,-13.1685 5.0019,-15.3945z" fill="#f9e599"/>
      <path d="M82.1064,152.106c1.90725,-4.20195 4.0056,-8.3145 6.28845,-12.3249c0.3285,0.96555 0.70425,1.63005 1.09095,2.5344c0.4656,0.80055 1.0794,2.1972 1.41915,3.0747c2.1174,4.6158 4.3242,8.1468 6.80835,12.4833l-0.1032,0.2985l1.8534,2.844c-0.3291,0.609 -0.72255,1.269 -0.94455,1.9155c-0.5478,-0.042 -1.6245,-2.1885 -2.0385,-2.7675l-0.10755,0.0615c-0.36675,-0.3105 -0.693,-0.7305 -1.01145,-1.1025c-2.1024,2.559 -4.734,9.6825 -6.10155,13.0725l-0.31635,-0.0315c-0.35355,0.324 -4.13145,6.339 -4.24185,6.7665c-1.79895,-2.3475 -3.43155,-4.8495 -5.01675,-7.344c-0.8007,-1.4145 -1.67895,-2.739 -2.58045,-4.086c-0.34125,-1.761 4.23615,-13.1685 5.0019,-15.3945z" fill="url(#color-36)"/>
      <path d="M82.1064,152.106c1.90725,-4.20195 4.0056,-8.3145 6.28845,-12.3249c0.3285,0.96555 0.70425,1.63005 1.09095,2.5344c-0.29805,0.6921 0.71325,1.7091 0.66315,2.5479c-0.3657,0.84735 -0.61245,1.18275 -1.12125,1.9287c-0.07935,-0.15525 -1.15575,-2.36295 -1.1061,-2.301c-0.14085,0.7176 0.67695,2.18445 1.0116,2.9016c-1.66125,4.5363 -3.94605,8.7903 -5.4849,13.3773c-0.6399,1.9065 -2.4696,9.1155 -3.3891,10.326c-0.12465,0.1635 -0.2466,0.3285 -0.37425,0.4905c-0.8007,-1.4145 -1.67895,-2.739 -2.58045,-4.086c-0.34125,-1.761 4.23615,-13.1685 5.0019,-15.3945z" fill="#462605"/>
      <path d="M89.25885,147.0945c0.4617,-0.86535 0.6381,-1.7484 1.6461,-1.7043c2.1174,4.6158 4.3242,8.1468 6.80835,12.4833l-0.1032,0.2985l1.8534,2.844c-0.3291,0.609 -0.72255,1.269 -0.94455,1.9155c-0.5478,-0.042 -1.6245,-2.1885 -2.0385,-2.7675l-0.10755,0.0615c-0.36675,-0.3105 -0.693,-0.7305 -1.01145,-1.1025c-0.21045,-0.555 -1.3722,-2.505 -1.71345,-3.1185c-1.65885,-2.985 -3.3201,-5.628 -4.38915,-8.91z" fill="#c99945"/>
      <path d="M101.97225,198.075l0.12405,-0.207c0.90675,-1.5225 1.5282,-3.1935 2.3505,-4.6065c0.91875,-1.2825 2.11155,-2.58 3.1509,-3.762c1.4535,-1.6545 2.85405,-4.071 4.51485,-5.4015c3.0135,-2.4165 0.13215,-2.4915 -0.24705,-3.5415l0.19545,-0.06c2.076,1.2585 3.4989,2.94 5.1783,4.593c1.5387,1.5045 3.1266,2.9565 4.7613,4.356c2.6289,2.2215 5.30685,4.305 8.1471,6.2415c0.51435,0.351 1.2075,0.792 1.66515,1.176l0.48465,0.4515c-0.4116,0.1575 -1.278,0.3555 -1.57545,0.528c-5.6067,3.252 -11.5221,5.7735 -17.742,7.6035c-0.76725,0.2265 -1.7865,0.3585 -2.38995,0.8685c-3.3138,-2.6865 -9.16365,-7.884 -11.9934,-11.106l0.27465,-0.0645c0.915,0.831 2.22645,2.226 3.10095,2.931z" fill="url(#color-37)"/>
      <path d="M95.36145,159.123c0.31845,0.372 0.6447,0.792 1.01145,1.1025c0.5127,1.1595 4.72725,7.3695 5.595,8.1l2.5512,3.444l-0.08805,0.063c-0.37995,-0.405 -0.76395,-0.8055 -1.152,-1.203c-0.28815,0.468 -0.8421,1.8795 -1.1541,2.5095c-0.76545,1.5405 -1.64505,3.0225 -2.6316,4.434c-0.97455,1.422 -7.06455,9.1995 -7.33755,10.02c0.52065,1.3755 2.5425,2.649 2.76765,3.801c-1.6383,-1.317 -7.10355,-8.334 -8.45025,-10.104c-0.57915,-0.72 -1.20975,-1.6095 -1.7715,-2.3595c0.1104,-0.4275 3.8883,-6.4425 4.24185,-6.7665l0.31635,0.0315c1.36755,-3.39 3.99915,-10.5135 6.10155,-13.0725z" fill="url(#color-38)"/>
      <path d="M84.7017,178.9305c0.1104,-0.4275 3.8883,-6.4425 4.24185,-6.7665l0.31635,0.0315c-0.8253,2.337 -1.62615,4.632 -2.20215,7.0425c-0.15225,0.6375 -0.2898,1.4955 -0.58455,2.052c-0.57915,-0.72 -1.20975,-1.6095 -1.7715,-2.3595z" fill="#996823"/>
      <path d="M99.4635,161.016l-1.8534,-2.844l0.1032,-0.2985c1.22895,1.8555 2.4831,3.693 3.76245,5.514c0.6159,0.867 1.5735,2.073 2.1147,2.931c-0.81495,-0.189 -2.17305,-2.433 -2.7687,-3.1905c-0.35145,0.2715 -0.51705,0.8955 -0.82365,1.383c-0.13845,1.5405 1.55745,2.3415 1.9698,3.8145c-0.86775,-0.7305 -5.0823,-6.9405 -5.595,-8.1l0.10755,-0.0615c0.414,0.579 1.4907,2.7255 2.0385,2.7675c0.222,-0.6465 0.61545,-1.3065 0.94455,-1.9155z" fill="#e6bb5b"/>
      <path d="M187.0005,91.956c0.621,0.5118 3.6495,2.9652 3.9705,3.4704c4.44,3.7284 8.0085,7.4565 11.9055,11.6652c1.6545,1.8843 3.2775,3.7968 4.8675,5.73675c-0.585,1.7031 -11.244,12.9006 -13.1475,14.72475l-0.8055,0.05235l0.48,0.6156c-0.5115,0.4236 -0.9945,1.23795 -1.4205,1.4052c-0.4545,-0.0507 -0.5565,-0.1266 -0.972,-0.30825c-8.076,-10.008 -17.628,-18.729 -28.3275,-25.8636c0.8715,-1.1208 0.525,-1.0008 1.932,-1.64085l0.1845,-0.08295l-0.1335,-0.4095l-0.0735,-0.10185c1.0995,-0.81375 2.442,-1.52835 3.6645,-2.2008c4.797,-2.6367 10.023,-4.6905 15.2445,-6.31545c0.8865,-0.27585 1.758,-0.4185 2.631,-0.747z" fill="url(#color-39)"/>
      <path d="M187.0005,91.956c0.621,0.5118 3.6495,2.9652 3.9705,3.4704c-0.906,0.0441 -1.395,-1.22595 -1.7385,-0.68055c-1.305,1.9341 -2.3835,4.6137 -3.801,6.465c-1.425,1.8612 -3.4215,4.44825 -4.9995,6.0813c-4.7505,4.91175 -1.4655,3.1662 0.519,6.74385c-0.4065,-0.207 -1.3185,-1.18635 -1.686,-1.5765c-4.122,-4.3692 -9.0675,-7.4886 -13.731,-11.1384l-0.0735,-0.10185c1.0995,-0.81375 2.442,-1.52835 3.6645,-2.2008c4.797,-2.6367 10.023,-4.6905 15.2445,-6.31545c0.8865,-0.27585 1.758,-0.4185 2.631,-0.747z" fill="url(#color-40)"/>
      <path d="M202.8765,107.0916c1.6545,1.8843 3.2775,3.7968 4.8675,5.73675c-0.585,1.7031 -11.244,12.9006 -13.1475,14.72475l-0.8055,0.05235c-0.711,-0.6726 -5.097,-5.7477 -5.142,-6.58425c0.1245,-0.00705 0.2475,-0.0141 0.372,-0.0213c0.8985,-1.09305 3.966,-4.18485 4.6485,-5.0592c1.563,-2.0046 2.49,-3.4191 4.17,-5.0964c1.671,-1.66605 3.1035,-2.6562 5.037,-3.7527z" fill="url(#color-41)"/>
      <path d="M47.4291,186.69c1.7388,2.4195 1.51845,3.6555 2.45625,6.3c0.6507,1.8345 3.2685,8.172 4.50765,9.2835c2.754,4.4175 5.7936,8.223 9.7449,11.6505c5.9085,5.0205 13.7445,9.978 21.363,11.772c1.8066,0.723 5.06115,1.368 7.0224,1.794c1.66875,0.57 5.907,9.6825 7.2672,11.697c2.1387,3.1665 4.33215,6.54 6.58485,9.663c0.09915,0.1455 0.16845,0.4125 0.2145,0.579c-12.25575,-1.113 -23.91015,-5.82 -33.5022,-13.5285c-15.11145,-12.2745 -23.67495,-30.021 -25.65855,-49.2105z" fill="url(#color-42)"/>
      <path d="M54.393,202.2735c1.6239,0.3135 2.18805,2.3295 3.31125,3.342c1.56315,1.41 4.1604,5.004 5.79555,6.039c0.1302,-0.8415 0.16845,-1.4085 0.87825,-1.875c-0.2751,-0.813 -1.61385,-0.969 -1.8954,-2.145c5.35785,5.1885 14.8605,10.2075 22.1259,11.8785c4.455,1.4805 10.02405,2.268 14.71635,2.733c1.65135,0.1635 4.2804,0.1215 5.7093,0.3375c2.39895,-0.2115 6.05475,-0.162 8.6685,-0.306c-0.53565,0.3225 -1.2288,0.705 -1.8423,0.4635l-0.20445,0.0465l0.0561,0.141l0.2076,-0.021c0.7122,1.47 0.1686,3.063 1.3539,3.798c0.94215,0.18 2.59575,-0.153 2.84865,-0.0045c-0.58545,0.1005 -1.1727,0.189 -1.76145,0.2655c-0.7563,-0.0855 -2.20425,0.156 -3.0609,0.2205c-2.33385,0.174 -5.90145,0.4365 -8.1717,0.051c-6.37635,-0.0885 -10.28865,-1.047 -16.53495,-2.436l-0.0231,0.1695c1.4334,0.492 3.4938,0.5295 4.42245,1.3455c0.16935,0.4545 0.1902,0.249 0.0735,0.639c-0.59985,-0.0345 -4.57185,-1.206 -5.3904,-1.4325l-0.17475,0.1725c-7.6185,-1.794 -15.4545,-6.7515 -21.363,-11.772c-3.9513,-3.4275 -6.9909,-7.233 -9.7449,-11.6505z" fill="#c99945"/>
      <path d="M64.1379,213.924c-0.0963,-0.636 -0.17865,-0.3915 0.0573,-0.834c0.47505,0.033 0.71025,0.3165 1.0908,0.63c4.5558,3.756 9.89775,6.996 15.41385,9.123c1.98255,0.765 3.9534,1.2555 5.89335,1.959l-0.0231,0.1695c1.4334,0.492 3.4938,0.5295 4.42245,1.3455c0.16935,0.4545 0.1902,0.249 0.0735,0.639c-0.59985,-0.0345 -4.57185,-1.206 -5.3904,-1.4325l-0.17475,0.1725c-7.6185,-1.794 -15.4545,-6.7515 -21.363,-11.772z" fill="#e6bb5b"/>
      <path d="M105.0342,222.5835c2.39895,-0.2115 6.05475,-0.162 8.6685,-0.306c-0.53565,0.3225 -1.2288,0.705 -1.8423,0.4635l-0.20445,0.0465l0.0561,0.141l0.2076,-0.021c0.7122,1.47 0.1686,3.063 1.3539,3.798c0.94215,0.18 2.59575,-0.153 2.84865,-0.0045c-0.58545,0.1005 -1.1727,0.189 -1.76145,0.2655c-0.7563,-0.0855 -2.20425,0.156 -3.0609,0.2205c-2.33385,0.174 -5.90145,0.4365 -8.1717,0.051c1.82325,-0.5295 4.37055,0.402 6.1101,-0.234c-0.1899,-0.501 -0.0789,-2.8095 -0.02505,-3.465c-0.07515,-0.093 -0.4347,-0.5205 -0.4896,-0.5415c-1.04535,-0.4215 -4.5363,-0.267 -5.6385,-0.2475c0.6732,-0.081 1.2762,-0.123 1.9491,-0.1665z" fill="#e6bb5b"/>
      <path d="M95.07045,75.74685c0.63375,-0.1524 1.035,-0.1128 1.7616,-0.31545l-0.2391,0.04635c0.6138,-0.2694 1.0827,-0.6117 1.64085,-0.98025c0.92865,0.35265 3.08865,0.3423 4.13025,0.37575c0.77685,0.1242 2.25645,0.40365 2.9865,0.45105c0.6963,0.01755 2.1153,0.2037 2.74815,0.46815l0.1044,0.21555c-0.27435,0.2319 -0.16215,0.16965 -0.50325,0.29655l0.6804,0.41595c-0.64305,0.47715 -3.11595,2.3799 -3.6771,2.70435c-1.1118,-0.64545 -11.1915,-0.3369 -13.0845,-0.12c-2.21295,-0.11835 -4.9245,0.5187 -7.146,0.80355c1.11705,-0.84315 3.02235,-0.4188 3.93465,-0.92625l0.0222,-0.32475c-0.3339,-0.6294 -0.43605,-1.10415 -0.63225,-1.6209c-0.19695,-0.519 -1.6632,0.32115 -2.484,0.0396c3.6837,-0.96795 6.0315,-1.21575 9.7572,-1.52925z" fill="#6d4310"/>
      <path d="M95.07045,75.74685c0.63375,-0.1524 1.035,-0.1128 1.7616,-0.31545l-0.2391,0.04635c0.6138,-0.2694 1.0827,-0.6117 1.64085,-0.98025c0.92865,0.35265 3.08865,0.3423 4.13025,0.37575c0.77685,0.1242 2.25645,0.40365 2.9865,0.45105l-0.1533,0.4779c-0.57795,0.24285 -1.45365,0.039 -2.2119,0.10665c-2.69835,-0.1332 -5.21985,-0.153 -7.9149,-0.162z" fill="#e6bb5b"/>
      <path d="M105.35055,75.3243c0.6963,0.01755 2.1153,0.2037 2.74815,0.46815l0.1044,0.21555c-0.27435,0.2319 -0.16215,0.16965 -0.50325,0.29655c-1.02435,-0.01215 -3.7467,-0.22425 -4.7145,-0.3957c0.75825,-0.06765 1.63395,0.1362 2.2119,-0.10665z" fill="#b17e2f"/>
    </g>

</svg>
