<svg id="svg" version="1.1" viewBox="0 0 300 300" width="300" height="300" xmlns="http://www.w3.org/2000/svg">

    <defs>
      <clipPath id="clip-1">
        <rect x="0" y="0" transform="scale(0.14648,0.14648)" width="2048" height="2048" fill="none"/>
      </clipPath>
      <linearGradient x1="170.62793" y1="97.7748" x2="202.72119" y2="116.93833" gradientUnits="userSpaceOnUse" id="color-1">
        <stop offset="0" stop-color="#c89a47"/>
        <stop offset="1" stop-color="#fce68c"/>
      </linearGradient>
      <linearGradient x1="209.76563" y1="130.03154" x2="198.48633" y2="120.01729" gradientUnits="userSpaceOnUse" id="color-2">
        <stop offset="0" stop-color="#a86f20"/>
        <stop offset="1" stop-color="#deb559"/>
      </linearGradient>
      <linearGradient x1="108.52339" y1="128.81704" x2="102.86631" y2="101.07979" gradientUnits="userSpaceOnUse" id="color-3">
        <stop offset="0" stop-color="#a67528"/>
        <stop offset="1" stop-color="#e6b357"/>
      </linearGradient>
      <linearGradient x1="117.86924" y1="179.24854" x2="114.71221" y2="182.5415" gradientUnits="userSpaceOnUse" id="color-4">
        <stop offset="0" stop-color="#e4b653"/>
        <stop offset="1" stop-color="#fff4a7"/>
      </linearGradient>
      <linearGradient x1="179.77148" y1="118.78433" x2="183.9126" y2="114.55078" gradientUnits="userSpaceOnUse" id="color-5">
        <stop offset="0" stop-color="#ebc365"/>
        <stop offset="1" stop-color="#ffffbe"/>
      </linearGradient>
      <linearGradient x1="148.64502" y1="208.35645" x2="137.22349" y2="194.65576" gradientUnits="userSpaceOnUse" id="color-6">
        <stop offset="0" stop-color="#a56f1c"/>
        <stop offset="1" stop-color="#dcb055"/>
      </linearGradient>
      <linearGradient x1="148.43994" y1="89.56567" x2="161.2998" y2="104.16914" gradientUnits="userSpaceOnUse" id="color-7">
        <stop offset="0" stop-color="#8d5711"/>
        <stop offset="1" stop-color="#e3b959"/>
      </linearGradient>
      <linearGradient x1="208.95117" y1="148.38135" x2="199.90576" y2="143.42563" gradientUnits="userSpaceOnUse" id="color-8">
        <stop offset="0" stop-color="#8a5715"/>
        <stop offset="1" stop-color="#c9943b"/>
      </linearGradient>
      <linearGradient x1="89.90522" y1="145.80747" x2="92.22188" y2="151.26123" gradientUnits="userSpaceOnUse" id="color-9">
        <stop offset="0" stop-color="#98671e"/>
        <stop offset="1" stop-color="#b78330"/>
      </linearGradient>
      <linearGradient x1="118.3645" y1="154.01074" x2="140.2106" y2="151.99072" gradientUnits="userSpaceOnUse" id="color-10">
        <stop offset="0" stop-color="#bc852e"/>
        <stop offset="1" stop-color="#f6d171"/>
      </linearGradient>
      <linearGradient x1="178.68311" y1="155.1416" x2="157.4458" y2="151.46191" gradientUnits="userSpaceOnUse" id="color-11">
        <stop offset="0" stop-color="#c48e35"/>
        <stop offset="1" stop-color="#fbd979"/>
      </linearGradient>
      <linearGradient x1="163.72705" y1="127.52812" x2="128.19404" y2="64.31353" gradientUnits="userSpaceOnUse" id="color-12">
        <stop offset="0" stop-color="#e4b249"/>
        <stop offset="1" stop-color="#f4e192"/>
      </linearGradient>
      <linearGradient x1="79.33301" y1="68.67891" x2="94.71182" y2="80.34727" gradientUnits="userSpaceOnUse" id="color-13">
        <stop offset="0" stop-color="#f0cb59"/>
        <stop offset="1" stop-color="#fef4bd"/>
      </linearGradient>
      <linearGradient x1="69.88594" y1="73.2312" x2="80.38975" y2="79.38999" gradientUnits="userSpaceOnUse" id="color-14">
        <stop offset="0" stop-color="#8b5918"/>
        <stop offset="1" stop-color="#e0b250"/>
      </linearGradient>
      <linearGradient x1="96.16406" y1="98.5437" x2="65.39194" y2="82.50425" gradientUnits="userSpaceOnUse" id="color-15">
        <stop offset="0" stop-color="#61380b"/>
        <stop offset="1" stop-color="#8b6020"/>
      </linearGradient>
      <linearGradient x1="53.40571" y1="188.72314" x2="73.78389" y2="150.24609" gradientUnits="userSpaceOnUse" id="color-16">
        <stop offset="0" stop-color="#593109"/>
        <stop offset="1" stop-color="#a6711e"/>
      </linearGradient>
      <linearGradient x1="189.51855" y1="52.86064" x2="158.73486" y2="69.25811" gradientUnits="userSpaceOnUse" id="color-17">
        <stop offset="0" stop-color="#a16f22"/>
        <stop offset="1" stop-color="#dbac4b"/>
      </linearGradient>
      <linearGradient x1="236.46533" y1="89.63496" x2="226.94824" y2="109.11211" gradientUnits="userSpaceOnUse" id="color-18">
        <stop offset="0" stop-color="#291201"/>
        <stop offset="1" stop-color="#623a0d"/>
      </linearGradient>
      <linearGradient x1="248.07129" y1="120.64043" x2="215.59863" y2="71.34023" gradientUnits="userSpaceOnUse" id="color-19">
        <stop offset="0" stop-color="#885518"/>
        <stop offset="1" stop-color="#b88634"/>
      </linearGradient>
      <linearGradient x1="239.45801" y1="94.45078" x2="241.01074" y2="93.08408" gradientUnits="userSpaceOnUse" id="color-20">
        <stop offset="0" stop-color="#aa742e"/>
        <stop offset="1" stop-color="#eaad43"/>
      </linearGradient>
      <linearGradient x1="62.50854" y1="148.06055" x2="81.99668" y2="123.29268" gradientUnits="userSpaceOnUse" id="color-21">
        <stop offset="0" stop-color="#9d6819"/>
        <stop offset="1" stop-color="#deb04d"/>
      </linearGradient>
      <linearGradient x1="160.6875" y1="82.51699" x2="170.58105" y2="97.62187" gradientUnits="userSpaceOnUse" id="color-22">
        <stop offset="0" stop-color="#412204"/>
        <stop offset="1" stop-color="#9c661b"/>
      </linearGradient>
      <linearGradient x1="116.97085" y1="70.84629" x2="108.17798" y2="63.50596" gradientUnits="userSpaceOnUse" id="color-23">
        <stop offset="0" stop-color="#74470e"/>
        <stop offset="1" stop-color="#a86f1b"/>
      </linearGradient>
      <linearGradient x1="125.09839" y1="72.25298" x2="112.31836" y2="64.36128" gradientUnits="userSpaceOnUse" id="color-24">
        <stop offset="0" stop-color="#5e360a"/>
        <stop offset="1" stop-color="#7c5010"/>
      </linearGradient>
      <linearGradient x1="130.62905" y1="103.96978" x2="146.08286" y2="76.05879" gradientUnits="userSpaceOnUse" id="color-25">
        <stop offset="0" stop-color="#e4b558"/>
        <stop offset="1" stop-color="#f6eba6"/>
      </linearGradient>
      <linearGradient x1="126.05259" y1="199.29053" x2="96.29575" y2="182.66016" gradientUnits="userSpaceOnUse" id="color-26">
        <stop offset="0" stop-color="#cea24a"/>
        <stop offset="1" stop-color="#ffeb92"/>
      </linearGradient>
      <linearGradient x1="88.22856" y1="170.27637" x2="100.86563" y2="178.53076" gradientUnits="userSpaceOnUse" id="color-27">
        <stop offset="0" stop-color="#b27d2a"/>
        <stop offset="1" stop-color="#e5c165"/>
      </linearGradient>
      <linearGradient x1="61.30708" y1="193.80908" x2="108.24009" y2="149.2251" gradientUnits="userSpaceOnUse" id="color-28">
        <stop offset="0" stop-color="#542b0a"/>
        <stop offset="1" stop-color="#ae7c28"/>
      </linearGradient>
      <linearGradient x1="82.16514" y1="161.56494" x2="93.41221" y2="167.26318" gradientUnits="userSpaceOnUse" id="color-29">
        <stop offset="0" stop-color="#5a340a"/>
        <stop offset="1" stop-color="#ab721c"/>
      </linearGradient>
      <linearGradient x1="208.72412" y1="192.07617" x2="236.35107" y2="210.68555" gradientUnits="userSpaceOnUse" id="color-30">
        <stop offset="0" stop-color="#3f1f00"/>
        <stop offset="1" stop-color="#5f3a12"/>
      </linearGradient>
      <linearGradient x1="208.29346" y1="234.12744" x2="196.4502" y2="225.65186" gradientUnits="userSpaceOnUse" id="color-31">
        <stop offset="0" stop-color="#f4d277"/>
        <stop offset="1" stop-color="#fbf6c0"/>
      </linearGradient>
      <linearGradient x1="179.39355" y1="226.60254" x2="190.55566" y2="234.91699" gradientUnits="userSpaceOnUse" id="color-32">
        <stop offset="0" stop-color="#7b4c0c"/>
        <stop offset="1" stop-color="#b17c23"/>
      </linearGradient>
      <linearGradient x1="170.04199" y1="225.9873" x2="186.47168" y2="233.16357" gradientUnits="userSpaceOnUse" id="color-33">
        <stop offset="0" stop-color="#633707"/>
        <stop offset="1" stop-color="#855911"/>
      </linearGradient>
      <linearGradient x1="223.229" y1="229.90869" x2="213.10986" y2="224.31152" gradientUnits="userSpaceOnUse" id="color-34">
        <stop offset="0" stop-color="#97621a"/>
        <stop offset="1" stop-color="#ddad4f"/>
      </linearGradient>
      <linearGradient x1="225.52734" y1="207.8042" x2="228.6709" y2="215.70264" gradientUnits="userSpaceOnUse" id="color-35">
        <stop offset="0" stop-color="#b58d38"/>
        <stop offset="1" stop-color="#f9c75f"/>
      </linearGradient>
      <linearGradient x1="244.66406" y1="122.67524" x2="222.0542" y2="152.9751" gradientUnits="userSpaceOnUse" id="color-36">
        <stop offset="0" stop-color="#794911"/>
        <stop offset="1" stop-color="#af7d28"/>
      </linearGradient>
      <linearGradient x1="215.16943" y1="136.2832" x2="204.27539" y2="130.64224" gradientUnits="userSpaceOnUse" id="color-37">
        <stop offset="0" stop-color="#59330d"/>
        <stop offset="1" stop-color="#9f6816"/>
      </linearGradient>
      <linearGradient x1="208.5835" y1="101.69692" x2="233.10352" y2="117.08804" gradientUnits="userSpaceOnUse" id="color-38">
        <stop offset="0" stop-color="#4f2401"/>
        <stop offset="1" stop-color="#7f5622"/>
      </linearGradient>
      <linearGradient x1="64.35396" y1="227.22217" x2="82.83853" y2="213.88623" gradientUnits="userSpaceOnUse" id="color-39">
        <stop offset="0" stop-color="#452508"/>
        <stop offset="1" stop-color="#70440c"/>
      </linearGradient>
      <linearGradient x1="60.49233" y1="207.40137" x2="69.87612" y2="191.23682" gradientUnits="userSpaceOnUse" id="color-40">
        <stop offset="0" stop-color="#2f1301"/>
        <stop offset="1" stop-color="#583408"/>
      </linearGradient>
      <linearGradient x1="47.93584" y1="200.45215" x2="79.92832" y2="199.38721" gradientUnits="userSpaceOnUse" id="color-41">
        <stop offset="0" stop-color="#825013"/>
        <stop offset="1" stop-color="#b58436"/>
      </linearGradient>
      <linearGradient x1="70.84175" y1="212.9502" x2="68.43677" y2="218.21484" gradientUnits="userSpaceOnUse" id="color-42">
        <stop offset="0" stop-color="#d69a3a"/>
        <stop offset="1" stop-color="#f1c347"/>
      </linearGradient>
      <linearGradient x1="234.71777" y1="160.07959" x2="194.85498" y2="191.67334" gradientUnits="userSpaceOnUse" id="color-43">
        <stop offset="0" stop-color="#b07b27"/>
        <stop offset="1" stop-color="#fae17e"/>
      </linearGradient>
      <linearGradient x1="114.80786" y1="246.19336" x2="138.21636" y2="225.06738" gradientUnits="userSpaceOnUse" id="color-44">
        <stop offset="0" stop-color="#a97422"/>
        <stop offset="1" stop-color="#dfb759"/>
      </linearGradient>
      <linearGradient x1="130.81714" y1="211.57617" x2="122.90039" y2="198.82617" gradientUnits="userSpaceOnUse" id="color-45">
        <stop offset="0" stop-color="#68400f"/>
        <stop offset="1" stop-color="#bb7e21"/>
      </linearGradient>
      <linearGradient x1="233.93115" y1="71.52905" x2="212.71582" y2="84.49175" gradientUnits="userSpaceOnUse" id="color-46">
        <stop offset="0" stop-color="#492808"/>
        <stop offset="1" stop-color="#724510"/>
      </linearGradient>
    </defs>
    <g clip-path="url(#clip-1)" fill="none" fill-rule="nonzero" stroke="none" stroke-width="1" stroke-linecap="butt" stroke-linejoin="miter" stroke-miterlimit="10" stroke-dasharray="" stroke-dashoffset="0" font-family="none" font-weight="none" font-size="none" text-anchor="none" style="mix-blend-mode: normal">
      <path d="M0,0h300v300h-300z" fill="#000000"/>
      <path d="M132.45615,61.91558c3.57378,-1.5501 6.88286,-3.29956 10.61133,-4.829c12.24111,-5.02061 27.86514,-9.1021 41.18643,-8.75479c1.95996,-0.03354 4.13232,0.10474 6.09229,0.30322c0.19922,0.0561 0.56689,0.10532 0.73389,0.20654c0.55957,0.3394 1.31836,1.89346 1.6377,2.46299c1.71094,3.05522 3.73096,5.87051 5.49463,8.8834c1.97314,3.3709 3.66211,6.92637 5.61328,10.29507c0.03076,0.05288 0.08643,0.08628 0.12891,0.12935c10.06934,1.91748 18.60645,5.44658 26.82422,11.72783c1.69336,1.29302 3.72949,2.98213 5.10059,4.56914c3.79541,3.96943 6.97705,8.48276 9.43945,13.39102c1.68018,3.72144 3.34863,8.85791 4.46045,12.81797c0.12451,1.2895 0.31787,3.03926 0.28857,4.30415c0.28564,2.15508 -0.00586,8.35151 -0.45557,10.51494c-1.11914,12.95801 -6.42041,25.87998 -12.34717,37.31016l-0.95947,1.98779c0.55078,1.32715 1.0708,3.36768 1.46338,4.79443c2.38623,8.65869 3.36768,18.51855 1.64502,27.375c-0.16113,0.82178 -0.56104,2.75537 -0.84521,3.44531c-0.88184,2.77002 -1.75342,5.51367 -2.93262,8.17676c-4.61719,10.58643 -12.74268,19.26123 -23.00537,24.56104c-2.5752,1.33008 -6.07617,2.80371 -8.9209,3.48047c-6.07617,1.61865 -10.64941,2.05957 -16.93066,1.75195c-4.06934,0.10547 -12.28711,-1.67578 -16.28613,-2.7334c-1.08838,-0.26953 -4.81934,-1.32129 -5.51953,-1.99365c-2.82129,1.25977 -5.68506,2.76416 -8.51074,3.93896c-10.30181,4.28027 -21.03428,7.6875 -32.1312,9.10107c-1.50601,0.19189 -4.14814,0.50391 -5.65313,0.50684c-3.15322,0.38232 -8.94463,0.16553 -12.05068,-0.26953c-2.50503,-0.14355 -5.21294,-0.66064 -7.67065,-1.2085c-10.78711,-2.33496 -20.76548,-7.47949 -28.92407,-14.91357c-12.59561,-11.55615 -21.91128,-30.57568 -22.60942,-47.69238c-0.13081,-1.30371 -0.22529,-2.41113 -0.27261,-3.71924c-1.68105,-9.76758 4.55229,-32.24854 9.00601,-40.96567c0.11704,-1.01499 4.08384,-8.35239 4.84189,-10.09512c-0.44253,-0.6252 -1.11299,-3.18618 -1.34971,-4.08149c-1.54644,-5.84897 -3.24653,-15.12935 -2.43076,-21.1585c0.56792,-4.9916 1.10801,-8.55937 2.63892,-13.35981c0.76919,-2.48877 2.3313,-6.34468 3.74824,-8.56494c1.04077,-2.30757 3.35933,-5.70688 5.0272,-7.73511c0.56616,-0.97632 2.53345,-2.98711 3.36035,-3.82061c5.8623,-5.90889 13.55874,-10.72427 21.66196,-12.77388c1.88657,-0.68247 4.49238,-1.23384 6.44063,-1.50952c1.99482,-0.30586 3.5811,-0.49277 5.59453,-0.52515c2.11509,-0.19702 4.72603,0.07925 6.86528,0.1812c0.63911,0.023 1.09834,0.06533 1.73364,0.14414c3.82456,0.22412 8.83535,1.50469 12.54185,2.46035c1.22681,0.34424 5.02178,1.1874 5.625,1.88276z" fill="#f5e091"/>
      <path d="M138.53174,90.17432c0.68027,-0.48164 2.83169,-1.52607 3.67998,-1.94824c0.11953,0.15996 0.23906,0.32007 0.35859,0.48003c0.86836,0.34351 4.72266,1.98501 5.354,2.1356l0.08203,0.10693c1.15723,0.75059 3.53174,1.78491 4.90869,2.54399c4.36963,2.40806 8.02148,4.65293 12.09082,7.49004l0.40723,0.24961c0.95215,-0.72539 3.81445,-2.30918 4.98193,-2.99282c3.74268,-1.45195 9.14648,-4.43745 13.04297,-5.29995c1.54102,-0.47241 2.12109,-0.61699 3.7207,-0.80127c1.29199,1.0519 9.1333,7.84658 9.76904,8.84707c1.14844,1.01133 3.79395,3.65156 4.72998,4.8791c0.35303,0.30615 1.29932,1.31089 1.55127,1.69731c2.49463,2.65884 5.51953,6.38115 7.69043,9.28799c-0.52148,3.98203 -6.18457,19.49736 -8.6792,22.28555c1.09717,1.83457 5.9458,9.55664 6.17432,11.20313c-0.38672,0.58154 -1.24951,2.26611 -1.61279,2.58838c0.30322,0.82471 2.08301,5.17383 2.50635,5.69678c-6.22412,11.3042 -14.75684,21.6123 -24.10986,30.43213c-1.59521,1.50293 -3.24902,2.93994 -4.9585,4.31104c-0.53174,0.43359 -4.10889,3.24756 -4.34033,3.57861c-4.85596,3.6123 -11.8623,8.5708 -17.24854,11.17383c-0.62402,-0.75732 -4.53516,-2.26465 -5.66016,-2.73633c-1.02832,0.68555 -2.07715,1.36963 -3.07471,2.09473c-0.49951,-0.21533 -1.12354,-0.5083 -1.61865,-0.6958c-0.47314,-0.32959 -3.12114,-1.65088 -3.70488,-1.90869c-1.13745,-0.83643 -3.47476,-2.10645 -4.79956,-2.88721c-2.68916,-1.56006 -5.31035,-3.23437 -7.8564,-5.01855c-1.25771,-0.91113 -2.5333,-1.79736 -3.82603,-2.65723c-0.77344,-1.06348 -5.26274,-3.94922 -6.68408,-5.45508c-1.4751,-0.68994 -6.43447,-6.09375 -8.25117,-7.27588c-2.06792,-1.34473 -4.34604,-5.42285 -6.29722,-7.14844c-0.02695,-0.11426 -3.59429,-4.4707 -4.12427,-5.17822c-0.77681,-1.03711 -2.73164,-4.13965 -3.52778,-4.86621c-0.74956,-0.39258 -3.08232,-4.22314 -3.71411,-5.17236c-0.78032,-1.30225 -1.41753,-2.46533 -2.12681,-3.80127c-0.75205,-0.73535 -3.54829,-6.6123 -4.18389,-7.9043c0.23086,-1.05908 0.82222,-1.81523 1.49883,-2.61357c-0.43462,-1.10845 -2.12285,-4.26167 -2.33188,-5.16123l0.63926,-1.45649c0.41162,-2.14658 2.05781,-3.43447 2.91006,-5.36704c0.08335,-0.18926 0.15791,-0.34482 0.25752,-0.52778c-0.03735,-0.05566 -1.71475,-1.05571 -2.11348,-1.34912c-0.69814,-0.07075 -0.5332,-0.07749 -1.22124,0.35522c0.91582,-1.65146 3.37295,-4.9103 4.50703,-6.41265c6.47695,-8.58135 13.81143,-16.45649 22.11431,-23.29731c1.37417,-1.13218 3.26411,-2.9606 4.72383,-3.8981c2.11216,-0.70796 1.00356,1.72456 2.34155,2.56772c0.496,-0.31421 0.80947,-0.59268 1.26138,-0.97178c0.57935,-0.23159 3.52603,-2.4561 4.28291,-2.94507c3.30278,-2.13369 6.90059,-4.60928 10.48052,-6.25679z" fill="#000000"/>
      <path d="M187.15869,92.13823c1.29199,1.0519 9.1333,7.84658 9.76904,8.84707c1.14844,1.01133 3.79395,3.65156 4.72998,4.8791c0.35303,0.30615 1.29932,1.31089 1.55127,1.69731c2.49463,2.65884 5.51953,6.38115 7.69043,9.28799c-0.52148,3.98203 -6.18457,19.49736 -8.6792,22.28555l-0.73389,-0.99668c0.31055,1.16953 0.04541,1.30078 0.29297,2.37803l0.01318,-0.68262c0.04688,0.62285 0.2666,1.95029 -0.68115,1.99292c-0.24023,-0.37324 -0.34131,-0.78853 -0.79834,-0.77974c-0.34131,-0.38452 -1.29639,-1.90078 -1.64209,-2.42402c-0.98437,-1.52241 -2.01123,-3.01582 -3.08203,-4.47832c0.2915,0.0356 0.45264,0.03853 0.74561,0.04775c2.41406,-1.57002 0.19922,-1.85977 -0.44824,-3.86367c-0.25488,-0.40913 -0.5376,-0.73345 -0.84082,-1.10596c-0.98291,-0.51152 -6.69727,-8.01328 -7.76221,-9.248c0.0249,-0.82676 0.53467,-1.70479 -0.14355,-2.21118c-0.65479,-0.12539 -0.77783,-0.04453 -1.41357,0.17373c-2.36279,-1.0585 -5.99414,-5.20576 -8.10059,-7.02056c-2.61914,-2.25513 -5.25146,-4.61001 -8.11523,-6.5792l-0.41602,-0.5748c-0.58887,-0.22559 -3.0498,-2.05269 -3.68115,-2.53066c0.95215,-0.72539 3.81445,-2.30918 4.98193,-2.99282c3.74268,-1.45195 9.14648,-4.43745 13.04297,-5.29995c1.54102,-0.47241 2.12109,-0.61699 3.7207,-0.80127z" fill="url(#color-1)"/>
      <path d="M203.20898,107.56172c2.49463,2.65884 5.51953,6.38115 7.69043,9.28799c-0.52148,3.98203 -6.18457,19.49736 -8.6792,22.28555l-0.73389,-0.99668c0.31055,1.16953 0.04541,1.30078 0.29297,2.37803l0.01318,-0.68262c0.04688,0.62285 0.2666,1.95029 -0.68115,1.99292c-0.24023,-0.37324 -0.34131,-0.78853 -0.79834,-0.77974c-0.34131,-0.38452 -1.29639,-1.90078 -1.64209,-2.42402c-0.98437,-1.52241 -2.01123,-3.01582 -3.08203,-4.47832c0.2915,0.0356 0.45264,0.03853 0.74561,0.04775c2.41406,-1.57002 0.19922,-1.85977 -0.44824,-3.86367c-0.25488,-0.40913 -0.5376,-0.73345 -0.84082,-1.10596c-1.1499,-1.81494 -3.40137,-3.96416 -4.32861,-5.54546l0.10107,-0.07515c-0.15674,-0.10723 2.1416,2.45786 2.36426,2.67979c3.36182,-2.74644 4.59814,-4.57983 7.30664,-7.7354c2.50049,-2.91123 3.58008,-3.4084 5.55762,-7.14375c-0.73682,-1.06245 -2.68506,-2.75977 -2.8374,-3.84126z" fill="url(#color-2)"/>
      <path d="M195.88623,130.32891c0.80566,0.78018 5.14746,6.80171 5.6001,7.80967c0.31055,1.16953 0.04541,1.30078 0.29297,2.37803l0.01318,-0.68262c0.04688,0.62285 0.2666,1.95029 -0.68115,1.99292c-0.24023,-0.37324 -0.34131,-0.78853 -0.79834,-0.77974c-0.34131,-0.38452 -1.29639,-1.90078 -1.64209,-2.42402c-0.98437,-1.52241 -2.01123,-3.01582 -3.08203,-4.47832c0.2915,0.0356 0.45264,0.03853 0.74561,0.04775c2.41406,-1.57002 0.19922,-1.85977 -0.44824,-3.86367z" fill="#d5a950"/>
      <path d="M170.39502,98.23945c3.74268,-1.45195 9.14648,-4.43745 13.04297,-5.29995c-1.51611,1.02026 -4.78418,2.01445 -6.62402,2.74468c-3.85254,1.52944 -6.17285,3.80391 -8.84912,6.81621l-0.05713,0.27612c0.52734,0.32944 0.87158,0.5272 1.33887,0.92988l-0.15234,0.05654c-0.58887,-0.22559 -3.0498,-2.05269 -3.68115,-2.53066c0.95215,-0.72539 3.81445,-2.30918 4.98193,-2.99282z" fill="#b38133"/>
      <path d="M196.92773,100.9853c1.14844,1.01133 3.79395,3.65156 4.72998,4.8791l-0.20947,0.10415c-0.39697,-0.22031 -0.59619,-0.46157 -0.91406,-0.78149c-4.32568,1.34575 -4.86328,4.26899 -6.6958,4.91924l-0.15088,-0.14604c0.18896,-0.67456 4.26563,-6.21724 4.8999,-6.97397c-0.6665,-0.61567 -1.12354,-1.07446 -1.73437,-1.74463z" fill="#f5e091"/>
      <path d="M120.16538,97.78022c2.11216,-0.70796 1.00356,1.72456 2.34155,2.56772c-2.204,1.82886 -4.52446,3.53833 -6.70034,5.4063c-6.71968,5.752 -12.77505,12.2373 -18.05361,19.33506c-1.89551,2.58691 -3.72173,5.22393 -5.47661,7.9084c-1.00986,1.57866 -2.27109,3.82544 -3.28901,5.2793c0.41162,-2.14658 2.05781,-3.43447 2.91006,-5.36704c0.08335,-0.18926 0.15791,-0.34482 0.25752,-0.52778c-0.03735,-0.05566 -1.71475,-1.05571 -2.11348,-1.34912c-0.69814,-0.07075 -0.5332,-0.07749 -1.22124,0.35522c0.91582,-1.65146 3.37295,-4.9103 4.50703,-6.41265c6.47695,-8.58135 13.81143,-16.45649 22.11431,-23.29731c1.37417,-1.13218 3.26411,-2.9606 4.72383,-3.8981z" fill="url(#color-3)"/>
      <path d="M99.20596,164.38623c0.22002,-0.58154 0.66167,-1.02832 0.77021,-1.52197c0.31011,-1.40771 -0.95859,-2.43457 -1.69512,-3.58154l0.24727,-0.09375l0.13257,0.14795c0.61597,0.70166 2.23418,3.27832 2.90962,4.22168c1.95396,2.67773 3.98745,5.29688 6.09771,7.85303c6.31406,7.43408 13.44609,14.13281 21.26104,19.96875c2.2645,1.69775 4.56079,3.08789 6.71309,4.66992c-0.04556,0.07471 -0.08013,0.1582 -0.13652,0.22559c-0.34482,0.41162 -1.17642,1.28906 -1.69629,1.43408c-0.97793,0.27246 -10.49385,-7.83545 -12.27554,-8.79053c-0.04219,-0.02197 -0.08496,-0.04395 -0.12759,-0.06445c-1.4751,-0.68994 -6.43447,-6.09375 -8.25117,-7.27588c-2.06792,-1.34473 -4.34604,-5.42285 -6.29722,-7.14844c-0.02695,-0.11426 -3.59429,-4.4707 -4.12427,-5.17822c-0.77681,-1.03711 -2.73164,-4.13965 -3.52778,-4.86621z" fill="url(#color-4)"/>
      <path d="M165.00586,100.98267l0.40723,0.24961c0.63135,0.47798 3.09229,2.30508 3.68115,2.53066l0.41602,0.5748c2.86377,1.96919 5.49609,4.32407 8.11523,6.5792c2.10645,1.81479 5.73779,5.96206 8.10059,7.02056c0.63574,-0.21826 0.75879,-0.29912 1.41357,-0.17373c0.67822,0.5064 0.16846,1.38442 0.14355,2.21118c1.06494,1.23472 6.7793,8.73647 7.76221,9.248c0.30322,0.37251 0.58594,0.69683 0.84082,1.10596c0.64746,2.00391 2.8623,2.29365 0.44824,3.86367c-0.29297,-0.00923 -0.4541,-0.01216 -0.74561,-0.04775c-6.12598,-8.60815 -14.36426,-16.96289 -22.48535,-23.69224c-2.72461,-2.25806 -5.51514,-4.10186 -8.28955,-6.20933c-0.63574,-0.36577 -1.47656,-0.95742 -2.10791,-1.37666c0.43945,-0.25005 1.8252,-1.47949 2.2998,-1.88394z" fill="url(#color-5)"/>
      <path d="M165.00586,100.98267l0.40723,0.24961c0.63135,0.47798 3.09229,2.30508 3.68115,2.53066l0.41602,0.5748c-1.86914,-0.78765 -2.40234,-1.97007 -4.0708,-2.49082c-0.40723,-0.127 -1.19971,0.55811 -1.63623,0.85562c-0.19775,0.84463 0.47314,0.23496 1.01074,1.54072c-0.63574,-0.36577 -1.47656,-0.95742 -2.10791,-1.37666c0.43945,-0.25005 1.8252,-1.47949 2.2998,-1.88394z" fill="#e6c26d"/>
      <path d="M121.4064,188.85498c0.04263,0.02051 0.0854,0.04248 0.12759,0.06445c1.78169,0.95508 11.29761,9.06299 12.27554,8.79053c0.51987,-0.14502 1.35146,-1.02246 1.69629,-1.43408c0.0564,-0.06738 0.09097,-0.15088 0.13652,-0.22559c5.69092,3.40723 11.15112,6.78223 17.32837,9.33252c-1.02832,0.68555 -2.07715,1.36963 -3.07471,2.09473c-0.49951,-0.21533 -1.12354,-0.5083 -1.61865,-0.6958c-0.47314,-0.32959 -3.12114,-1.65088 -3.70488,-1.90869c-1.13745,-0.83643 -3.47476,-2.10645 -4.79956,-2.88721c-2.68916,-1.56006 -5.31035,-3.23437 -7.8564,-5.01855c-1.25771,-0.91113 -2.5333,-1.79736 -3.82603,-2.65723c-0.77344,-1.06348 -5.26274,-3.94922 -6.68408,-5.45508z" fill="url(#color-6)"/>
      <path d="M148.00635,90.94863c1.15723,0.75059 3.53174,1.78491 4.90869,2.54399c4.36963,2.40806 8.02148,4.65293 12.09082,7.49004c-0.47461,0.40444 -1.86035,1.63389 -2.2998,1.88394c-5.81543,-3.84741 -11.93555,-7.21201 -18.29912,-10.06011c0.42261,-0.47856 2.90068,-1.71812 3.59941,-1.85786z" fill="url(#color-7)"/>
      <path d="M201.48633,138.13857l0.73389,0.99668c1.09717,1.83457 5.9458,9.55664 6.17432,11.20313c-0.38672,0.58154 -1.24951,2.26611 -1.61279,2.58838c-1.11182,-2.4624 -2.35547,-4.86328 -3.7251,-7.19282c-0.81885,-1.39761 -2.05078,-3.31187 -2.74365,-4.68677c0.45703,-0.00879 0.55811,0.40649 0.79834,0.77974c0.94775,-0.04263 0.72803,-1.37007 0.68115,-1.99292l-0.01318,0.68262c-0.24756,-1.07725 0.01758,-1.2085 -0.29297,-2.37803z" fill="url(#color-8)"/>
      <path d="M91.57134,151.71973c0.63545,-0.28564 0.90835,-0.46436 1.50234,-0.84521c0.51738,0.22852 1.55186,3.06006 2.5166,3.55957c0.8748,1.35205 2.20063,3.37354 2.93804,4.75488l-0.24727,0.09375c0.73652,1.14697 2.00522,2.17383 1.69512,3.58154c-0.10854,0.49365 -0.5502,0.94043 -0.77021,1.52197c-0.74956,-0.39258 -3.08232,-4.22314 -3.71411,-5.17236c-0.78032,-1.30225 -1.41753,-2.46533 -2.12681,-3.80127c0.02314,-0.10693 0.04644,-0.2124 0.06958,-0.31934c-0.57041,-0.97412 -1.37227,-2.43604 -1.86328,-3.37354z" fill="#d5a950"/>
      <path d="M138.53174,90.17432c0.68027,-0.48164 2.83169,-1.52607 3.67998,-1.94824c0.11953,0.15996 0.23906,0.32007 0.35859,0.48003c0.86836,0.34351 4.72266,1.98501 5.354,2.1356l0.08203,0.10693c-0.69873,0.13975 -3.17681,1.3793 -3.59941,1.85786c-0.96855,-0.35024 -5.36001,-2.11157 -5.8752,-2.63218z" fill="#683f0d"/>
      <path d="M90.67998,144.89473c0.94351,2.17412 1.7606,3.83379 2.92617,5.90654c0.48633,0.86426 1.62202,2.81396 1.98413,3.63281c-0.96475,-0.49951 -1.99922,-3.33105 -2.5166,-3.55957c-0.59399,0.38086 -0.86689,0.55957 -1.50234,0.84521c0.49102,0.9375 1.29287,2.39941 1.86328,3.37354c-0.02314,0.10693 -0.04644,0.2124 -0.06958,0.31934c-0.75205,-0.73535 -3.54829,-6.6123 -4.18389,-7.9043c0.23086,-1.05908 0.82222,-1.81523 1.49883,-2.61357z" fill="url(#color-9)"/>
      <path d="M142.25479,163.1792c-1.1105,2.12256 -6.24507,3.73975 -8.53535,3.87305c-3.92446,0.22998 -7.43013,-0.61084 -10.45854,-3.18604c-2.9499,-2.54443 -4.78521,-6.14209 -5.11201,-10.02393c-0.30527,-3.854 0.96475,-7.66699 3.52002,-10.56826c2.46152,-2.79316 5.92632,-4.50132 9.64072,-4.75298c2.92236,-0.18882 6.91304,0.39097 9.18501,2.37979c2.42681,1.27251 4.13716,3.71206 6.04688,5.46211c-1.80806,1.82651 -3.43535,3.31479 -5.34727,5.02866c-0.93545,-1.47803 -1.74097,-2.62354 -2.92822,-3.92432c-0.70093,-0.58301 -1.25903,-1.02847 -2.04082,-1.49399c-3.28579,-1.95659 -7.75591,-0.84873 -10.0812,2.1063c-2.6332,3.34717 -1.57617,8.6543 1.85786,11.07275c1.77319,1.24805 3.98774,1.69629 6.10635,1.23633c2.27358,-0.47754 3.35566,-1.56006 5.03203,-3.04834c-0.27114,0.89063 -0.63662,1.09277 -1.41738,1.63623c0.38862,1.18359 1.48535,4.8208 2.30815,5.52246c0.77344,-0.01465 1.23765,-1.50293 2.22378,-1.31982z" fill="url(#color-10)"/>
      <path d="M138.26602,147.46729c-0.22295,-0.82617 -0.29663,-0.57715 -0.73975,-1.079c-1.23618,-1.40083 2.00464,-4.06641 1.69248,-5.78628l0.14063,-0.04028c0.46113,0.27129 0.57187,0.38511 1.13525,0.33911c2.42681,1.27251 4.13716,3.71206 6.04688,5.46211c-1.80806,1.82651 -3.43535,3.31479 -5.34727,5.02866c-0.93545,-1.47803 -1.74097,-2.62354 -2.92822,-3.92432z" fill="#f5e091"/>
      <path d="M158.3291,139.95264c2.80811,-1.68721 6.95068,-1.88818 10.0708,-1.10786c3.6665,0.88784 6.82031,3.21387 8.75098,6.45352c1.96143,3.29253 2.61475,7.48784 1.66992,11.20562c-0.89209,3.6167 -3.19336,6.72656 -6.38965,8.63818c-3.43359,1.9834 -7.51318,2.52686 -11.34668,1.51172c-1.88086,-0.49072 -4.02393,-1.55273 -5.36133,-2.99121c-0.81445,-0.44971 -3.93457,-3.75879 -4.70361,-4.5542c1.65381,-1.64502 3.01465,-3.21973 4.76514,-4.82666c1.1001,1.70801 2.17383,2.74512 3.61523,4.14551c1.2876,0.92871 2.50195,1.61572 4.08398,1.93945c2.04785,0.42041 4.1792,-0.00293 5.91211,-1.17334c1.78564,-1.19971 2.8125,-2.80957 3.21973,-4.86475c1.31689,-6.6416 -5.80957,-11.34155 -11.57666,-8.40864c-0.81152,0.41309 -1.37988,0.85298 -2.09619,1.39204c0.32373,-0.83013 0.78223,-1.06904 1.48242,-1.65249c-0.35742,-1.35659 -1.40771,-4.77539 -0.60645,-6.06753c-0.6167,0.28506 -0.81152,0.31846 -1.48975,0.36064z" fill="url(#color-11)"/>
      <path d="M155.78467,154.28174c1.1001,1.70801 2.17383,2.74512 3.61523,4.14551c-0.25049,0.50684 -0.49658,0.73096 -0.78076,1.26709c-0.63281,1.19238 -1.30371,3.12305 -2.01855,4.20117c-0.60059,0.04248 -0.32812,-0.06152 -0.87744,-0.23291c-0.81445,-0.44971 -3.93457,-3.75879 -4.70361,-4.5542c1.65381,-1.64502 3.01465,-3.21973 4.76514,-4.82666z" fill="#f5e091"/>
      <path d="M158.3291,139.95264c0.67822,-0.04219 0.87305,-0.07559 1.48975,-0.36064c-0.80127,1.29214 0.24902,4.71094 0.60645,6.06753c-0.7002,0.58345 -1.15869,0.82236 -1.48242,1.65249l-11.78174,11.21924c-1.33887,1.2583 -3.57144,3.60352 -4.90635,4.64795c-0.98613,-0.18311 -1.45034,1.30518 -2.22378,1.31982c-0.8228,-0.70166 -1.91953,-4.33887 -2.30815,-5.52246c0.78076,-0.54346 1.14624,-0.74561 1.41738,-1.63623c0.58052,-0.98291 7.22505,-7.07812 8.45303,-8.22217c2.44043,-2.27344 8.04932,-8.18687 10.73584,-9.16553z" fill="#f5e091"/>
      <path d="M146.77148,128.07275c1.49561,-0.17373 3.01025,-0.13037 4.49414,0.12876c2.11084,0.3668 8.89014,2.72534 8.36133,5.3877c-0.31055,0.54902 -0.68994,0.70078 -1.24365,1.03887c-3.29297,-2.19653 -2.99121,-3.16128 -7.51025,-4.0207c-5.35942,-0.64233 -7.86357,0.77549 -11.85205,3.99932c-0.67544,-0.49307 -1.00928,-0.8332 -1.59404,-1.4105c2.12388,-3.00527 5.83125,-4.52549 9.34453,-5.12344z" fill="#f5e091"/>
      <path d="M147.31055,132.90571c2.79053,-0.31187 5.4624,0.38481 7.80029,1.93696c0.78809,0.52236 1.24951,1.03843 1.12354,2.00405c-0.28418,0.58726 -0.71924,0.81475 -1.25684,1.2085c-1.70801,-1.4291 -2.40234,-2.00742 -4.52783,-2.70718c-3.25635,-0.56118 -5.67158,0.51299 -8.08359,2.59277c-0.73828,-0.57144 -1.01982,-0.88638 -1.63799,-1.55698c1.89258,-1.9938 3.91084,-3.02271 6.58242,-3.47812z" fill="#f5e091"/>
      <path d="M148.17334,137.58882c1.50293,-0.02695 4.56592,0.38848 4.82959,2.37173c0.07764,0.58301 -0.65039,1.16133 -1.05615,1.54175c-0.90381,-0.66548 -1.62598,-1.27676 -2.70264,-1.61265c-1.69336,-0.02183 -2.35254,0.63999 -3.69404,1.63022c-0.29414,-0.29077 -0.92153,-0.8688 -1.02144,-1.25581c-0.46963,-1.82095 2.51235,-2.47061 3.64468,-2.67524z" fill="#f5e091"/>
      <path d="M132.45615,61.91558c3.57378,-1.5501 6.88286,-3.29956 10.61133,-4.829c12.24111,-5.02061 27.86514,-9.1021 41.18643,-8.75479c1.95996,-0.03354 4.13232,0.10474 6.09229,0.30322c0.19922,0.0561 0.56689,0.10532 0.73389,0.20654c0.55957,0.3394 1.31836,1.89346 1.6377,2.46299c1.71094,3.05522 3.73096,5.87051 5.49463,8.8834c1.97314,3.3709 3.66211,6.92637 5.61328,10.29507c0.03076,0.05288 0.08643,0.08628 0.12891,0.12935c10.06934,1.91748 18.60645,5.44658 26.82422,11.72783c1.69336,1.29302 3.72949,2.98213 5.10059,4.56914c3.79541,3.96943 6.97705,8.48276 9.43945,13.39102c1.68018,3.72144 3.34863,8.85791 4.46045,12.81797c0.12451,1.2895 0.31787,3.03926 0.28857,4.30415c0.28564,2.15508 -0.00586,8.35151 -0.45557,10.51494c-0.0542,-0.42729 -0.0542,-0.98057 -0.06738,-1.42354l-0.15527,-0.05786l-0.61816,0.48721c-0.70898,-0.74648 -1.90137,-2.60127 -2.49756,-3.04409c-3.90674,-2.89438 -9.05713,-2.95928 -11.99854,-7.24409c-0.96826,-1.41064 -4.1792,-3.4979 -5.85645,-3.54302c-0.19336,-0.00527 -0.55664,-1.03096 -0.6665,-1.27017c-0.11572,-0.68394 -0.18896,-1.94897 -0.25342,-2.68125c0.06299,-1.62964 -0.98291,-7.23267 -1.59961,-8.69707l-0.25195,0.14414c-0.28711,-0.47871 -0.27979,-1.08018 -0.18164,-1.61191c-0.45996,-1.27412 -1.29492,-2.68506 -1.78418,-3.96108c-0.65039,-1.6957 -3.97998,-9.88242 -6.08936,-9.30264c1.771,3.79351 3.00732,6.82515 3.99609,10.94019c2.3584,9.81064 1.80029,24.55796 -1.03564,34.17759l-0.26074,-0.04878c-0.54932,-0.53408 -2.28076,-3.40122 -2.82422,-4.26489c-1.27441,-2.44658 -4.82373,-7.30972 -6.56836,-9.68643c-2.1709,-2.90684 -5.1958,-6.62915 -7.69043,-9.28799c-0.25195,-0.38643 -1.19824,-1.39116 -1.55127,-1.69731c-0.93604,-1.22754 -3.58154,-3.86777 -4.72998,-4.8791c-0.63574,-1.00049 -8.47705,-7.79517 -9.76904,-8.84707c-1.59961,0.18428 -2.17969,0.32886 -3.7207,0.80127c-3.89648,0.8625 -9.30029,3.848 -13.04297,5.29995c-1.16748,0.68364 -4.02979,2.26743 -4.98193,2.99282l-0.40723,-0.24961c-4.06934,-2.83711 -7.72119,-5.08198 -12.09082,-7.49004c-1.37695,-0.75908 -3.75146,-1.79341 -4.90869,-2.54399l-0.08203,-0.10693c-0.63135,-0.15059 -4.48564,-1.79209 -5.354,-2.1356c-0.11953,-0.15996 -0.23906,-0.32007 -0.35859,-0.48003c-0.84829,0.42217 -2.99971,1.4666 -3.67998,1.94824c-3.57993,1.64751 -7.17773,4.1231 -10.48052,6.25679c-0.75688,0.48896 -3.70356,2.71348 -4.28291,2.94507c-0.4519,0.3791 -0.76538,0.65757 -1.26138,0.97178c-1.33799,-0.84316 -0.22939,-3.27568 -2.34155,-2.56772c-1.45972,0.9375 -3.34966,2.76592 -4.72383,3.8981c-8.30288,6.84082 -15.63735,14.71597 -22.11431,23.29731c-1.13408,1.50234 -3.59121,4.76118 -4.50703,6.41265c-1.08501,1.33198 -2.68872,4.0582 -3.56309,5.55996c-4.43042,7.59653 -8.03291,15.646 -10.74565,24.01172c-1.47026,6.03223 -3.93765,13.3916 -4.04692,19.72559c0.04849,4.63477 -0.09536,9.01025 0.76816,13.59229c0.14253,0.75732 0.60659,3.52148 0.41748,4.13086l-0.18911,-0.23437c-0.92959,-0.1875 -2.6811,-1.06934 -3.60806,-1.51318c-6.00776,-2.87402 -12.25796,-7.63623 -16.22695,-13.00195c-1.02451,-1.38574 -2.09927,-2.83008 -3.06768,-4.26416c-0.36885,-0.54492 -0.38745,-1.21436 -0.78442,-1.49707l-0.19292,0.20947l-0.31201,0.12451c-0.19512,1.01514 -0.03765,2.47119 -0.11792,3.60498c-1.68105,-9.76758 4.55229,-32.24854 9.00601,-40.96567c0.11704,-1.01499 4.08384,-8.35239 4.84189,-10.09512c-0.44253,-0.6252 -1.11299,-3.18618 -1.34971,-4.08149c-1.54644,-5.84897 -3.24653,-15.12935 -2.43076,-21.1585c0.56792,-4.9916 1.10801,-8.55937 2.63892,-13.35981c0.76919,-2.48877 2.3313,-6.34468 3.74824,-8.56494c1.04077,-2.30757 3.35933,-5.70688 5.0272,-7.73511c0.56616,-0.97632 2.53345,-2.98711 3.36035,-3.82061c5.8623,-5.90889 13.55874,-10.72427 21.66196,-12.77388c1.88657,-0.68247 4.49238,-1.23384 6.44063,-1.50952c1.99482,-0.30586 3.5811,-0.49277 5.59453,-0.52515c2.11509,-0.19702 4.72603,0.07925 6.86528,0.1812c0.63911,0.023 1.09834,0.06533 1.73364,0.14414c3.82456,0.22412 8.83535,1.50469 12.54185,2.46035c1.22681,0.34424 5.02178,1.1874 5.625,1.88276z" fill="url(#color-12)"/>
      <path d="M105.69038,57.24712c2.11509,-0.19702 4.72603,0.07925 6.86528,0.1812c-0.18237,1.02187 -7.72324,8.50107 -8.88545,9.9769c-1.58672,2.01489 -3.83291,5.23989 -5.50752,7.11987c0.66357,0.31465 3.0271,0.33545 3.85269,0.30615c0.82148,0.1396 1.673,0.29736 2.49331,0.42231c0.43286,0.05552 0.87378,0.10635 1.30371,0.17637c0.86118,0.11221 1.67681,0.17183 2.49126,0.46274l0.12451,0.18721c-0.34482,0.27949 -0.34204,0.24683 -0.78809,0.32549l0.7377,0.27656c-1.21553,0.91538 -2.46445,1.83589 -3.66372,2.76826c-7.26577,5.9291 -14.10513,12.3624 -20.46738,19.25215c-0.45337,0.49116 -2.46812,2.64492 -2.68755,3.09287c-0.48003,0.45776 -0.83335,0.79585 -1.2624,1.29946c-7.93638,9.69902 -13.11255,16.52344 -19.29771,27.68145c-0.44253,-0.6252 -1.11299,-3.18618 -1.34971,-4.08149c-1.54644,-5.84897 -3.24653,-15.12935 -2.43076,-21.1585c0.56792,-4.9916 1.10801,-8.55937 2.63892,-13.35981c0.76919,-2.48877 2.3313,-6.34468 3.74824,-8.56494c1.04077,-2.30757 3.35933,-5.70688 5.0272,-7.73511c0.56616,-0.97632 2.53345,-2.98711 3.36035,-3.82061c5.8623,-5.90889 13.55874,-10.72427 21.66196,-12.77388c1.88657,-0.68247 4.49238,-1.23384 6.44063,-1.50952c1.99482,-0.30586 3.5811,-0.49277 5.59453,-0.52515z" fill="#472705"/>
      <path d="M105.69038,57.24712c2.11509,-0.19702 4.72603,0.07925 6.86528,0.1812c-0.18237,1.02187 -7.72324,8.50107 -8.88545,9.9769c-1.58672,2.01489 -3.83291,5.23989 -5.50752,7.11987c-0.63252,0.72451 -1.33037,0.84082 -2.30625,0.8811c-2.6313,0.10884 -5.72183,0.1396 -8.16445,1.25186c-9.98203,2.2708 -19.11812,6.24785 -25.0585,15.02505l-0.31846,-0.41074c-0.46729,0.52559 -0.64321,0.94805 -1.03345,1.46455c-0.67192,0.29004 -0.28257,0.56016 -1.00459,0.62095c-0.29648,-0.42349 -0.31113,-0.68027 -0.41953,-1.18154c0.76919,-2.48877 2.3313,-6.34468 3.74824,-8.56494c1.04077,-2.30757 3.35933,-5.70688 5.0272,-7.73511c0.56616,-0.97632 2.53345,-2.98711 3.36035,-3.82061c5.8623,-5.90889 13.55874,-10.72427 21.66196,-12.77388c1.88657,-0.68247 4.49238,-1.23384 6.44063,-1.50952c1.99482,-0.30586 3.5811,-0.49277 5.59453,-0.52515z" fill="url(#color-13)"/>
      <path d="M68.63291,75.87627c0.56616,-0.97632 2.53345,-2.98711 3.36035,-3.82061c5.8623,-5.90889 13.55874,-10.72427 21.66196,-12.77388c-0.88022,1.05513 -1.70068,0.32754 -1.95015,1.24512c-0.54478,2.00317 -3.19058,4.11079 -4.42075,5.73691c-3.06416,4.05059 -5.67935,8.40469 -9.34204,11.90933c-0.26265,0.24492 -3.36357,1.78154 -3.98086,2.14585c-5.22905,3.08628 -8.1939,5.95459 -11.64639,10.95337c-0.46729,0.52559 -0.64321,0.94805 -1.03345,1.46455c-0.67192,0.29004 -0.28257,0.56016 -1.00459,0.62095c-0.29648,-0.42349 -0.31113,-0.68027 -0.41953,-1.18154c0.76919,-2.48877 2.3313,-6.34468 3.74824,-8.56494c1.04077,-2.30757 3.35933,-5.70688 5.0272,-7.73511z" fill="url(#color-14)"/>
      <path d="M63.60571,83.61138c1.04077,-2.30757 3.35933,-5.70688 5.0272,-7.73511c-0.88345,2.63276 -2.07935,6.75249 -5.0272,7.73511z" fill="#a37125"/>
      <path d="M100.09585,57.77227c1.99482,-0.30586 3.5811,-0.49277 5.59453,-0.52515l1.03418,0.10562c-1.58789,3.2729 -3.17358,3.83862 -5.55908,6.34907c-0.76919,0.80933 -1.41592,2.91255 -2.09224,3.73433c-1.02993,1.25156 -6.82837,8.3083 -8.36924,6.71938c-0.24639,-1.4877 3.5584,-5.84312 4.37446,-7.33887c1.5145,-2.77588 4.77173,-4.10054 5.77749,-7.21919c0.19351,-0.60015 0.42627,-1.02144 0.22734,-1.65557l-0.81006,0.08672c-0.17256,-0.20889 -0.13477,-0.11221 -0.17739,-0.25635z" fill="#f8eaac"/>
      <path d="M91.30005,79.26606c1.9248,-0.31392 12.25708,-0.60439 13.41401,0.18413c-7.26577,5.9291 -14.10513,12.3624 -20.46738,19.25215c-0.45337,0.49116 -2.46812,2.64492 -2.68755,3.09287c-0.48003,0.45776 -0.83335,0.79585 -1.2624,1.29946l-0.19805,-0.20537c-0.56133,-3.49644 3.18794,-12.18735 4.92817,-15.57612c0.16816,-0.11792 0.10356,-0.05142 0.23145,-0.24229c1.06919,-1.59185 2.22246,-3.12568 3.45498,-4.59478c0.78677,-0.94263 2.0417,-2.18789 2.58677,-3.21006z" fill="#000000"/>
      <path d="M87.69199,76.65806c2.44263,-1.11226 5.53315,-1.14302 8.16445,-1.25186c0.97588,-0.04028 1.67373,-0.15659 2.30625,-0.8811c0.66357,0.31465 3.0271,0.33545 3.85269,0.30615c0.82148,0.1396 1.673,0.29736 2.49331,0.42231c0.43286,0.05552 0.87378,0.10635 1.30371,0.17637c0.86118,0.11221 1.67681,0.17183 2.49126,0.46274l0.12451,0.18721c-0.34482,0.27949 -0.34204,0.24683 -0.78809,0.32549l0.7377,0.27656c-1.21553,0.91538 -2.46445,1.83589 -3.66372,2.76826c-1.15693,-0.78853 -11.48921,-0.49805 -13.41401,-0.18413c-7.40464,0.57437 -17.2897,2.99238 -22.74946,8.26274c-2.96279,1.33711 -8.25806,9.36973 -9.14341,12.55547c-0.19292,0.6939 -2.02002,6.46216 -1.96626,6.42217c-0.18618,-0.47256 -0.17754,-0.46143 -0.22236,-0.97031c0.56792,-4.9916 1.10801,-8.55937 2.63892,-13.35981c0.1084,0.50127 0.12305,0.75806 0.41953,1.18154c0.72202,-0.06079 0.33267,-0.33091 1.00459,-0.62095c0.39023,-0.5165 0.56616,-0.93896 1.03345,-1.46455l0.31846,0.41074c5.94038,-8.7772 15.07646,-12.75425 25.0585,-15.02505z" fill="url(#color-15)"/>
      <path d="M87.69199,76.65806c2.44263,-1.11226 5.53315,-1.14302 8.16445,-1.25186c0.97588,-0.04028 1.67373,-0.15659 2.30625,-0.8811c0.66357,0.31465 3.0271,0.33545 3.85269,0.30615c0.82148,0.1396 1.673,0.29736 2.49331,0.42231c0.47622,0.1875 0.69185,0.1667 0.90718,0.51152c-0.58491,0.21812 -1.86108,0.07939 -2.60156,0.1229c-4.44492,-0.22295 -8.56904,-0.20845 -12.96738,0.50464c-0.64028,0.10386 -1.51099,0.23364 -2.15493,0.26543z" fill="#e6c26d"/>
      <path d="M104.50869,75.25356c0.43286,0.05552 0.87378,0.10635 1.30371,0.17637c0.86118,0.11221 1.67681,0.17183 2.49126,0.46274l0.12451,0.18721c-0.34482,0.27949 -0.34204,0.24683 -0.78809,0.32549c-1.24219,-0.271 -3.32842,-0.23452 -4.82578,-0.51738c0.74048,-0.04351 2.01665,0.09521 2.60156,-0.1229c-0.21533,-0.34482 -0.43096,-0.32402 -0.90718,-0.51152z" fill="#b38133"/>
      <path d="M62.31504,91.27236l0.31846,0.41074c-0.48545,0.84858 -1.59624,2.49009 -2.28223,3.15981c-0.04658,-0.28608 0.76494,-1.78579 0.93032,-2.10601c0.39023,-0.5165 0.56616,-0.93896 1.03345,-1.46455z" fill="#b38133"/>
      <path d="M68.55059,87.52881c5.45977,-5.27036 15.34482,-7.68838 22.74946,-8.26274c-0.54507,1.02217 -1.8,2.26743 -2.58677,3.21006c-1.23252,1.46909 -2.38579,3.00293 -3.45498,4.59478c-0.12788,0.19087 -0.06328,0.12437 -0.23145,0.24229c0.00894,-2.00713 5.16929,-6.16318 5.01284,-7.4417c-1.396,-0.7374 -10.8498,1.7354 -12.51343,2.70454c0.16567,0.479 0.22104,0.6561 0.32402,1.14858c-0.79951,1.42939 -3.60571,2.37583 -5.07246,2.02837c-1.95527,-0.46318 -3.06445,1.80527 -4.22725,1.77583z" fill="#361900"/>
      <path d="M188.00391,75.85459c8.06396,-0.0019 17.71143,0.41177 25.396,3.09961c0.11865,0.42759 3.83203,6.40283 4.19238,6.77783c1.771,3.79351 3.00732,6.82515 3.99609,10.94019c2.3584,9.81064 1.80029,24.55796 -1.03564,34.17759l-0.26074,-0.04878c-0.54932,-0.53408 -2.28076,-3.40122 -2.82422,-4.26489c-1.27441,-2.44658 -4.82373,-7.30972 -6.56836,-9.68643c-2.1709,-2.90684 -5.1958,-6.62915 -7.69043,-9.28799c-0.25195,-0.38643 -1.19824,-1.39116 -1.55127,-1.69731c-0.93604,-1.22754 -3.58154,-3.86777 -4.72998,-4.8791c-0.63574,-1.00049 -8.47705,-7.79517 -9.76904,-8.84707c-0.72363,-0.67954 -2.51514,-2.14263 -3.33838,-2.68271c-2.43457,-2.29248 -7.88672,-5.83989 -10.74609,-7.77363c-1.26416,-1.14316 -3.39404,-2.04082 -4.19824,-3.19028c7.50146,-1.5605 11.52246,-2.30215 19.12793,-2.63701z" fill="#000000"/>
      <path d="M56.15713,140.87124c0.11968,0.64863 -0.22295,1.21377 -0.49102,1.85742c2.15508,0.65464 4.54072,0.86719 6.43755,1.52915c2.49229,0.86997 5.50034,3.08496 7.76353,4.51025c1.87588,1.18066 3.80771,2.30273 5.62266,3.5874c0.06328,0.71338 0.05903,1.00928 0.28418,1.67432c-0.69331,1.91748 -1.42705,3.87598 -2.04507,5.81396l0.17886,0.19043c0.54932,-0.51416 4.47803,-13.79429 6.1084,-13.9229c-0.69756,1.30034 -5.75537,13.67534 -5.72476,14.77983l0.22002,0.06885c-1.47026,6.03223 -3.93765,13.3916 -4.04692,19.72559c0.04849,4.63477 -0.09536,9.01025 0.76816,13.59229c0.14253,0.75732 0.60659,3.52148 0.41748,4.13086l-0.18911,-0.23437c-0.92959,-0.1875 -2.6811,-1.06934 -3.60806,-1.51318c-6.00776,-2.87402 -12.25796,-7.63623 -16.22695,-13.00195c-1.02451,-1.38574 -2.09927,-2.83008 -3.06768,-4.26416c-0.36885,-0.54492 -0.38745,-1.21436 -0.78442,-1.49707l-0.19292,0.20947l-0.31201,0.12451c-0.19512,1.01514 -0.03765,2.47119 -0.11792,3.60498c-1.68105,-9.76758 4.55229,-32.24854 9.00601,-40.96567z" fill="url(#color-16)"/>
      <path d="M73.72896,159.84375l0.17886,0.19043c0.54932,-0.51416 4.47803,-13.79429 6.1084,-13.9229c-0.69756,1.30034 -5.75537,13.67534 -5.72476,14.77983l0.22002,0.06885c-1.47026,6.03223 -3.93765,13.3916 -4.04692,19.72559c0.04849,4.63477 -0.09536,9.01025 0.76816,13.59229c0.14253,0.75732 0.60659,3.52148 0.41748,4.13086l-0.18911,-0.23437c-0.40693,-1.43262 -0.72891,-2.88867 -0.96401,-4.35937c-0.32798,-2.04932 -1.40698,-12.61963 -0.65801,-14.04199c0.27642,-5.43896 1.97212,-14.82422 3.88989,-19.9292z" fill="#d5a950"/>
      <path d="M71.46108,198.17432c-0.40693,-1.43262 -0.72891,-2.88867 -0.96401,-4.35937c-0.32798,-2.04932 -1.40698,-12.61963 -0.65801,-14.04199l0.02988,0.25928c0.15146,1.4209 -0.0438,3.56982 0.06094,4.93506c0.18032,2.34668 0.44092,7.59814 0.99097,9.72949c0.15586,-1.03271 -0.32227,-2.51953 -0.38481,-3.46289c-0.15967,-2.4126 -0.81899,-8.38916 -0.07148,-10.54834c0.04849,4.63477 -0.09536,9.01025 0.76816,13.59229c0.14253,0.75732 0.60659,3.52148 0.41748,4.13086z" fill="#a37125"/>
      <path d="M132.45615,61.91558c3.57378,-1.5501 6.88286,-3.29956 10.61133,-4.829c12.24111,-5.02061 27.86514,-9.1021 41.18643,-8.75479c1.95996,-0.03354 4.13232,0.10474 6.09229,0.30322c0.19922,0.0561 0.56689,0.10532 0.73389,0.20654c0.55957,0.3394 1.31836,1.89346 1.6377,2.46299c1.71094,3.05522 3.73096,5.87051 5.49463,8.8834c1.97314,3.3709 3.66211,6.92637 5.61328,10.29507c0.03076,0.05288 0.08643,0.08628 0.12891,0.12935c-2.8374,-0.48252 -6.77637,-0.82368 -9.63281,-0.92695c-9.39404,-0.52104 -20.69678,1.04604 -29.73779,3.61201c-4.2876,1.21641 -8.45654,2.90244 -12.6416,4.31938l-0.104,-0.10269c0.70313,-0.23496 1.53955,-0.54756 2.2251,-0.83818c3.46729,-1.47041 7.08984,-2.51177 10.68018,-3.65845c-0.54932,-1.51011 -4.13232,-5.48408 -5.16211,-7.00532c-1.74609,-2.57842 -3.19336,-5.37876 -5.10791,-7.8126c-0.72217,-0.9167 -1.66846,-2.27651 -2.79199,-2.61694c-0.31201,-0.09126 -0.46289,-0.55913 -0.67529,-0.93882c-0.94336,-0.33545 -11.08008,4.27354 -12.53716,4.80747c-2.04536,0.74956 -6.80977,3.71499 -8.70527,3.87026c0.52148,-0.36138 2.05239,-1.08545 2.69224,-1.40596z" fill="url(#color-17)"/>
      <path d="M184.25391,48.33179c1.95996,-0.03354 4.13232,0.10474 6.09229,0.30322c0.19922,0.0561 0.56689,0.10532 0.73389,0.20654c0.55957,0.3394 1.31836,1.89346 1.6377,2.46299c1.71094,3.05522 3.73096,5.87051 5.49463,8.8834c1.97314,3.3709 3.66211,6.92637 5.61328,10.29507c0.03076,0.05288 0.08643,0.08628 0.12891,0.12935c-2.8374,-0.48252 -6.77637,-0.82368 -9.63281,-0.92695c0.55957,-1.0166 0.21973,-0.80977 -0.00293,-2.00889c-0.55371,-2.96191 -2.67627,-4.40962 -4.19092,-6.93062c-0.93896,-1.56372 -1.70801,-2.96396 -2.41699,-4.69263c-0.77197,-1.88774 -0.64746,-3.67515 -0.97412,-5.63306l-0.0249,-0.13784c0.18018,-0.70518 0.52295,-0.60264 0.83496,-1.18916c-0.9126,-1.00605 -2.22949,-0.0375 -3.32812,-0.52661z" fill="#a37125"/>
      <path d="M197.13135,71.1542c14.58691,1.21084 27.71924,6.56558 38.3584,16.6916c0.27539,-0.51167 -0.18457,-0.18853 0.38965,-0.93647c3.79541,3.96943 6.97705,8.48276 9.43945,13.39102c1.68018,3.72144 3.34863,8.85791 4.46045,12.81797c0.12451,1.2895 0.31787,3.03926 0.28857,4.30415c0.28564,2.15508 -0.00586,8.35151 -0.45557,10.51494c-0.0542,-0.42729 -0.0542,-0.98057 -0.06738,-1.42354l-0.15527,-0.05786l-0.61816,0.48721c-0.70898,-0.74648 -1.90137,-2.60127 -2.49756,-3.04409c-3.90674,-2.89438 -9.05713,-2.95928 -11.99854,-7.24409c-0.96826,-1.41064 -4.1792,-3.4979 -5.85645,-3.54302c-0.19336,-0.00527 -0.55664,-1.03096 -0.6665,-1.27017c-0.11572,-0.68394 -0.18896,-1.94897 -0.25342,-2.68125c0.06299,-1.62964 -0.98291,-7.23267 -1.59961,-8.69707l-0.25195,0.14414c-0.28711,-0.47871 -0.27979,-1.08018 -0.18164,-1.61191c-0.45996,-1.27412 -1.29492,-2.68506 -1.78418,-3.96108c-0.65039,-1.6957 -3.97998,-9.88242 -6.08936,-9.30264c-0.36035,-0.375 -4.07373,-6.35024 -4.19238,-6.77783c-7.68457,-2.68784 -17.33203,-3.10151 -25.396,-3.09961c0.72803,-0.18926 3.03809,-0.21343 3.89209,-0.18091c1.94385,0.07427 4.29932,-0.10195 6.20068,0.04409c2.11377,0.16216 4.51758,0.6167 6.66797,0.84243c1.39307,0.14619 2.95752,0.83613 4.49121,0.79307c0.27686,-0.2165 1.85449,-2.80986 2.16504,-3.28652c-3.10107,-1.15342 -11.04639,-2.55234 -14.4624,-2.76577z" fill="url(#color-18)"/>
      <path d="M225.64746,100.60767c-0.28711,-0.47871 -0.27979,-1.08018 -0.18164,-1.61191c0.60205,0.66138 4.75635,2.84517 6.19922,3.66445c5.02441,2.85117 9.45264,6.17197 13.21582,10.64604c0.79395,0.94395 4.08252,6.44575 4.51904,6.7875l0.28125,-0.08818l0.20801,0.00747c0.21094,-0.36284 0.15674,-2.04814 0.17871,-2.59058c0.28564,2.15508 -0.00586,8.35151 -0.45557,10.51494c-0.0542,-0.42729 -0.0542,-0.98057 -0.06738,-1.42354l-0.15527,-0.05786l-0.61816,0.48721c-0.70898,-0.74648 -1.90137,-2.60127 -2.49756,-3.04409c-3.90674,-2.89438 -9.05713,-2.95928 -11.99854,-7.24409c-0.96826,-1.41064 -4.1792,-3.4979 -5.85645,-3.54302c-0.19336,-0.00527 -0.55664,-1.03096 -0.6665,-1.27017c-0.11572,-0.68394 -0.18896,-1.94897 -0.25342,-2.68125c0.06299,-1.62964 -0.98291,-7.23267 -1.59961,-8.69707z" fill="#683f0d"/>
      <path d="M197.13135,71.1542c14.58691,1.21084 27.71924,6.56558 38.3584,16.6916c0.27539,-0.51167 -0.18457,-0.18853 0.38965,-0.93647c3.79541,3.96943 6.97705,8.48276 9.43945,13.39102c1.68018,3.72144 3.34863,8.85791 4.46045,12.81797c0.12451,1.2895 0.31787,3.03926 0.28857,4.30415c-0.02197,0.54243 0.03223,2.22773 -0.17871,2.59058l-0.20801,-0.00747c-3.10547,-20.77471 -16.36084,-35.1479 -36.28125,-41.05137c-7.68457,-2.68784 -17.33203,-3.10151 -25.396,-3.09961c0.72803,-0.18926 3.03809,-0.21343 3.89209,-0.18091c1.94385,0.07427 4.29932,-0.10195 6.20068,0.04409c2.11377,0.16216 4.51758,0.6167 6.66797,0.84243c1.39307,0.14619 2.95752,0.83613 4.49121,0.79307c0.27686,-0.2165 1.85449,-2.80986 2.16504,-3.28652c-3.10107,-1.15342 -11.04639,-2.55234 -14.4624,-2.76577z" fill="url(#color-19)"/>
      <path d="M235.48975,87.8458c0.27539,-0.51167 -0.18457,-0.18853 0.38965,-0.93647c3.79541,3.96943 6.97705,8.48276 9.43945,13.39102c-0.05713,0.32285 -0.05127,0.30015 -0.26221,0.55269c-0.22559,-0.14604 -2.37012,-3.87993 -2.72754,-4.51509c-1.87939,-3.34614 -4.47363,-5.62427 -6.83936,-8.49214z" fill="url(#color-20)"/>
      <path d="M80.29673,103.09468c0.42905,-0.50361 0.78237,-0.8417 1.2624,-1.29946c-0.14634,0.76772 -8.79741,10.7959 -9.97954,13.09849c0.94805,1.45415 15.11309,14.86333 16.23398,15.35537c2.13574,-2.94331 5.17207,-6.65801 7.07622,-9.48193l0.12583,0.01948c-0.30747,0.77271 -4.22417,5.68066 -4.99995,6.79321c-1.6793,2.40806 -3.23423,4.67769 -4.77891,7.22915c-2.57021,4.21392 -4.85771,8.5938 -6.84771,13.11094c-0.85591,1.8999 -1.75034,4.33008 -2.61504,6.10986c-0.22515,-0.66504 -0.2209,-0.96094 -0.28418,-1.67432c-1.81494,-1.28467 -3.74678,-2.40674 -5.62266,-3.5874c-2.26318,-1.42529 -5.27124,-3.64028 -7.76353,-4.51025c-1.89683,-0.66196 -4.28247,-0.87451 -6.43755,-1.52915c0.26807,-0.64365 0.61069,-1.20879 0.49102,-1.85742c0.11704,-1.01499 4.08384,-8.35239 4.84189,-10.09512c6.18516,-11.15801 11.36133,-17.98242 19.29771,-27.68145z" fill="url(#color-21)"/>
      <path d="M164.07129,79.64692c0.71631,-0.06387 3.94043,-0.93105 4.80469,-1.15532c0.8042,1.14946 2.93408,2.04712 4.19824,3.19028c2.85938,1.93374 8.31152,5.48115 10.74609,7.77363c0.82324,0.54009 2.61475,2.00317 3.33838,2.68271c-1.59961,0.18428 -2.17969,0.32886 -3.7207,0.80127c-3.89648,0.8625 -9.30029,3.848 -13.04297,5.29995c-1.16748,0.68364 -4.02979,2.26743 -4.98193,2.99282l-0.40723,-0.24961c-4.06934,-2.83711 -7.72119,-5.08198 -12.09082,-7.49004c-1.37695,-0.75908 -3.75146,-1.79341 -4.90869,-2.54399l-0.08203,-0.10693c-0.63135,-0.15059 -4.48564,-1.79209 -5.354,-2.1356c-0.11953,-0.15996 -0.23906,-0.32007 -0.35859,-0.48003c7.08955,-3.71997 14.19258,-6.37017 21.85957,-8.57915z" fill="url(#color-22)"/>
      <path d="M164.07129,79.64692c0.71631,-0.06387 3.94043,-0.93105 4.80469,-1.15532c0.8042,1.14946 2.93408,2.04712 4.19824,3.19028c-0.78809,0.30615 -1.86182,0.54858 -2.5752,0.72524c-3.01465,0.74722 -21.375,6.45937 -22.57471,8.43457c-0.63135,-0.15059 -4.48564,-1.79209 -5.354,-2.1356c-0.11953,-0.15996 -0.23906,-0.32007 -0.35859,-0.48003c7.08955,-3.71997 14.19258,-6.37017 21.85957,-8.57915z" fill="#361900"/>
      <path d="M170.39502,98.23945c-0.30908,0.05068 -0.34424,0.05815 -0.65479,0.04395l0.02197,-0.24463c1.65674,-1.92026 3.36768,-2.43267 5.24121,-3.8647c2.39502,-1.82959 4.53223,-3.71968 7.26563,-5.10103c0.26807,-0.13564 1.2085,0.27979 1.55127,0.38247c0.82324,0.54009 2.61475,2.00317 3.33838,2.68271c-1.59961,0.18428 -2.17969,0.32886 -3.7207,0.80127c-3.89648,0.8625 -9.30029,3.848 -13.04297,5.29995z" fill="#a37125"/>
      <path d="M112.55566,57.42832c0.63911,0.023 1.09834,0.06533 1.73364,0.14414c3.82456,0.22412 8.83535,1.50469 12.54185,2.46035c1.22681,0.34424 5.02178,1.1874 5.625,1.88276c-0.63984,0.32051 -2.17075,1.04458 -2.69224,1.40596c-1.5438,0.67251 -3.72217,1.96523 -5.1854,2.81572c-3.3186,1.89609 -6.56206,3.9208 -9.72319,6.06929c-2.12168,1.43555 -4.36333,3.12144 -6.47754,4.47539l-0.7377,-0.27656c0.44604,-0.07866 0.44326,-0.046 0.78809,-0.32549l-0.12451,-0.18721c-0.81445,-0.29092 -1.63008,-0.35054 -2.49126,-0.46274c-0.42993,-0.07002 -0.87085,-0.12085 -1.30371,-0.17637c-0.82031,-0.12495 -1.67183,-0.28271 -2.49331,-0.42231c-0.82559,0.0293 -3.18911,0.0085 -3.85269,-0.30615c1.67461,-1.87998 3.9208,-5.10498 5.50752,-7.11987c1.16221,-1.47583 8.70308,-8.95503 8.88545,-9.9769z" fill="url(#color-23)"/>
      <path d="M126.83115,60.03281c1.22681,0.34424 5.02178,1.1874 5.625,1.88276c-0.63984,0.32051 -2.17075,1.04458 -2.69224,1.40596c-1.5438,0.67251 -3.72217,1.96523 -5.1854,2.81572c-3.3186,1.89609 -6.56206,3.9208 -9.72319,6.06929c-2.12168,1.43555 -4.36333,3.12144 -6.47754,4.47539l-0.7377,-0.27656c0.44604,-0.07866 0.44326,-0.046 0.78809,-0.32549l-0.12451,-0.18721c-0.81445,-0.29092 -1.63008,-0.35054 -2.49126,-0.46274c-0.01846,-0.1752 -0.04102,-0.32651 -0.02827,-0.50552c0.1645,-2.3168 17.99648,-12.6293 21.04702,-14.8916z" fill="url(#color-24)"/>
      <path d="M112.55566,57.42832c0.63911,0.023 1.09834,0.06533 1.73364,0.14414c1.03125,1.68472 -9.19702,9.45205 -10.24365,11.32617c-0.26807,0.47974 -2.93276,4.38296 -2.90596,4.36948l-0.1106,-0.35537c-0.41763,0.18691 -1.73218,1.10361 -1.50322,1.59814c0.76978,0.06768 1.76704,0.11104 2.4895,0.32036c-0.82559,0.0293 -3.18911,0.0085 -3.85269,-0.30615c1.67461,-1.87998 3.9208,-5.10498 5.50752,-7.11987c1.16221,-1.47583 8.70308,-8.95503 8.88545,-9.9769z" fill="#b38133"/>
      <path d="M168.38379,73.6377c-0.00586,-0.00205 8.97363,-1.6667 10.13232,-1.84526c2.81836,-0.43491 16.41357,-1.81626 18.61523,-0.63823l-0.17285,0.14678c3.41602,0.21343 11.36133,1.61235 14.4624,2.76577c-0.31055,0.47666 -1.88818,3.07002 -2.16504,3.28652c-1.53369,0.04307 -3.09814,-0.64687 -4.49121,-0.79307c-2.15039,-0.22573 -4.5542,-0.68027 -6.66797,-0.84243c-1.90137,-0.14604 -4.25684,0.03018 -6.20068,-0.04409c-0.854,-0.03252 -3.16406,-0.00835 -3.89209,0.18091c-7.60547,0.33486 -11.62646,1.07651 -19.12793,2.63701c-0.86426,0.22427 -4.08838,1.09146 -4.80469,1.15532l0.09375,-0.07764l-0.00146,-0.16582c-1.60693,0.14634 -7.09863,2.30786 -8.23096,2.37803c-0.86133,-0.44399 -2.11084,-1.13584 -2.84619,-1.75898c-0.57422,-0.48721 -0.33105,-0.35098 -1.24072,-0.39463c1.01074,-0.52236 3.31934,-1.36157 4.45898,-1.80234c3.9624,-1.57383 7.99219,-2.97114 12.0791,-4.18784z" fill="#e6c26d"/>
      <path d="M121.84746,96.48442c0.40239,-0.68467 11.35869,-7.77759 12.73198,-8.81675c1.09204,-0.82632 9.19175,-5.16606 10.34546,-5.71216c3.3041,-1.56387 21.1957,-8.79214 23.45889,-8.31782c-4.08691,1.2167 -8.1167,2.61401 -12.0791,4.18784c-1.13965,0.44077 -3.44824,1.27998 -4.45898,1.80234c0.90967,0.04365 0.6665,-0.09258 1.24072,0.39463c0.73535,0.62314 1.98486,1.31499 2.84619,1.75898c1.13232,-0.07017 6.62402,-2.23169 8.23096,-2.37803l0.00146,0.16582l-0.09375,0.07764c-7.66699,2.20898 -14.77002,4.85918 -21.85957,8.57915c-0.84829,0.42217 -2.99971,1.4666 -3.67998,1.94824c-3.57993,1.64751 -7.17773,4.1231 -10.48052,6.25679c-0.75688,0.48896 -3.70356,2.71348 -4.28291,2.94507c-0.4519,0.3791 -0.76538,0.65757 -1.26138,0.97178c-1.33799,-0.84316 -0.22939,-3.27568 -2.34155,-2.56772c0.56748,-0.52998 1.0188,-0.89912 1.68208,-1.2958z" fill="url(#color-25)"/>
      <path d="M121.84746,96.48442c0.07515,0.33955 0.06987,0.17036 0.01948,0.50728c0.44722,0.93179 0.88682,1.63828 0.97178,2.65811l0.25737,-0.11074c0.29941,-0.12627 0.33794,-0.14282 0.67222,-0.16289c-0.4519,0.3791 -0.76538,0.65757 -1.26138,0.97178c-1.33799,-0.84316 -0.22939,-3.27568 -2.34155,-2.56772c0.56748,-0.52998 1.0188,-0.89912 1.68208,-1.2958z" fill="#d5a950"/>
      <path d="M88.82021,131.38828c0.68804,-0.43271 0.5231,-0.42598 1.22124,-0.35522c0.39873,0.29341 2.07612,1.29346 2.11348,1.34912c-0.09961,0.18296 -0.17417,0.33853 -0.25752,0.52778c-0.85225,1.93257 -2.49844,3.22046 -2.91006,5.36704l-0.63926,1.45649c0.20903,0.89956 1.89727,4.05278 2.33188,5.16123c-0.67661,0.79834 -1.26797,1.55449 -1.49883,2.61357c0.6356,1.29199 3.43184,7.16895 4.18389,7.9043c0.70928,1.33594 1.34648,2.49902 2.12681,3.80127c0.63179,0.94922 2.96455,4.77979 3.71411,5.17236c0.79614,0.72656 2.75098,3.8291 3.52778,4.86621c0.52998,0.70752 4.09731,5.06396 4.12427,5.17822c1.95117,1.72559 4.2293,5.80371 6.29722,7.14844c1.8167,1.18213 6.77607,6.58594 8.25117,7.27588c1.42134,1.50586 5.91064,4.3916 6.68408,5.45508c0.12832,0.31787 0.18926,0.40869 0.42393,0.65918c-0.74575,1.32568 -4.16968,3.40869 -5.43838,4.51025c-0.90923,0.78955 -1.93872,2.59277 -2.89468,3.12451c-1.4918,0.82764 -5.19111,1.57031 -6.37998,2.55322c-0.93955,0.20508 -2.42651,0.61377 -3.24785,1.06934c1.81758,1.58643 9.48062,7.58789 11.48408,8.59277c0.80933,0.6123 1.50088,1.06787 2.354,1.61719c1.10142,0.91553 3.88872,2.41406 4.38633,3.18311c-3.96782,1.04004 -6.94746,1.35938 -10.58423,2.19434c-0.49541,-0.0293 -2.05342,0.16992 -2.60698,0.24609c-7.57104,1.03711 -14.43867,0.42334 -21.946,-0.4248c-3.32139,-0.85693 -6.10034,-1.1001 -9.67969,-2.23682c-0.01729,-0.1875 -0.04937,-0.58887 -0.16597,-0.74707c-1.37153,-1.84863 -2.56274,-3.67529 -3.70371,-5.6748c-0.09756,0.06006 -0.28784,0.12598 -0.40254,0.17285c-2.45669,-0.95654 -7.58394,-12.08496 -8.03862,-14.74072c0.18911,-0.60937 -0.27495,-3.37354 -0.41748,-4.13086c-0.86353,-4.58203 -0.71968,-8.95752 -0.76816,-13.59229c0.10928,-6.33398 2.57666,-13.69336 4.04692,-19.72559c2.71274,-8.36572 6.31523,-16.41519 10.74565,-24.01172c0.87437,-1.50176 2.47808,-4.22798 3.56309,-5.55996z" fill="#000000"/>
      <path d="M95.49185,159.21387c0.63179,0.94922 2.96455,4.77979 3.71411,5.17236c0.79614,0.72656 2.75098,3.8291 3.52778,4.86621c0.52998,0.70752 4.09731,5.06396 4.12427,5.17822c1.95117,1.72559 4.2293,5.80371 6.29722,7.14844c1.8167,1.18213 6.77607,6.58594 8.25117,7.27588c1.42134,1.50586 5.91064,4.3916 6.68408,5.45508c0.12832,0.31787 0.18926,0.40869 0.42393,0.65918c-0.74575,1.32568 -4.16968,3.40869 -5.43838,4.51025c-0.90923,0.78955 -1.93872,2.59277 -2.89468,3.12451c-1.4918,0.82764 -5.19111,1.57031 -6.37998,2.55322c-0.93955,0.20508 -2.42651,0.61377 -3.24785,1.06934c-4.13013,-3.17578 -11.04785,-9.74268 -14.49199,-13.63037c-2.65898,-2.47998 -7.05996,-8.00684 -9.24302,-10.89551c0.22412,-0.96973 0.1541,-2.37598 0.46025,-3.37939c1.18652,-3.88477 5.51982,-16.60986 8.21309,-19.10742z" fill="url(#color-26)"/>
      <path d="M95.49185,159.21387c0.63179,0.94922 2.96455,4.77979 3.71411,5.17236c0.79614,0.72656 2.75098,3.8291 3.52778,4.86621c0.52998,0.70752 4.09731,5.06396 4.12427,5.17822l0.28608,0.67383c-0.48149,-0.03223 -2.18262,-2.40527 -2.52144,-2.90332l-0.20654,0.01611c-0.54844,1.02393 -0.66313,1.69775 -1.29434,2.78906c-2.09502,3.62402 -4.80659,6.86572 -7.3103,10.21143c-0.548,0.73096 -2.55513,3.08203 -2.58926,3.74268c0.87964,1.39746 2.55322,2.27637 2.83931,3.63574c-2.65898,-2.47998 -7.05996,-8.00684 -9.24302,-10.89551c0.22412,-0.96973 0.1541,-2.37598 0.46025,-3.37939c1.18652,-3.88477 5.51982,-16.60986 8.21309,-19.10742z" fill="url(#color-27)"/>
      <path d="M88.82021,131.38828c0.68804,-0.43271 0.5231,-0.42598 1.22124,-0.35522c0.39873,0.29341 2.07612,1.29346 2.11348,1.34912c-0.09961,0.18296 -0.17417,0.33853 -0.25752,0.52778c-0.85225,1.93257 -2.49844,3.22046 -2.91006,5.36704l-0.63926,1.45649c0.20903,0.89956 1.89727,4.05278 2.33188,5.16123c-0.67661,0.79834 -1.26797,1.55449 -1.49883,2.61357c0.6356,1.29199 3.43184,7.16895 4.18389,7.9043c0.70928,1.33594 1.34648,2.49902 2.12681,3.80127c-2.69326,2.49756 -7.02656,15.22266 -8.21309,19.10742c-0.30615,1.00342 -0.23613,2.40967 -0.46025,3.37939c-2.20093,-2.88428 -5.20664,-6.86572 -6.96372,-9.98145c-0.38247,-0.36621 -1.88071,-3.34131 -2.66953,-3.99463l-0.25737,0.08789c-3.78911,15.90527 -3.90996,30.16406 3.16348,45.16406c-0.09756,0.06006 -0.28784,0.12598 -0.40254,0.17285c-2.45669,-0.95654 -7.58394,-12.08496 -8.03862,-14.74072c0.18911,-0.60937 -0.27495,-3.37354 -0.41748,-4.13086c-0.86353,-4.58203 -0.71968,-8.95752 -0.76816,-13.59229c0.10928,-6.33398 2.57666,-13.69336 4.04692,-19.72559c2.71274,-8.36572 6.31523,-16.41519 10.74565,-24.01172c0.87437,-1.50176 2.47808,-4.22798 3.56309,-5.55996z" fill="url(#color-28)"/>
      <path d="M89.09985,147.50977l0.0813,-0.00146c0.6356,1.29199 3.43184,7.16895 4.18389,7.9043c0.70928,1.33594 1.34648,2.49902 2.12681,3.80127c-2.69326,2.49756 -7.02656,15.22266 -8.21309,19.10742c-0.30615,1.00342 -0.23613,2.40967 -0.46025,3.37939c-2.20093,-2.88428 -5.20664,-6.86572 -6.96372,-9.98145c0.87979,-1.42236 1.13174,-3.35596 1.64092,-4.94678c2.04404,-6.38232 4.4688,-13.35352 7.60415,-19.2627z" fill="url(#color-29)"/>
      <path d="M87.19687,141.97822c0.15513,-0.42832 0.87891,-1.63696 1.15122,-2.24473c0.20903,0.89956 1.89727,4.05278 2.33188,5.16123c-0.67661,0.79834 -1.26797,1.55449 -1.49883,2.61357l-0.0813,0.00146c-3.13535,5.90918 -5.56011,12.88037 -7.60415,19.2627c-0.50918,1.59082 -0.76113,3.52441 -1.64092,4.94678c-0.38247,-0.36621 -1.88071,-3.34131 -2.66953,-3.99463l-0.25737,0.08789c0.27261,-1.36816 0.86206,-3.2168 1.26284,-4.5791c2.16416,-7.41211 5.18672,-14.54443 9.00615,-21.25518z" fill="#472705"/>
      <path d="M87.19687,141.97822c0.15513,-0.42832 0.87891,-1.63696 1.15122,-2.24473c0.20903,0.89956 1.89727,4.05278 2.33188,5.16123c-0.67661,0.79834 -1.26797,1.55449 -1.49883,2.61357l-0.0813,0.00146c-0.98848,-1.81963 -1.89858,-3.2937 -1.62832,-5.39883z" fill="#683f0d"/>
      <path d="M217.22021,194.56201c1.41504,-1.87354 3.00146,-3.67383 4.45752,-5.53857c3.51123,-4.43115 6.79541,-9.03809 9.84082,-13.80322c1.51758,-2.33203 3.54932,-5.49316 4.78711,-7.98486c0.55078,1.32715 1.0708,3.36768 1.46338,4.79443c2.38623,8.65869 3.36768,18.51855 1.64502,27.375c-0.16113,0.82178 -0.56104,2.75537 -0.84521,3.44531c-0.88184,2.77002 -1.75342,5.51367 -2.93262,8.17676c-4.61719,10.58643 -12.74268,19.26123 -23.00537,24.56104c-2.5752,1.33008 -6.07617,2.80371 -8.9209,3.48047c-6.07617,1.61865 -10.64941,2.05957 -16.93066,1.75195c-4.06934,0.10547 -12.28711,-1.67578 -16.28613,-2.7334c-1.08838,-0.26953 -4.81934,-1.32129 -5.51953,-1.99365c0.93018,-0.55518 2.37305,-1.15137 3.49365,-1.80029c6.1084,-2.72461 13.74463,-8.34814 19.16455,-12.27393c0.17578,-0.15381 0.55225,-0.41309 0.75586,-0.5625l4.13672,-3.07324c3.51416,-2.83447 7.02686,-5.66162 10.31836,-8.75537c0.76172,-0.71631 2.53711,-2.28223 3.14063,-3.07031c0.77051,-0.56982 2.69971,-2.58838 3.42188,-3.34424c2.67773,-2.81689 5.28369,-5.70117 7.81494,-8.65137z" fill="url(#color-30)"/>
      <path d="M208.35498,222.03223c0.38818,-0.16846 2.23975,-0.56836 2.72461,-0.68262c2.54883,-0.59619 4.85742,-1.40039 7.30225,-2.31738l0.16699,0.33105c-0.23877,0.42334 -3.62109,2.66455 -4.38721,3.31348l1.19238,-0.57275l0.08789,0.05566l-0.60498,0.99756l0.04248,0.15674c0.71191,-0.13916 0.37061,-0.48926 0.88037,-0.50391l0.12451,-0.14648c0.59619,-1.50586 2.39941,-2.44189 3.81738,-3.02783c-1.22021,1.62158 -2.68506,3.10693 -3.76318,4.58496l-5.43457,7.41504c-0.58887,0.81445 -1.9834,3.25488 -2.82568,3.47461c-1.08398,0.54492 -1.49268,3.31348 -3.12744,3.37354c-0.31934,0.01025 -0.63281,0.3457 -0.84082,0.58447c-6.07617,1.61865 -10.64941,2.05957 -16.93066,1.75195c-4.06934,0.10547 -12.28711,-1.67578 -16.28613,-2.7334c-1.08838,-0.26953 -4.81934,-1.32129 -5.51953,-1.99365c0.93018,-0.55518 2.37305,-1.15137 3.49365,-1.80029c6.1084,-2.72461 13.74463,-8.34814 19.16455,-12.27393c0.79102,0.51855 2.76709,0.69727 3.7793,0.84961l0.14063,-0.10107c2.46826,0.44238 4.8208,0.57275 7.31689,0.67822c0.26074,0.01025 0.42188,0.14209 0.60645,0.29736c0.60352,-0.37646 1.3623,-0.38965 2.06396,-0.4292c2.41699,-0.13623 4.51758,-0.43359 6.81592,-1.28174z" fill="url(#color-31)"/>
      <path d="M187.63184,222.01904c0.79102,0.51855 2.76709,0.69727 3.7793,0.84961l0.14063,-0.10107c2.46826,0.44238 4.8208,0.57275 7.31689,0.67822c0.26074,0.01025 0.42188,0.14209 0.60645,0.29736c-2.06836,1.83398 -4.32422,5.12549 -6.06592,7.33301c-2.62793,3.33252 -4.93066,6.26074 -7.90283,9.27539c0.22266,0.36768 0.82471,0.37793 1.27295,0.46875c-4.06934,0.10547 -12.28711,-1.67578 -16.28613,-2.7334c-1.08838,-0.26953 -4.81934,-1.32129 -5.51953,-1.99365c0.93018,-0.55518 2.37305,-1.15137 3.49365,-1.80029c6.1084,-2.72461 13.74463,-8.34814 19.16455,-12.27393z" fill="url(#color-32)"/>
      <path d="M187.63184,222.01904c0.79102,0.51855 2.76709,0.69727 3.7793,0.84961c-0.4585,2.32031 -13.9248,10.875 -16.5498,12.46582c-0.84375,0.51123 -3.92285,2.1167 -4.36816,2.75244c-1.08838,-0.26953 -4.81934,-1.32129 -5.51953,-1.99365c0.93018,-0.55518 2.37305,-1.15137 3.49365,-1.80029c6.1084,-2.72461 13.74463,-8.34814 19.16455,-12.27393z" fill="url(#color-33)"/>
      <path d="M215.88428,222.66357c0.59619,-1.50586 2.39941,-2.44189 3.81738,-3.02783c-1.22021,1.62158 -2.68506,3.10693 -3.76318,4.58496l-5.43457,7.41504c-0.58887,0.81445 -1.9834,3.25488 -2.82568,3.47461l-0.67822,0.16992c-0.53027,0.59619 -0.86133,0.85986 -1.46631,1.35645l-0.01904,-0.09375c0.56543,-0.68408 1.29199,-1.69336 1.87793,-2.33936c-0.28564,0.31348 0.70166,-0.57861 0.55078,-0.43652l-0.02344,-0.24609l0.96533,-0.59326c-0.02344,-1.38281 7.24805,-9.30615 6.99902,-10.26416z" fill="#e6c26d"/>
      <path d="M217.22021,194.56201c0.93604,1.2627 -0.88037,6.9917 -1.38428,8.43018c-1.92187,4.48682 -3.0542,7.89111 -6.22852,11.94141c-0.96973,1.23633 -2.97217,2.92676 -3.66504,3.9126c-1.84717,0.35889 -11.84326,0.35449 -13.41797,-0.46289c3.51416,-2.83447 7.02686,-5.66162 10.31836,-8.75537c0.76172,-0.71631 2.53711,-2.28223 3.14063,-3.07031c0.77051,-0.56982 2.69971,-2.58838 3.42188,-3.34424c2.67773,-2.81689 5.28369,-5.70117 7.81494,-8.65137z" fill="#000000"/>
      <path d="M238.41211,200.29395l0.18311,0.12158c-0.36914,2.25879 -5.56641,10.48828 -7.3916,11.92822c-3.94629,3.11279 -3.58301,4.24072 -4.58496,9.09229c-0.08936,0.44824 -0.52734,3.00439 -0.36475,3.375c0.03369,-0.00146 0.43945,-0.47754 0.48926,-0.53613c4.57471,-5.20459 8.13428,-11.13867 10.28613,-17.74072c0.47607,-1.45898 0.9375,-2.28223 1.28027,-3.91992l0.12891,-0.06592l0.13037,0.30176c-0.88184,2.77002 -1.75342,5.51367 -2.93262,8.17676c-4.61719,10.58643 -12.74268,19.26123 -23.00537,24.56104c-2.5752,1.33008 -6.07617,2.80371 -8.9209,3.48047c0.20801,-0.23877 0.52148,-0.57422 0.84082,-0.58447c1.63477,-0.06006 2.04346,-2.82861 3.12744,-3.37354c0.84229,-0.21973 2.23682,-2.66016 2.82568,-3.47461l5.43457,-7.41504c1.07813,-1.47803 2.54297,-2.96338 3.76318,-4.58496c0.76025,-0.18311 2.97949,-1.54395 3.74854,-1.96875c6.22412,-3.43945 10.08838,-7.72705 13.32568,-14.04053c0.35596,-0.1875 1.42383,-2.80371 1.63623,-3.33252z" fill="url(#color-34)"/>
      <path d="M215.83594,202.99219c-0.16992,3.30762 -4.88379,11.52686 -7.56152,13.90869c-0.47021,0.41748 -1.29199,1.09863 -1.60547,1.62158l0.0498,0.1377c3.03809,-0.2959 6.44531,-0.65771 9.27686,-1.72852c0.58154,-0.22119 1.54248,-0.17432 2.02002,-0.55664c0.33105,-1.56885 0.17285,-3.43066 2.0127,-3.63281c2.12109,-0.23437 3.40869,-1.35205 5.56348,0.01758c5.0376,-2.80811 9.14941,-8.02295 11.50049,-13.25244c0.24023,-0.53467 1.08252,-3.2168 1.42676,-3.25928c-4.52197,14.58984 -17.94873,22.05615 -32.57666,22.59814c0.69287,-0.98584 2.69531,-2.67627 3.66504,-3.9126c3.17432,-4.05029 4.30664,-7.45459 6.22852,-11.94141z" fill="#361900"/>
      <path d="M227.64258,213.84521c3.30322,-1.71826 6.78223,-7.26562 8.82861,-10.27295l0.30469,0.0542c-3.2373,6.31348 -7.10156,10.60107 -13.32568,14.04053c-0.76904,0.4248 -2.98828,1.78564 -3.74854,1.96875c-1.41797,0.58594 -3.22119,1.52197 -3.81738,3.02783l-0.12451,0.14648c-0.50977,0.01465 -0.16846,0.36475 -0.88037,0.50391l-0.04248,-0.15674l0.60498,-0.99756l-0.08789,-0.05566l-1.19238,0.57275c0.76611,-0.64893 4.14844,-2.89014 4.38721,-3.31348l-0.16699,-0.33105c0.20068,-0.18164 2.11377,-1.03857 2.50781,-1.21875c2.43018,-1.11182 4.58057,-2.42432 6.75293,-3.96826z" fill="url(#color-35)"/>
      <path d="M193.09717,222.36035c5.48584,0.24023 9.84961,0.20508 15.25781,-0.32812c-2.29834,0.84814 -4.39893,1.14551 -6.81592,1.28174c-0.70166,0.03955 -1.46045,0.05273 -2.06396,0.4292c-0.18457,-0.15527 -0.3457,-0.28711 -0.60645,-0.29736c-2.49609,-0.10547 -4.84863,-0.23584 -7.31689,-0.67822c0.53906,-0.45264 0.79541,-0.36621 1.54541,-0.40723z" fill="#e6c26d"/>
      <path d="M227.64258,213.84521c0.30615,-0.62695 4.229,-4.16748 5.26025,-5.45361c1.96143,-2.44775 2.93848,-4.99365 4.61279,-7.19824c0.19043,-0.00586 0.18164,-0.04102 0.37646,-0.14795c0.19629,-0.36035 0.25928,-0.4292 0.52002,-0.75146c-0.2124,0.52881 -1.28027,3.14502 -1.63623,3.33252l-0.30469,-0.0542c-2.04639,3.00732 -5.52539,8.55469 -8.82861,10.27295z" fill="#a37125"/>
      <path d="M187.63184,222.01904c0.17578,-0.15381 0.55225,-0.41309 0.75586,-0.5625c0.73389,0.89941 3.56836,0.56104 4.70947,0.90381c-0.75,0.04102 -1.00635,-0.04541 -1.54541,0.40723l-0.14062,0.10107c-1.01221,-0.15234 -2.98828,-0.33105 -3.7793,-0.84961z" fill="#b38133"/>
      <path d="M217.59229,85.73203c2.10938,-0.57979 5.43896,7.60693 6.08936,9.30264c0.48926,1.27603 1.32422,2.68696 1.78418,3.96108c-0.09814,0.53174 -0.10547,1.1332 0.18164,1.61191l0.25195,-0.14414c0.6167,1.4644 1.6626,7.06743 1.59961,8.69707c0.06445,0.73228 0.1377,1.99731 0.25342,2.68125c0.10986,0.23921 0.47314,1.26489 0.6665,1.27017c1.67725,0.04512 4.88818,2.13237 5.85645,3.54302c2.94141,4.28481 8.0918,4.34971 11.99854,7.24409c0.59619,0.44282 1.78857,2.29761 2.49756,3.04409l0.61816,-0.48721l0.15527,0.05786c0.01318,0.44297 0.01318,0.99624 0.06738,1.42354c-1.11914,12.95801 -6.42041,25.87998 -12.34717,37.31016c0.27979,-4.12646 -9.94482,-11.58252 -12.97852,-14.37891c-0.7998,-0.73828 -3.29443,-1.43262 -4.21289,-2.09326l-0.22559,0.375l-0.20654,-0.14941l1.03271,-2.62295c0.1377,-2.0458 2.97949,-7.70405 3.28564,-10.23867c-0.10986,-0.09521 -0.0542,-0.07778 -0.14648,-0.09185l-0.21973,0.16509c-0.16553,1.41768 -2.84619,8.78145 -3.82324,9.8625c-0.40283,0.93662 -2.08301,4.97959 -2.58105,5.70762c-0.65625,1.76807 -2.60303,5.17676 -3.57568,6.94482c-8.40381,14.91943 -19.53516,28.12793 -32.81543,38.93848c-1.59375,0.62988 -4.97021,3.97705 -5.79053,4.05322c-0.79541,-0.5874 -1.44141,-1.37549 -1.91748,-2.23828c0.19043,-0.34717 2.21338,-1.64648 2.86377,-2.28662l-0.07471,-0.24902c0.23145,-0.33105 3.80859,-3.14502 4.34033,-3.57861c1.70947,-1.37109 3.36328,-2.80811 4.9585,-4.31104c9.35303,-8.81982 17.88574,-19.12793 24.10986,-30.43213c-0.42334,-0.52295 -2.20312,-4.87207 -2.50635,-5.69678c0.36328,-0.32227 1.22607,-2.00684 1.61279,-2.58838c-0.22852,-1.64648 -5.07715,-9.36855 -6.17432,-11.20312c2.49463,-2.78818 8.15771,-18.30352 8.6792,-22.28555c1.74463,2.37671 5.29395,7.23984 6.56836,9.68643c0.54346,0.86367 2.2749,3.73081 2.82422,4.26489l0.26074,0.04878c2.83594,-9.61963 3.39404,-24.36694 1.03564,-34.17759c-0.98877,-4.11504 -2.2251,-7.14668 -3.99609,-10.94019z" fill="#b38133"/>
      <path d="M227.75244,111.84185c0.10986,0.23921 0.47314,1.26489 0.6665,1.27017c1.67725,0.04512 4.88818,2.13237 5.85645,3.54302c2.94141,4.28481 8.0918,4.34971 11.99854,7.24409c0.59619,0.44282 1.78857,2.29761 2.49756,3.04409l0.61816,-0.48721l0.15527,0.05786c0.01318,0.44297 0.01318,0.99624 0.06738,1.42354c-1.11914,12.95801 -6.42041,25.87998 -12.34717,37.31016c0.27979,-4.12646 -9.94482,-11.58252 -12.97852,-14.37891c-0.7998,-0.73828 -3.29443,-1.43262 -4.21289,-2.09326l-0.22559,0.375l-0.20654,-0.14941l1.03271,-2.62295c0.50977,-0.88022 1.58789,-3.89077 1.96729,-4.93696c3.69727,-10.20176 5.19873,-18.85913 5.11084,-29.59922z" fill="url(#color-36)"/>
      <path d="M210.89941,116.84971c1.74463,2.37671 5.29395,7.23984 6.56836,9.68643c0.54346,0.86367 2.2749,3.73081 2.82422,4.26489l0.26074,0.04878c-1.27002,4.90942 -2.88574,9.72305 -4.83398,14.40498c-0.66211,1.59141 -2.68506,5.70322 -3.10693,6.99229c-1.0415,2.07129 -2.19434,4.36084 -3.32373,6.37646c-0.42334,-0.52295 -2.20312,-4.87207 -2.50635,-5.69678c0.36328,-0.32227 1.22607,-2.00684 1.61279,-2.58838c-0.22852,-1.64648 -5.07715,-9.36855 -6.17432,-11.20312c2.49463,-2.78818 8.15771,-18.30352 8.6792,-22.28555z" fill="url(#color-37)"/>
      <path d="M217.46777,126.53613c0.54346,0.86367 2.2749,3.73081 2.82422,4.26489l0.26074,0.04878c-1.27002,4.90942 -2.88574,9.72305 -4.83398,14.40498c-0.66211,1.59141 -2.68506,5.70322 -3.10693,6.99229c-1.0415,2.07129 -2.19434,4.36084 -3.32373,6.37646c-0.42334,-0.52295 -2.20312,-4.87207 -2.50635,-5.69678c0.36328,-0.32227 1.22607,-2.00684 1.61279,-2.58838c1.36963,-3.35742 3.30322,-6.46963 4.69482,-10.19063c1.18506,-3.24946 2.31006,-6.52104 3.37207,-9.81284c0.31494,-1.01118 0.74121,-3.1166 1.00635,-3.79878z" fill="#472705"/>
      <path d="M217.59229,85.73203c2.10938,-0.57979 5.43896,7.60693 6.08936,9.30264c0.48926,1.27603 1.32422,2.68696 1.78418,3.96108c-0.09814,0.53174 -0.10547,1.1332 0.18164,1.61191l0.25195,-0.14414c0.6167,1.4644 1.6626,7.06743 1.59961,8.69707c0.06445,0.73228 0.1377,1.99731 0.25342,2.68125c0.08789,10.74009 -1.41357,19.39746 -5.11084,29.59922c-0.37939,1.04619 -1.45752,4.05674 -1.96729,4.93696c0.1377,-2.0458 2.97949,-7.70405 3.28564,-10.23867c-0.10986,-0.09521 -0.0542,-0.07778 -0.14648,-0.09185l-0.21973,0.16509c-0.16553,1.41768 -2.84619,8.78145 -3.82324,9.8625c-0.40283,0.93662 -2.08301,4.97959 -2.58105,5.70762l-0.11572,-0.20068c0.71338,-1.95996 1.9248,-4.42236 2.76123,-6.44766c1.396,-3.38613 2.60889,-6.84463 3.63281,-10.3604c0.20801,-0.69873 0.82764,-2.45815 0.67236,-3.1125c-0.36475,0.04482 -2.81104,-0.19893 -3.4043,-0.2291c-0.62988,1.92261 -1.07812,3.81064 -1.68018,5.68521c-1.15869,3.60439 -2.50195,7.14624 -4.02832,10.61045c-0.59619,1.37402 -1.45312,3.43799 -2.41553,4.51904c0.42188,-1.28906 2.44482,-5.40088 3.10693,-6.99229c1.94824,-4.68193 3.56396,-9.49556 4.83398,-14.40498c2.83594,-9.61963 3.39404,-24.36694 1.03564,-34.17759c-0.98877,-4.11504 -2.2251,-7.14668 -3.99609,-10.94019z" fill="url(#color-38)"/>
      <path d="M226.8999,110.97188c0.10693,-1.38486 0.08643,-2.58062 0.07324,-3.96372l-0.22852,0.01523l-0.00439,-0.07866l0.22119,-0.16567l-0.00586,-0.07588l-0.21973,-0.00059l0.00293,-0.0832l0.18896,-0.14062l-0.07617,-0.24595l0.17432,0.31172l-0.19922,0.12393l0.23291,0.01172l-0.20947,0.15044c0.20508,0.83364 0.19336,1.61411 0.64893,2.32998c0.06445,0.73228 0.1377,1.99731 0.25342,2.68125c0.08789,10.74009 -1.41357,19.39746 -5.11084,29.59922c-0.37939,1.04619 -1.45752,4.05674 -1.96729,4.93696c0.1377,-2.0458 2.97949,-7.70405 3.28564,-10.23867c-0.10986,-0.09521 -0.0542,-0.07778 -0.14648,-0.09185l-0.21973,0.16509c-0.16553,1.41768 -2.84619,8.78145 -3.82324,9.8625c0.21973,-0.8417 0.97266,-2.62588 1.30518,-3.50508c0.69727,-1.86357 1.35352,-3.74165 1.96875,-5.63306c2.65723,-8.39502 3.95947,-17.16021 3.85547,-25.96509z" fill="#d5a950"/>
      <path d="M225.64746,100.60767l0.25195,-0.14414c0.6167,1.4644 1.6626,7.06743 1.59961,8.69707c-0.45557,-0.71587 -0.44385,-1.49634 -0.64893,-2.32998l0.20947,-0.15044l-0.23291,-0.01172l0.19922,-0.12393l-0.17432,-0.31172l0.07617,0.24595l-0.18896,0.14063l-0.00293,0.0832l0.21973,0.00059l0.00586,0.07588l-0.22119,0.16567l0.00439,0.07866l0.22852,-0.01523c0.01318,1.38311 0.03369,2.57886 -0.07324,3.96372c-0.13916,-0.51372 -0.22412,-2.60083 -0.2959,-3.35229c-0.23437,-2.42886 -0.46729,-4.6147 -0.95654,-7.01191z" fill="#a37125"/>
      <path d="M47.58105,178.10742l0.19292,-0.20947c0.39697,0.28271 0.41558,0.95215 0.78442,1.49707c0.96841,1.43408 2.04316,2.87842 3.06768,4.26416c3.96899,5.36572 10.21919,10.12793 16.22695,13.00195c0.92695,0.44385 2.67847,1.32568 3.60806,1.51318l0.18911,0.23438c0.45469,2.65576 5.58193,13.78418 8.03862,14.74072c0.1147,-0.04687 0.30498,-0.11279 0.40254,-0.17285c1.14097,1.99951 2.33218,3.82617 3.70371,5.6748c0.1166,0.1582 0.14868,0.55957 0.16597,0.74707c3.57935,1.13672 6.3583,1.37988 9.67969,2.23682c-0.09141,0.02637 -0.18296,0.05127 -0.27451,0.07617c-4.15547,-0.17725 -8.60669,-1.88379 -12.60044,-2.92969c0.02446,0.00586 -1.6686,2.05225 -1.84731,2.28223c-0.08291,0.10693 -0.09214,0.23877 -0.11851,0.42334c0.85913,1.45459 8.80518,3.03076 10.52798,3.74707l-0.88359,0.06006h-0.06563c-0.9041,0.375 -6.2625,-1.6582 -7.51201,-2.10352l-0.07471,0.23584c1.85464,1.80762 7.38516,2.07275 8.63306,3.3457c1.2085,0.26807 2.63804,0.62402 3.83979,0.8335c2.52437,4.95117 5.87959,10.33008 8.84341,15.06006c0.58008,0.92578 4.37036,6.11426 4.51963,6.70459c-2.50503,-0.14355 -5.21294,-0.66064 -7.67065,-1.2085c-10.78711,-2.33496 -20.76548,-7.47949 -28.92407,-14.91357c-12.59561,-11.55615 -21.91128,-30.57568 -22.60942,-47.69238c-0.13081,-1.30371 -0.22529,-2.41113 -0.27261,-3.71924c0.08027,-1.13379 -0.0772,-2.58984 0.11792,-3.60498z" fill="url(#color-39)"/>
      <path d="M47.58105,178.10742l0.19292,-0.20947c0.39697,0.28271 0.41558,0.95215 0.78442,1.49707c0.96841,1.43408 2.04316,2.87842 3.06768,4.26416c3.96899,5.36572 10.21919,10.12793 16.22695,13.00195c0.92695,0.44385 2.67847,1.32568 3.60806,1.51318l0.18911,0.23438c0.45469,2.65576 5.58193,13.78418 8.03862,14.74072c0.1147,-0.04687 0.30498,-0.11279 0.40254,-0.17285c1.14097,1.99951 2.33218,3.82617 3.70371,5.6748c0.1166,0.1582 0.14868,0.55957 0.16597,0.74707c-17.67275,-5.0332 -31.448,-18.10254 -35.43237,-36.29297c-0.35977,-1.64209 -0.63911,-3.34277 -0.94761,-4.99805z" fill="url(#color-40)"/>
      <path d="M47.15112,181.83691c0.08027,-1.13379 -0.0772,-2.58984 0.11792,-3.60498l0.31201,-0.12451c0.3085,1.65527 0.58784,3.35596 0.94761,4.99805c3.98438,18.19043 17.75962,31.25977 35.43237,36.29297c3.57935,1.13672 6.3583,1.37988 9.67969,2.23682c-0.09141,0.02637 -0.18296,0.05127 -0.27451,0.07617c-4.15547,-0.17725 -8.60669,-1.88379 -12.60044,-2.92969c0.02446,0.00586 -1.6686,2.05225 -1.84731,2.28223c-0.08291,0.10693 -0.09214,0.23877 -0.11851,0.42334c0.85913,1.45459 8.80518,3.03076 10.52798,3.74707l-0.88359,0.06006h-0.06563c-0.49731,-0.26074 -2.52642,-0.80127 -3.16377,-0.99023c-1.58555,-0.46436 -3.15249,-0.99023 -4.69775,-1.57617c-8.25762,-3.15527 -15.97837,-8.82422 -21.72539,-15.49658c-0.16069,0.16113 -0.36606,0.3501 -0.50171,0.5332c-1.87295,-2.12549 -3.21855,-4.36084 -4.6188,-6.79102c-1.14829,-1.08984 -3.82002,-7.98633 -4.36099,-9.82178c-0.57026,-1.93506 -0.81753,-3.74414 -1.88657,-5.5957c-0.13081,-1.30371 -0.22529,-2.41113 -0.27261,-3.71924z" fill="url(#color-41)"/>
      <path d="M53.67129,200.97363l0.40063,-0.21826c0.22544,0.19922 1.09878,1.85303 1.46528,2.40381c0.93413,1.40332 2.35122,2.80078 3.25459,4.07227c-0.16069,0.16113 -0.36606,0.3501 -0.50171,0.5332c-1.87295,-2.12549 -3.21855,-4.36084 -4.6188,-6.79102z" fill="#b38133"/>
      <path d="M58.29009,207.76465c0.13564,-0.18311 0.34102,-0.37207 0.50171,-0.5332c5.74702,6.67236 13.46777,12.34131 21.72539,15.49658c1.54526,0.58594 3.11221,1.11182 4.69775,1.57617c0.63735,0.18896 2.66646,0.72949 3.16377,0.99023c-0.9041,0.375 -6.2625,-1.6582 -7.51201,-2.10352l-0.07471,0.23584c1.85464,1.80762 7.38516,2.07275 8.63306,3.3457c-2.16064,-0.3999 -4.78228,-1.27148 -6.86133,-2.01123c-10.28613,-3.65918 -17.23828,-8.90332 -24.27363,-16.99658z" fill="url(#color-42)"/>
      <path d="M219.6416,149.00098l0.20654,0.14941l0.22559,-0.375c0.91846,0.66064 3.41309,1.35498 4.21289,2.09326c3.03369,2.79639 13.2583,10.25244 12.97852,14.37891l-0.95947,1.98779c-1.23779,2.4917 -3.26953,5.65283 -4.78711,7.98486c-3.04541,4.76514 -6.32959,9.37207 -9.84082,13.80322c-1.45605,1.86475 -3.04248,3.66504 -4.45752,5.53857c-2.53125,2.9502 -5.13721,5.83447 -7.81494,8.65137c-0.72217,0.75586 -2.65137,2.77441 -3.42187,3.34424c0.16992,-0.58008 0.3252,-0.83496 0.76025,-1.25391c-0.78223,-0.4248 -1.69043,-1.39746 -2.32178,-2.02295c-3.59473,-3.55225 -6.6123,-8.13721 -9.06738,-12.53613c-0.43213,-0.77344 -1.51611,-2.21924 -2.09766,-3.13916c0.07324,-0.38525 0.34717,-0.73535 0.62549,-1.00781c8.78027,-8.62646 15.7002,-18.68848 21.77051,-29.36133c1.4707,-2.58545 2.52393,-5.62061 3.98877,-8.23535z" fill="url(#color-43)"/>
      <path d="M100.70522,228.49805c15.37969,0.67236 27.67046,-1.49854 42.20112,-6.93164c3.31934,-1.24072 6.56631,-2.93408 9.69521,-4.13525c-0.38379,0.80273 -12.01948,5.30127 -13.55332,5.73926c-0.81826,0.23438 -2.71494,0.80273 -3.42993,1.20557c0.10371,0.28271 1.63228,1.18213 1.97285,1.47949c4.33052,3.77051 12.04995,10.19385 13.67739,15.71631c3.20947,-0.36328 15.56104,-7.25977 17.19873,-7.27881c-1.12061,0.64893 -2.56348,1.24512 -3.49365,1.80029c-2.82129,1.25977 -5.68506,2.76416 -8.51074,3.93896c-10.30181,4.28027 -21.03428,7.6875 -32.1312,9.10107c-1.50601,0.19189 -4.14814,0.50391 -5.65313,0.50684c-3.15322,0.38232 -8.94463,0.16553 -12.05068,-0.26953c-0.14927,-0.59033 -3.93955,-5.77881 -4.51963,-6.70459c-2.96382,-4.72998 -6.31904,-10.10889 -8.84341,-15.06006c1.34121,0.15381 6.32842,0.63867 7.44038,0.89209z" fill="url(#color-44)"/>
      <path d="M93.26484,227.60596c1.34121,0.15381 6.32842,0.63867 7.44038,0.89209c0.75439,0.43799 1.69849,0.27393 1.8835,0.43799c0.7062,0.62695 1.39937,2.24121 2.09253,2.85352c3.6687,3.24463 7.23003,5.55029 9.62783,10.05029c0.42114,0.79102 1.81245,1.9043 2.1394,2.8667c0.50347,1.08398 1.83296,2.72021 1.75342,3.87891c-0.41953,0.4292 -0.55825,0.41162 -0.6104,0.88037c0.37939,0.06885 0.7021,0.12305 1.08706,0.17432c-3.15322,0.38232 -8.94463,0.16553 -12.05068,-0.26953c-0.14927,-0.59033 -3.93955,-5.77881 -4.51963,-6.70459c-2.96382,-4.72998 -6.31904,-10.10889 -8.84341,-15.06006z" fill="#a37125"/>
      <path d="M128.09048,194.31006c1.29272,0.85986 2.56831,1.74609 3.82603,2.65723c2.54604,1.78418 5.16724,3.4585 7.8564,5.01855c1.3248,0.78076 3.66211,2.05078 4.79956,2.88721c-0.59355,-0.06885 -1.69541,-0.65625 -1.70859,-0.65625c-2.76694,0.11865 -5.25498,3.25488 -7.45942,4.6377c-2.37583,1.49121 -4.83369,2.58252 -7.14448,4.27734c-1.01177,0.74121 -4.37461,1.75049 -5.66602,1.84277c-0.01011,0 -0.49336,-0.1377 -0.55635,-0.15527c-2.00347,-1.00488 -9.6665,-7.00635 -11.48408,-8.59277c0.82134,-0.45557 2.3083,-0.86426 3.24785,-1.06934c1.18887,-0.98291 4.88818,-1.72559 6.37998,-2.55322c0.95596,-0.53174 1.98545,-2.33496 2.89468,-3.12451c1.2687,-1.10156 4.69263,-3.18457 5.43838,-4.51025c-0.23467,-0.25049 -0.29561,-0.34131 -0.42393,-0.65918z" fill="url(#color-45)"/>
      <path d="M128.09048,194.31006c1.29272,0.85986 2.56831,1.74609 3.82603,2.65723c-3.32886,2.57959 -14.04756,7.28174 -18.11514,8.18994c1.18887,-0.98291 4.88818,-1.72559 6.37998,-2.55322c0.95596,-0.53174 1.98545,-2.33496 2.89468,-3.12451c1.2687,-1.10156 4.69263,-3.18457 5.43838,-4.51025c-0.23467,-0.25049 -0.29561,-0.34131 -0.42393,-0.65918z" fill="#b38133"/>
      <path d="M122.0376,214.81934c0.06299,0.01758 0.54624,0.15527 0.55635,0.15527c1.29141,-0.09229 4.65425,-1.10156 5.66602,-1.84277c2.31079,-1.69482 4.76865,-2.78613 7.14448,-4.27734c2.20444,-1.38281 4.69248,-4.51904 7.45942,-4.6377c0.01318,0 1.11504,0.5874 1.70859,0.65625c0.58374,0.25781 3.23174,1.5791 3.70488,1.90869c0.49512,0.1875 1.11914,0.48047 1.61865,0.6958c0.99756,-0.7251 2.04639,-1.40918 3.07471,-2.09473c1.125,0.47168 5.03613,1.979 5.66016,2.73633c-0.58154,0.2959 -2.85791,1.4165 -3.25781,1.73438l-0.48193,0.16406c-6.29004,3.36182 -13.24233,6.07764 -20.09897,8.0083c-1.72793,0.48633 -4.25903,1.26855 -6.01421,1.59375c-0.49761,-0.76904 -3.28491,-2.26758 -4.38633,-3.18311c-0.85312,-0.54932 -1.54468,-1.00488 -2.354,-1.61719z" fill="#361900"/>
      <path d="M122.0376,214.81934c0.06299,0.01758 0.54624,0.15527 0.55635,0.15527c1.29141,-0.09229 4.65425,-1.10156 5.66602,-1.84277c2.31079,-1.69482 4.76865,-2.78613 7.14448,-4.27734c2.20444,-1.38281 4.69248,-4.51904 7.45942,-4.6377c0.01318,0 1.11504,0.5874 1.70859,0.65625c0.58374,0.25781 3.23174,1.5791 3.70488,1.90869l-0.01904,0.17578l0.90088,0.49219v0.19629c-1.54102,1.02246 -5.36221,2.02002 -5.94785,2.7876c-4.18564,1.80908 -9.51987,3.19775 -13.90913,4.62305c-0.89883,0.2915 -4.36025,1.12939 -4.9106,1.37988c-0.85312,-0.54932 -1.54468,-1.00488 -2.354,-1.61719z" fill="#683f0d"/>
      <path d="M152.9707,205.38281c1.125,0.47168 5.03613,1.979 5.66016,2.73633c-0.58154,0.2959 -2.85791,1.4165 -3.25781,1.73438l-0.48193,0.16406c-0.65039,-0.73242 -3.28271,-1.59961 -4.22607,-2.07422c-1.00781,-0.50684 -1.70801,0.06006 -2.7085,0.48193c-1.47334,0.61963 -3.15923,1.63623 -4.74521,2.0083c0.58564,-0.76758 4.40684,-1.76514 5.94785,-2.7876v-0.19629l-0.90088,-0.49219l0.01904,-0.17578c0.49512,0.1875 1.11914,0.48047 1.61865,0.6958c0.99756,-0.7251 2.04639,-1.40918 3.07471,-2.09473z" fill="#472705"/>
      <path d="M175.87939,196.94531l0.07471,0.24902c-0.65039,0.64014 -2.67334,1.93945 -2.86377,2.28662c0.47607,0.86279 1.12207,1.65088 1.91748,2.23828c0.82031,-0.07617 4.19678,-3.42334 5.79053,-4.05322c-1.49121,1.47656 -3.45264,2.78174 -5.0874,4.10156c-4.6875,3.78223 -9.90234,6.57422 -14.97803,9.75293c-0.09961,0.65332 -4.65234,2.69531 -5.51514,3.1377c-7.90869,4.05762 -16.20747,7.27588 -24.76978,9.6665l-0.26382,-0.06592l-0.10503,-0.28564c-0.3813,0.09375 -0.77593,0.14648 -1.16865,0.16992c-0.12026,-0.8877 -1.20923,-3.19189 -1.94517,-3.71924c-1.64385,0.36328 -7.46353,1.7373 -8.77163,1.39014c3.63677,-0.83496 6.61641,-1.1543 10.58423,-2.19434c1.75518,-0.3252 4.28628,-1.10742 6.01421,-1.59375c6.85664,-1.93066 13.80894,-4.64648 20.09897,-8.0083l0.48193,-0.16406c0.3999,-0.31787 2.67627,-1.43848 3.25781,-1.73437c5.38623,-2.60303 12.39258,-7.56152 17.24854,-11.17383z" fill="#e6c26d"/>
      <path d="M154.89111,210.01758l0.48193,-0.16406l0.03809,0.20068c-2.06689,1.44727 -4.96729,2.22217 -7.0415,3.58154c-0.17871,0.11572 -0.89355,3.98291 -1.98589,4.19824c-1.88188,0.36914 -4.79312,-0.95068 -4.58789,2.14893c0.77212,0.42334 16.87603,-7.39307 18.93706,-8.4624c-0.09961,0.65332 -4.65234,2.69531 -5.51514,3.1377c-7.90869,4.05762 -16.20747,7.27588 -24.76978,9.6665l-0.26382,-0.06592l-0.10503,-0.28564c-0.3813,0.09375 -0.77593,0.14648 -1.16865,0.16992c-0.12026,-0.8877 -1.20923,-3.19189 -1.94517,-3.71924c-1.64385,0.36328 -7.46353,1.7373 -8.77163,1.39014c3.63677,-0.83496 6.61641,-1.1543 10.58423,-2.19434c1.75518,-0.3252 4.28628,-1.10742 6.01421,-1.59375c6.85664,-1.93066 13.80894,-4.64648 20.09897,-8.0083z" fill="#f8eaac"/>
      <path d="M88.44434,225.29443l0.88359,-0.06006c-1.7228,-0.71631 -9.66885,-2.29248 -10.52798,-3.74707c0.02637,-0.18457 0.0356,-0.31641 0.11851,-0.42334c0.17871,-0.22998 1.87178,-2.27637 1.84731,-2.28223c3.99375,1.0459 8.44497,2.75244 12.60044,2.92969c0.09155,-0.0249 0.18311,-0.0498 0.27451,-0.07617c7.50732,0.84814 14.37495,1.46191 21.946,0.4248c0.55356,-0.07617 2.11157,-0.27539 2.60698,-0.24609c1.30811,0.34717 7.12778,-1.02686 8.77163,-1.39014c0.73594,0.52734 1.8249,2.83154 1.94517,3.71924c-2.80562,0.99316 -6.00498,1.40918 -8.93042,1.94824c-9.22617,1.70068 -19.05923,2.03174 -28.24512,-0.09229c-1.00781,-0.23291 -2.38755,-0.25195 -3.29063,-0.70459z" fill="#d5a950"/>
      <path d="M190.34619,48.63501c3.78809,0.17739 6.45117,0.94292 10.01514,1.79224c25.91016,6.17461 43.92627,29.06045 48.54639,54.64043c0.5127,2.83638 0.91553,5.14893 0.87158,8.05063c-1.11182,-3.96006 -2.78027,-9.09653 -4.46045,-12.81797c-2.4624,-4.90825 -5.64404,-9.42158 -9.43945,-13.39102c-1.37109,-1.58701 -3.40723,-3.27612 -5.10059,-4.56914c-8.21777,-6.28125 -16.75488,-9.81035 -26.82422,-11.72783c-0.04248,-0.04307 -0.09814,-0.07646 -0.12891,-0.12935c-1.95117,-3.3687 -3.64014,-6.92417 -5.61328,-10.29507c-1.76367,-3.01289 -3.78369,-5.82817 -5.49463,-8.8834c-0.31934,-0.56953 -1.07812,-2.12358 -1.6377,-2.46299c-0.16699,-0.10122 -0.53467,-0.15044 -0.73389,-0.20654z" fill="url(#color-46)"/>
    </g>

</svg>
