<svg id="svg" version="1.1" viewBox="0 0 300 300" width="300" height="300" xmlns="http://www.w3.org/2000/svg"><svg xmlns="http://www.w3.org/2000/svg"><defs><clipPath id="clip-1"><rect x="0" y="0" transform="scale(0.14648,0.14648)" width="2048" height="2048" fill="none"/></clipPath><linearGradient x1="90.60806" y1="170.98975" x2="114.83306" y2="163.37842" gradientUnits="userSpaceOnUse" id="color-1"><stop offset="0" stop-color="#633609"/><stop offset="1" stop-color="#bb872e"/></linearGradient><linearGradient x1="102.05889" y1="107.89746" x2="106.74404" y2="110.18057" gradientUnits="userSpaceOnUse" id="color-2"><stop offset="0" stop-color="#895a1b"/><stop offset="1" stop-color="#be8d37"/></linearGradient><linearGradient x1="109.44287" y1="102.871" x2="111.71646" y2="104.38315" gradientUnits="userSpaceOnUse" id="color-3"><stop offset="0" stop-color="#b68331"/><stop offset="1" stop-color="#d6a84a"/></linearGradient><linearGradient x1="122.18701" y1="118.90122" x2="99.82148" y2="111.64907" gradientUnits="userSpaceOnUse" id="color-4"><stop offset="0" stop-color="#61370d"/><stop offset="1" stop-color="#8c6120"/></linearGradient><linearGradient x1="103.73276" y1="140.6127" x2="127.86636" y2="116.24326" gradientUnits="userSpaceOnUse" id="color-5"><stop offset="0" stop-color="#cb952e"/><stop offset="1" stop-color="#fff5a4"/></linearGradient><linearGradient x1="100.68032" y1="196.13379" x2="111.43315" y2="188.41699" gradientUnits="userSpaceOnUse" id="color-6"><stop offset="0" stop-color="#452508"/><stop offset="1" stop-color="#70430c"/></linearGradient><linearGradient x1="111.17021" y1="157.81934" x2="117.24668" y2="160.95117" gradientUnits="userSpaceOnUse" id="color-7"><stop offset="0" stop-color="#5e370b"/><stop offset="1" stop-color="#a9711c"/></linearGradient><linearGradient x1="98.33115" y1="184.33008" x2="103.72485" y2="175.07227" gradientUnits="userSpaceOnUse" id="color-8"><stop offset="0" stop-color="#2f1401"/><stop offset="1" stop-color="#583308"/></linearGradient><linearGradient x1="112.9686" y1="194.51953" x2="127.73496" y2="193.51465" gradientUnits="userSpaceOnUse" id="color-9"><stop offset="0" stop-color="#c48f3a"/><stop offset="1" stop-color="#deb258"/></linearGradient><linearGradient x1="157.55566" y1="93.73301" x2="142.40815" y2="126.44517" gradientUnits="userSpaceOnUse" id="color-10"><stop offset="0" stop-color="#ebc655"/><stop offset="1" stop-color="#fff9c5"/></linearGradient><linearGradient x1="174.8291" y1="92.02412" x2="148.85449" y2="107.3937" gradientUnits="userSpaceOnUse" id="color-11"><stop offset="0" stop-color="#9e681c"/><stop offset="1" stop-color="#f1ca65"/></linearGradient><linearGradient x1="165.39258" y1="117.37427" x2="159.38818" y2="105.33091" gradientUnits="userSpaceOnUse" id="color-12"><stop offset="0" stop-color="#c08833"/><stop offset="1" stop-color="#fae491"/></linearGradient><linearGradient x1="157.41064" y1="110.94653" x2="164.24561" y2="121.34253" gradientUnits="userSpaceOnUse" id="color-13"><stop offset="0" stop-color="#412204"/><stop offset="1" stop-color="#ae7420"/></linearGradient><linearGradient x1="131.89658" y1="104.38813" x2="125.76943" y2="99.81108" gradientUnits="userSpaceOnUse" id="color-14"><stop offset="0" stop-color="#764910"/><stop offset="1" stop-color="#a56d19"/></linearGradient><linearGradient x1="188.88721" y1="142.65366" x2="182.74365" y2="139.47524" gradientUnits="userSpaceOnUse" id="color-15"><stop offset="0" stop-color="#59340d"/><stop offset="1" stop-color="#9e6716"/></linearGradient><linearGradient x1="185.84473" y1="122.95122" x2="199.18213" y2="130.26724" gradientUnits="userSpaceOnUse" id="color-16"><stop offset="0" stop-color="#4f2402"/><stop offset="1" stop-color="#7f5521"/></linearGradient><linearGradient x1="185.7627" y1="138.77944" x2="178.20264" y2="132.19307" gradientUnits="userSpaceOnUse" id="color-17"><stop offset="0" stop-color="#a86e1e"/><stop offset="1" stop-color="#e8c265"/></linearGradient><linearGradient x1="164.96777" y1="118.30371" x2="171.7749" y2="124.02656" gradientUnits="userSpaceOnUse" id="color-18"><stop offset="0" stop-color="#b78634"/><stop offset="1" stop-color="#e8c369"/></linearGradient><linearGradient x1="115.53325" y1="163.6377" x2="130.92729" y2="177.31348" gradientUnits="userSpaceOnUse" id="color-19"><stop offset="0" stop-color="#d0a34b"/><stop offset="1" stop-color="#fce88f"/></linearGradient><linearGradient x1="135.70122" y1="182.66455" x2="129.73066" y2="177.36475" gradientUnits="userSpaceOnUse" id="color-20"><stop offset="0" stop-color="#b57f2e"/><stop offset="1" stop-color="#e1bb5f"/></linearGradient><linearGradient x1="130.49575" y1="166.47949" x2="128.62573" y2="168.66504" gradientUnits="userSpaceOnUse" id="color-21"><stop offset="0" stop-color="#f1cb6d"/><stop offset="1" stop-color="#fff3a6"/></linearGradient><linearGradient x1="147.55811" y1="184.91162" x2="139.07051" y2="172.74463" gradientUnits="userSpaceOnUse" id="color-22"><stop offset="0" stop-color="#ac751d"/><stop offset="1" stop-color="#fede84"/></linearGradient><linearGradient x1="148.93945" y1="115.77568" x2="155.07129" y2="121.28672" gradientUnits="userSpaceOnUse" id="color-23"><stop offset="0" stop-color="#8a5712"/><stop offset="1" stop-color="#cb9a42"/></linearGradient><linearGradient x1="185.10059" y1="150.38086" x2="180.75" y2="147.07764" gradientUnits="userSpaceOnUse" id="color-24"><stop offset="0" stop-color="#8b5816"/><stop offset="1" stop-color="#be8934"/></linearGradient><linearGradient x1="156.11426" y1="120.15029" x2="159.78223" y2="123.66665" gradientUnits="userSpaceOnUse" id="color-25"><stop offset="0" stop-color="#cd9c41"/><stop offset="1" stop-color="#e9c266"/></linearGradient><linearGradient x1="132.25767" y1="153.03076" x2="144.90674" y2="151.86035" gradientUnits="userSpaceOnUse" id="color-26"><stop offset="0" stop-color="#bc862f"/><stop offset="1" stop-color="#f6d171"/></linearGradient><linearGradient x1="158.55908" y1="155.67334" x2="149.44336" y2="148.51172" gradientUnits="userSpaceOnUse" id="color-27"><stop offset="0" stop-color="#dcaa49"/><stop offset="1" stop-color="#ffef9c"/></linearGradient><linearGradient x1="167.50928" y1="153.68848" x2="161.03613" y2="152.73193" gradientUnits="userSpaceOnUse" id="color-28"><stop offset="0" stop-color="#c28e38"/><stop offset="1" stop-color="#e2b455"/></linearGradient><linearGradient x1="161.00098" y1="158.01709" x2="151.73145" y2="156.13477" gradientUnits="userSpaceOnUse" id="color-29"><stop offset="0" stop-color="#dfaf4f"/><stop offset="1" stop-color="#ffe994"/></linearGradient><linearGradient x1="167.98682" y1="195.71338" x2="174.54346" y2="200.45801" gradientUnits="userSpaceOnUse" id="color-30"><stop offset="0" stop-color="#7d4e0e"/><stop offset="1" stop-color="#af7a21"/></linearGradient><linearGradient x1="162.95654" y1="195.34277" x2="171.7002" y2="199.54541" gradientUnits="userSpaceOnUse" id="color-31"><stop offset="0" stop-color="#643707"/><stop offset="1" stop-color="#855911"/></linearGradient><linearGradient x1="198.40723" y1="191.89014" x2="192.54053" y2="189.43799" gradientUnits="userSpaceOnUse" id="color-32"><stop offset="0" stop-color="#8a5817"/><stop offset="1" stop-color="#bd8a38"/></linearGradient><linearGradient x1="190.57178" y1="197.02295" x2="188.72021" y2="195.78223" gradientUnits="userSpaceOnUse" id="color-33"><stop offset="0" stop-color="#b4812f"/><stop offset="1" stop-color="#ce9c42"/></linearGradient><linearGradient x1="125.11802" y1="208.26563" x2="142.18975" y2="194.07275" gradientUnits="userSpaceOnUse" id="color-34"><stop offset="0" stop-color="#9c671c"/><stop offset="1" stop-color="#dcb253"/></linearGradient><linearGradient x1="197.41113" y1="159.62256" x2="182.36865" y2="171.16113" gradientUnits="userSpaceOnUse" id="color-35"><stop offset="0" stop-color="#bc8a35"/><stop offset="1" stop-color="#ecca68"/></linearGradient><linearGradient x1="139.51948" y1="186.90381" x2="134.86787" y2="179.43164" gradientUnits="userSpaceOnUse" id="color-36"><stop offset="0" stop-color="#673f0f"/><stop offset="1" stop-color="#ba7d20"/></linearGradient><linearGradient x1="134.44585" y1="186.7002" x2="144.4604" y2="196.36084" gradientUnits="userSpaceOnUse" id="color-37"><stop offset="0" stop-color="#e6bd69"/><stop offset="1" stop-color="#f9efb0"/></linearGradient><linearGradient x1="206.31152" y1="128.08872" x2="193.229" y2="147.84961" gradientUnits="userSpaceOnUse" id="color-38"><stop offset="0" stop-color="#673c0d"/><stop offset="1" stop-color="#a87322"/></linearGradient><linearGradient x1="199.875" y1="150.68994" x2="193.54834" y2="157.82666" gradientUnits="userSpaceOnUse" id="color-39"><stop offset="0" stop-color="#9f6e21"/><stop offset="1" stop-color="#bd8e39"/></linearGradient><linearGradient x1="199.67139" y1="104.33174" x2="187.50732" y2="111.86543" gradientUnits="userSpaceOnUse" id="color-40"><stop offset="0" stop-color="#4a2908"/><stop offset="1" stop-color="#724510"/></linearGradient><linearGradient x1="201.44238" y1="115.4146" x2="195.93457" y2="126.49761" gradientUnits="userSpaceOnUse" id="color-41"><stop offset="0" stop-color="#291201"/><stop offset="1" stop-color="#62390c"/></linearGradient><linearGradient x1="207.8335" y1="133.13188" x2="189.52148" y2="104.35547" gradientUnits="userSpaceOnUse" id="color-42"><stop offset="0" stop-color="#8a5618"/><stop offset="1" stop-color="#b88634"/></linearGradient></defs><g clip-path="url(#clip-1)" fill="none" fill-rule="nonzero" stroke="none" stroke-width="1" stroke-linecap="butt" stroke-linejoin="miter" stroke-miterlimit="10" stroke-dasharray="" stroke-dashoffset="0" font-family="none" font-weight="none" font-size="none" text-anchor="none" style="mix-blend-mode: normal"><path d="M0,0h300v300h-300z" fill="#000000"/><path d="M168.86572,91.09263c2.09766,-0.22705 4.00928,0.03633 6.08936,0.16406c1.25537,2.49565 2.80664,4.63696 4.25098,7.00269c1.04004,1.70347 1.87061,3.70708 2.97217,5.38315c0.14941,0.22705 0.09814,0.14414 0.2124,0.44033c-0.78516,-0.10605 -1.57178,-0.1938 -2.36133,-0.26309l-0.05566,0.34658l0.22412,0.24038l-0.04687,0.12627c1.41357,0.26968 3.57568,0.646 4.89111,1.04736c1.03418,0.19028 1.43408,0.30439 2.42871,0.65215c-1.28613,0.15747 -1.39014,0.71733 -1.76514,1.8895l0.10107,0.09551l-0.17432,0.1188c0.6665,0.18354 1.68164,0.42949 2.29248,0.68423c0.375,0.69536 2.07422,3.52295 2.55176,4.05762c1.54834,-0.27231 4.02832,6.53892 4.66846,7.89346c0.2915,1.04648 0.74121,2.52642 0.80713,3.59722l-0.2915,0.11045c1.15723,5.82773 -0.85107,15.04688 -2.82715,20.65195c-0.28564,-0.34731 0.88916,-3.07749 0.97998,-3.63208c0.14063,-0.84595 0.92285,-1.83794 0.23438,-2.54458c-0.56543,0.07632 -0.94482,0.06357 -1.51904,0.06064c-0.55371,1.44272 -1.10156,4.74419 -2.01123,5.85791c-1.77539,4.07285 -2.78906,6.72568 -5.00391,10.73643c-1.95996,3.47461 -4.20117,6.78223 -6.70312,9.88916c-1.24805,1.52197 -2.6748,2.99121 -3.8833,4.49121c-4.85449,4.80908 -12.71631,11.78027 -19.01953,14.56787l-0.45557,0.30469l-1.78711,0.88916c-0.56104,-0.43506 -2.32031,-1.17187 -3.03516,-1.48682c-0.54199,0.36621 -0.74854,0.41602 -1.37549,0.646c0.28271,-0.20654 0.49072,-0.34131 0.73535,-0.5918l-0.2417,-0.4541l-0.35156,-0.24902c-0.72949,-0.35303 -1.45605,-0.71338 -2.17676,-1.08252c-1.45298,-1.0957 -5.03306,-3.05127 -6.91582,-4.3418c-1.56138,0.63281 -3.18926,1.8208 -4.73643,2.46826c-1.64546,0.6709 -3.30937,1.29346 -4.9897,1.87207c-0.78003,0.25928 -2.33364,0.69434 -2.99048,0.96973c1.94971,1.6084 4.72397,3.81885 6.88345,5.14307l1.25728,0.87305c0.61274,0.46289 2.23491,1.46924 2.59351,1.85449c-3.12202,0.81592 -6.30776,1.3623 -9.5228,1.63623c-0.5625,0.28418 -0.66299,0.19922 -0.80918,0.74414c-0.15059,0.55518 -0.17007,1.13818 -0.05713,1.70215c0.35801,0.3457 0.64878,0.16992 1.28628,0.30908c-6.08335,0.59473 -9.49043,0.0249 -15.29414,-1.18945c-0.31875,0.04248 -0.28403,0.00293 -0.55781,0.13623l0.26353,0.14063c0.27393,0.14648 0.32842,0.16553 0.52881,0.41309c0.60264,0.20361 2.61299,0.7002 3.26191,0.77344c0.3813,0.59326 0.76128,1.19531 1.09937,1.81348c2.01577,3.68994 4.26196,7.71094 6.91406,11.00537c-1.83647,-0.1084 -3.78413,-0.53174 -5.57666,-0.94775c-16.78887,-3.89795 -28.28115,-19.94824 -29.34185,-36.7749c-0.96372,-8.33936 1.6481,-18.05566 4.9667,-25.68018c0.92256,-2.11919 2.10337,-4.12236 2.99517,-6.21152c-1.20981,-2.46826 -2.42886,-10.396 -2.22612,-13.01938c-0.02065,-0.84785 0.01816,-1.36157 0.09155,-2.19009c0.1938,-1.80425 0.49585,-3.59517 0.90469,-5.36309c1.08706,-4.89946 6.23057,-14.28955 10.83867,-16.53281c1.99863,-1.96772 6.06855,-3.78647 8.71318,-4.60854c1.3106,-0.4084 2.53491,-0.76479 3.88989,-1.00679l1.64092,-0.27422c2.28809,-0.3312 4.46953,-0.19277 6.7563,-0.05288c2.31035,0.10649 5.70879,0.84771 8.01504,1.51157c0.77666,0.22295 2.84722,0.76553 3.49512,1.05498c0.53452,-0.25532 0.90938,-0.45132 1.47334,-0.62476c0.78794,-0.53672 3.23408,-1.58042 4.22314,-1.99526c6.26997,-2.62939 15.72847,-5.30361 22.57222,-5.24839z" fill="#000000"/><path d="M122.33057,96.44736c2.28809,-0.3312 4.46953,-0.19277 6.7563,-0.05288c-2.59893,2.71567 -5.19976,5.3209 -7.41724,8.35649c-0.3605,0.49365 -0.82134,1.11533 -1.23003,1.56196c1.17803,0.50713 3.80039,0.04072 4.70508,1.07695c0.55078,0.17607 0.52866,0.17842 1.10273,0.1623l0.21401,0.04072l-2.28354,1.71562l-1.86094,1.55771c1.49312,1.02437 2.54678,3.67061 3.59224,5.06074c0.83013,1.10347 4.27559,5.03203 5.41187,5.16885c0.99126,-0.52295 1.17744,-1.08472 2.09341,-1.22007c0.82852,-0.60366 1.66831,-1.1915 2.51909,-1.76323c1.22754,-0.02109 2.79053,-2.5314 3.72729,-1.69233c0.62036,2.30581 -3.97793,3.13813 -4.25127,4.5334l-0.15747,0.15337c-1.09131,1.04692 -3.28652,2.52612 -4.53794,3.60967c-3.404,2.94712 -10.16646,9.79775 -12.27642,13.71182c-1.15312,1.69482 -3.05449,4.44565 -3.88638,6.28301c0.3334,0.71821 1.33594,2.7353 1.55405,3.3769c-0.46685,0.16406 -0.43184,0.15527 -0.74136,0.54785c-0.1875,0.6958 -0.05742,0.91992 0.17358,1.59521c1.03535,1.9834 2.10366,3.94922 3.20464,5.896c-1.53516,1.85596 -5.22686,10.82373 -5.02939,13.23047c0.35522,0.4834 0.86353,1.25244 1.31294,1.59961c1.20029,1.67432 6.90806,8.09912 8.50093,9.11572c1.17334,1.26563 2.72036,2.53857 4.06055,3.62842c1.94971,1.6084 4.72397,3.81885 6.88345,5.14307l1.25728,0.87305c0.61274,0.46289 2.23491,1.46924 2.59351,1.85449c-3.12202,0.81592 -6.30776,1.3623 -9.5228,1.63623c-0.5625,0.28418 -0.66299,0.19922 -0.80918,0.74414c-0.15059,0.55518 -0.17007,1.13818 -0.05713,1.70215c0.35801,0.3457 0.64878,0.16992 1.28628,0.30908c-6.08335,0.59473 -9.49043,0.0249 -15.29414,-1.18945c-0.31875,0.04248 -0.28403,0.00293 -0.55781,0.13623l0.26353,0.14063c0.27393,0.14648 0.32842,0.16553 0.52881,0.41309c0.60264,0.20361 2.61299,0.7002 3.26191,0.77344c0.3813,0.59326 0.76128,1.19531 1.09937,1.81348c2.01577,3.68994 4.26196,7.71094 6.91406,11.00537c-1.83647,-0.1084 -3.78413,-0.53174 -5.57666,-0.94775c-16.78887,-3.89795 -28.28115,-19.94824 -29.34185,-36.7749c-0.96372,-8.33936 1.6481,-18.05566 4.9667,-25.68018c0.92256,-2.11919 2.10337,-4.12236 2.99517,-6.21152c-1.20981,-2.46826 -2.42886,-10.396 -2.22612,-13.01938c-0.02065,-0.84785 0.01816,-1.36157 0.09155,-2.19009c0.1938,-1.80425 0.49585,-3.59517 0.90469,-5.36309c1.08706,-4.89946 6.23057,-14.28955 10.83867,-16.53281c1.99863,-1.96772 6.06855,-3.78647 8.71318,-4.60854c1.3106,-0.4084 2.53491,-0.76479 3.88989,-1.00679z" fill="url(#color-1)"/><path d="M122.33057,96.44736c2.28809,-0.3312 4.46953,-0.19277 6.7563,-0.05288c-2.59893,2.71567 -5.19976,5.3209 -7.41724,8.35649c-0.3605,0.49365 -0.82134,1.11533 -1.23003,1.56196c1.17803,0.50713 3.80039,0.04072 4.70508,1.07695c0.55078,0.17607 0.52866,0.17842 1.10273,0.1623l0.21401,0.04072l-2.28354,1.71562l-1.86094,1.55771c-5.03892,4.45078 -8.00552,7.36641 -12.55034,12.37866c-1.61528,2.1082 -8.26714,10.24102 -8.90347,12.25942c-0.6813,0.96562 -1.53794,2.40146 -2.05034,3.4667l-0.33501,0.47124c-1.20981,-2.46826 -2.42886,-10.396 -2.22612,-13.01938c-0.02065,-0.84785 0.01816,-1.36157 0.09155,-2.19009c0.1938,-1.80425 0.49585,-3.59517 0.90469,-5.36309c1.08706,-4.89946 6.23057,-14.28955 10.83867,-16.53281c1.99863,-1.96772 6.06855,-3.78647 8.71318,-4.60854c1.3106,-0.4084 2.53491,-0.76479 3.88989,-1.00679z" fill="#462605"/><path d="M122.33057,96.44736c2.28809,-0.3312 4.46953,-0.19277 6.7563,-0.05288c-2.59893,2.71567 -5.19976,5.3209 -7.41724,8.35649c-0.3605,0.49365 -0.82134,1.11533 -1.23003,1.56196c-1.21626,1.17744 -3.82339,0.18354 -6.52617,1.38647l-0.84551,0.22559c-4.60884,1.34385 -10.13921,3.45278 -12.91714,7.68076l-0.27554,-0.24404l-0.78691,1.04238c-0.34834,0.64497 -0.68027,1.27852 -1.06772,1.90166c-0.43403,0.11807 -0.35669,0.30278 -0.77271,0.56396c1.08706,-4.89946 6.23057,-14.28955 10.83867,-16.53281c1.99863,-1.96772 6.06855,-3.78647 8.71318,-4.60854c1.3106,-0.4084 2.53491,-0.76479 3.88989,-1.00679z" fill="#ebc463"/><path d="M122.33057,96.44736c2.28809,-0.3312 4.46953,-0.19277 6.7563,-0.05288c-2.59893,2.71567 -5.19976,5.3209 -7.41724,8.35649c-0.3605,0.49365 -0.82134,1.11533 -1.23003,1.56196c-1.21626,1.17744 -3.82339,0.18354 -6.52617,1.38647l-0.84551,0.22559c-0.10122,-0.01846 -0.27451,-0.09683 -0.37866,-0.13799c0.64204,-0.27876 0.40972,-0.06753 0.77388,-0.59341l-0.51416,-0.05654c0.41733,-0.37764 0.78633,-0.80566 1.09819,-1.27427c1.08149,-1.59346 1.8791,-3.07017 3.0728,-4.66714c0.94805,-1.26812 2.87051,-3.25239 3.56968,-4.47407z" fill="#fbeead"/><path d="M108.08657,102.33691c0.78911,-0.12202 2.49624,-1.52476 3.54668,-2.04053c-0.25283,0.5606 -0.67148,1.523 -1.06172,1.96333c-1.90356,2.14775 -4.04707,4.33301 -5.0061,7.10127c0.08159,0.21958 0.16318,0.43916 0.24478,0.65874c-1.40889,0.89604 -2.4731,1.6749 -3.72451,2.79565c-0.73433,0.82793 -1.52256,1.6875 -2.21045,2.54634l-0.78691,1.04238c-0.34834,0.64497 -0.68027,1.27852 -1.06772,1.90166c-0.43403,0.11807 -0.35669,0.30278 -0.77271,0.56396c1.08706,-4.89946 6.23057,-14.28955 10.83867,-16.53281z" fill="url(#color-2)"/><path d="M99.08833,116.4041c0.00044,-0.0186 0.00088,-0.03706 0.00117,-0.05552c-0.46919,-1.32422 1.49897,-3.55283 2.99619,-3.5332c-0.73433,0.82793 -1.52256,1.6875 -2.21045,2.54634z" fill="#9d6c24"/><path d="M108.08657,102.33691c1.99863,-1.96772 6.06855,-3.78647 8.71318,-4.60854c-1.11709,1.89346 -2.35137,3.17666 -3.64614,4.91792c-1.42837,1.92114 -2.5418,3.63311 -4.14565,5.43047c-0.72188,0.66372 -2.28281,1.44023 -3.19775,1.94297c-0.08159,-0.21958 -0.16318,-0.43916 -0.24478,-0.65874c0.95903,-2.76826 3.10254,-4.95352 5.0061,-7.10127c0.39023,-0.44033 0.80889,-1.40273 1.06172,-1.96333c-1.05044,0.51577 -2.75757,1.91851 -3.54668,2.04053z" fill="url(#color-3)"/><path d="M115.7168,109.25522c1.6002,-0.17417 7.14448,-0.53423 8.46108,0.05332l-1.86094,1.55771c-5.03892,4.45078 -8.00552,7.36641 -12.55034,12.37866c-0.29458,-2.49521 1.7978,-7.50483 3.023,-9.64482c0.55854,-0.97544 3.00352,-3.52881 2.9272,-4.34487z" fill="#000000"/><path d="M113.91343,107.69941c2.70278,-1.20293 5.30991,-0.20903 6.52617,-1.38647c1.17803,0.50713 3.80039,0.04072 4.70508,1.07695c0.55078,0.17607 0.52866,0.17842 1.10273,0.1623l0.21401,0.04072l-2.28354,1.71562c-1.3166,-0.58755 -6.86089,-0.22749 -8.46108,-0.05332c-8.36191,0.12393 -17.7627,6.38145 -18.98745,15.06694l-0.38613,-0.08936c0.1938,-1.80425 0.49585,-3.59517 0.90469,-5.36309c0.41602,-0.26118 0.33867,-0.4459 0.77271,-0.56396c0.38745,-0.62314 0.71938,-1.25669 1.06772,-1.90166l0.78691,-1.04238l0.27554,0.24404c2.77793,-4.22798 8.3083,-6.33691 12.91714,-7.68076z" fill="url(#color-4)"/><path d="M113.91343,107.69941c2.70278,-1.20293 5.30991,-0.20903 6.52617,-1.38647c1.17803,0.50713 3.80039,0.04072 4.70508,1.07695c-2.29878,-0.19922 -4.11313,-0.3394 -6.44927,-0.21753c-1.64561,0.08584 -3.22236,0.40122 -4.78198,0.52705z" fill="#ebc463"/><path d="M99.08833,116.4041l0.78691,-1.04238l0.27554,0.24404c-0.42114,0.62139 -1.50059,2.37803 -2.04229,2.69253l-0.08789,0.00747c0.38745,-0.62314 0.71938,-1.25669 1.06772,-1.90166z" fill="#cb9c46"/><path d="M96.34321,124.23281l0.38613,0.08936c-0.08877,0.57305 -0.18706,1.66392 -0.47769,2.10073c-0.02065,-0.84785 0.01816,-1.36157 0.09155,-2.19009z" fill="#6c4110"/><path d="M122.31694,110.86626c1.49312,1.02437 2.54678,3.67061 3.59224,5.06074c0.83013,1.10347 4.27559,5.03203 5.41187,5.16885c0.99126,-0.52295 1.17744,-1.08472 2.09341,-1.22007c0.82852,-0.60366 1.66831,-1.1915 2.51909,-1.76323c1.22754,-0.02109 2.79053,-2.5314 3.72729,-1.69233c0.62036,2.30581 -3.97793,3.13813 -4.25127,4.5334l-0.15747,0.15337c-1.09131,1.04692 -3.28652,2.52612 -4.53794,3.60967c-3.404,2.94712 -10.16646,9.79775 -12.27642,13.71182c-2.14556,1.21685 -5.00464,8.3606 -6.46567,10.45825c-0.03413,0.0498 -1.00225,-0.16699 -1.38721,-0.09229l-0.21724,-0.16406c-0.17739,-1.65967 4.84146,-8.46914 4.54893,-8.96851c-1.45664,2.1542 -4.42822,7.04956 -5.30991,9.44458l-0.63853,-0.1626c0.27598,-0.48193 0.57085,-1.16016 0.81504,-1.67725c-0.45967,-1.90723 -8.36367,-8.15713 -10.29507,-8.9814l-0.48047,0.73096l-0.19482,-0.04512c0.5124,-1.06523 1.36904,-2.50107 2.05034,-3.4667c0.63633,-2.01841 7.28818,-10.15122 8.90347,-12.25942c4.54482,-5.01226 7.51143,-7.92788 12.55034,-12.37866z" fill="url(#color-5)"/><path d="M135.93354,118.11255c1.22754,-0.02109 2.79053,-2.5314 3.72729,-1.69233c0.62036,2.30581 -3.97793,3.13813 -4.25127,4.5334l-0.15747,0.15337c-1.09131,1.04692 -3.28652,2.52612 -4.53794,3.60967c-3.404,2.94712 -10.16646,9.79775 -12.27642,13.71182c-2.14556,1.21685 -5.00464,8.3606 -6.46567,10.45825c-0.03413,0.0498 -1.00225,-0.16699 -1.38721,-0.09229l-0.21724,-0.16406c-0.17739,-1.65967 4.84146,-8.46914 4.54893,-8.96851c1.45313,-3.00073 8.31709,-10.53311 10.76323,-13.00708c2.19756,-2.20356 5.31577,-4.73745 7.73467,-6.779c0.82852,-0.60366 1.66831,-1.1915 2.51909,-1.76323z" fill="#cb9c46"/><path d="M100.86313,135.50435c-0.09536,0.70269 -0.48662,1.1707 -0.49468,1.65103c0.46787,0.1459 2.227,0.65596 2.56318,0.85269c2.68696,1.57192 6.50698,4.57485 7.72676,7.52344l-0.87524,1.73511c-0.45967,-1.90723 -8.36367,-8.15713 -10.29507,-8.9814l-0.48047,0.73096l-0.19482,-0.04512c0.5124,-1.06523 1.36904,-2.50107 2.05034,-3.4667z" fill="#cb9c46"/><path d="M110.6584,145.53149c3.28359,-5.84473 6.67266,-10.85962 11.2292,-15.83613c0.96636,-1.05542 2.15581,-2.39722 3.33413,-3.18867l0.45806,0.1481c-2.44614,2.47397 -9.31011,10.00635 -10.76323,13.00708c-1.45664,2.1542 -4.42822,7.04956 -5.30991,9.44458l-0.63853,-0.1626c0.27598,-0.48193 0.57085,-1.16016 0.81504,-1.67725z" fill="#f5e08f"/><path d="M107.88149,161.15479c0.56353,0.27246 1.34004,1.71533 1.72207,2.34082l0.39331,0.67822c1.24614,1.82373 2.36587,3.44238 3.71602,5.18408c0.35522,0.4834 0.86353,1.25244 1.31294,1.59961c1.20029,1.67432 6.90806,8.09912 8.50093,9.11572c1.17334,1.26563 2.72036,2.53857 4.06055,3.62842c1.94971,1.6084 4.72397,3.81885 6.88345,5.14307l1.25728,0.87305c0.61274,0.46289 2.23491,1.46924 2.59351,1.85449c-3.12202,0.81592 -6.30776,1.3623 -9.5228,1.63623c-5.7665,0.12744 -11.08403,0.09961 -16.68867,-1.74023c-0.08394,-0.30176 -1.61455,-2.47705 -1.91206,-3.03076c-0.36519,-0.67822 -0.92183,-1.74902 -1.29683,-2.4375c-3.29224,-8.77002 -3.15044,-15.85254 -1.01968,-24.84521z" fill="#000000"/><path d="M90.51592,171.33398c0.38818,0.4585 1.09058,3.20508 1.29375,3.99902c0.39932,1.56006 3.11396,7.42529 4.21597,8.14307c0.93706,0.17139 1.61777,1.45313 2.36719,1.99805c0.49395,1.86328 8.9165,6.95361 10.75283,7.62451c0.86675,0.31494 4.26826,1.28174 4.77891,1.67578c-0.31875,0.04248 -0.28403,0.00293 -0.55781,0.13623l0.26353,0.14063c0.27393,0.14648 0.32842,0.16553 0.52881,0.41309c0.60264,0.20361 2.61299,0.7002 3.26191,0.77344c0.3813,0.59326 0.76128,1.19531 1.09937,1.81348c2.01577,3.68994 4.26196,7.71094 6.91406,11.00537c-1.83647,-0.1084 -3.78413,-0.53174 -5.57666,-0.94775c-16.78887,-3.89795 -28.28115,-19.94824 -29.34185,-36.7749z" fill="url(#color-6)"/><path d="M96.02563,183.47607c0.93706,0.17139 1.61777,1.45313 2.36719,1.99805c0.49395,1.86328 8.9165,6.95361 10.75283,7.62451c0.86675,0.31494 4.26826,1.28174 4.77891,1.67578c-0.31875,0.04248 -0.28403,0.00293 -0.55781,0.13623l0.26353,0.14063c0.27393,0.14648 0.32842,0.16553 0.52881,0.41309c-1.15825,-0.18311 -3.00059,-0.83936 -4.10684,-1.27734c-6.14502,-2.43896 -9.9189,-5.72607 -14.02661,-10.71094z" fill="#ebc463"/><path d="M114.91655,139.66187c0.29253,0.49937 -4.72632,7.30884 -4.54893,8.96851l0.21724,0.16406c0.38496,-0.07471 1.35308,0.14209 1.38721,0.09229c1.46104,-2.09766 4.32012,-9.24141 6.46567,-10.45825c-1.15312,1.69482 -3.05449,4.44565 -3.88638,6.28301c0.3334,0.71821 1.33594,2.7353 1.55405,3.3769c-0.46685,0.16406 -0.43184,0.15527 -0.74136,0.54785c-0.1875,0.6958 -0.05742,0.91992 0.17358,1.59521c1.03535,1.9834 2.10366,3.94922 3.20464,5.896c-1.53516,1.85596 -5.22686,10.82373 -5.02939,13.23047c-1.35015,-1.7417 -2.46987,-3.36035 -3.71602,-5.18408l-0.39331,-0.67822c-0.38203,-0.62549 -1.15854,-2.06836 -1.72207,-2.34082c-2.13076,8.99268 -2.27256,16.0752 1.01968,24.84521c0.06372,0.49805 0.22896,0.77637 0.2269,1.3125c-1.42192,-0.89209 -3.50493,-7.18506 -4.72148,-8.6543c-1.10991,-2.7583 -1.29053,-11.62207 -0.46216,-14.47559l0.12656,0.27832c0.42964,-1.68164 0.67573,-3.56689 1.11987,-5.24854c0.91172,-3.45557 2.23491,-7.0459 3.77725,-10.26855l0.63853,0.1626c0.88169,-2.39502 3.85327,-7.29038 5.30991,-9.44458z" fill="#6c4110"/><path d="M109.99687,164.17383c-0.07515,-2.17529 1.15034,-3.96094 1.79414,-5.89453c0.73213,-2.2002 1.15884,-4.0459 2.49155,-6.02637c0.47021,-0.69727 0.62461,-1.33447 1.25508,-2.02148c1.03535,1.9834 2.10366,3.94922 3.20464,5.896c-1.53516,1.85596 -5.22686,10.82373 -5.02939,13.23047c-1.35015,-1.7417 -2.46987,-3.36035 -3.71602,-5.18408z" fill="url(#color-7)"/><path d="M113.77734,146.21807c0.29048,-0.52383 0.51812,-0.96504 0.77402,-1.50659c0.3334,0.71821 1.33594,2.7353 1.55405,3.3769c-0.46685,0.16406 -0.43184,0.15527 -0.74136,0.54785c-0.1875,0.6958 -0.05742,0.91992 0.17358,1.59521c-0.63047,0.68701 -0.78486,1.32422 -1.25508,2.02148c-1.33271,1.98047 -1.75942,3.82617 -2.49155,6.02637c-0.6438,1.93359 -1.86929,3.71924 -1.79414,5.89453l-0.39331,-0.67822c-0.38203,-0.62549 -1.15854,-2.06836 -1.72207,-2.34082c0.22354,-0.95215 0.53584,-1.77393 0.74165,-2.77148c1.27119,-4.48828 2.98271,-8.08594 5.1542,-12.16523z" fill="#462605"/><path d="M113.77734,146.21807c0.29048,-0.52383 0.51812,-0.96504 0.77402,-1.50659c0.3334,0.71821 1.33594,2.7353 1.55405,3.3769c-0.46685,0.16406 -0.43184,0.15527 -0.74136,0.54785c-0.1875,0.6958 -0.05742,0.91992 0.17358,1.59521c-0.63047,0.68701 -0.78486,1.32422 -1.25508,2.02148c-1.33271,1.98047 -1.75942,3.82617 -2.49155,6.02637c-0.6438,1.93359 -1.86929,3.71924 -1.79414,5.89453l-0.39331,-0.67822c0.2666,-0.56104 0.56675,-1.54248 0.72993,-2.16357c1.11504,-4.24365 2.85073,-8.05664 4.65176,-12.04102c-0.52617,-1.0708 -0.8187,-1.94678 -1.20791,-3.07295z" fill="#6c4110"/><path d="M114.91655,139.66187c0.29253,0.49937 -4.72632,7.30884 -4.54893,8.96851l0.21724,0.16406c0.38496,-0.07471 1.35308,0.14209 1.38721,0.09229c1.46104,-2.09766 4.32012,-9.24141 6.46567,-10.45825c-1.15312,1.69482 -3.05449,4.44565 -3.88638,6.28301c-0.25591,0.54155 -0.48354,0.98276 -0.77402,1.50659c-2.17148,4.0793 -3.88301,7.67695 -5.1542,12.16523c-0.40767,-1.92041 2.76064,-5.66895 1.48843,-6.9873c-0.55488,-0.17432 -0.5231,-0.17285 -1.09497,-0.07178c-0.7897,0.58447 -2.27432,6.58008 -2.99517,7.51318c0.34746,-2.26318 2.60815,-7.53076 3.58521,-9.73096c0.88169,-2.39502 3.85327,-7.29038 5.30991,-9.44458z" fill="#9d6c24"/><path d="M108.96812,148.94385l0.63853,0.1626c-0.97705,2.2002 -3.23774,7.46777 -3.58521,9.73096c-1.41519,3.84961 -2.13267,9.56543 -2.04712,13.59521c0.01714,0.80713 0.41426,3.95654 0.32402,4.27002c-0.80889,-3.19482 -0.66797,-9.03955 -0.22734,-12.2417c0.42964,-1.68164 0.67573,-3.56689 1.11987,-5.24854c0.91172,-3.45557 2.23491,-7.0459 3.77725,-10.26855z" fill="#cb9c46"/><path d="M91.46807,171.78223c-0.01553,-1.30664 -0.57773,-3.23877 -0.7478,-4.66406c2.93452,4.41357 5.24575,6.82031 9.93472,9.66797c1.26079,0.76611 2.61226,1.23779 3.75161,1.87207c1.21655,1.46924 3.29956,7.76221 4.72148,8.6543c0.00205,-0.53613 -0.16318,-0.81445 -0.2269,-1.3125c0.375,0.68848 0.93164,1.75928 1.29683,2.4375c0.29751,0.55371 1.82813,2.729 1.91206,3.03076c-7.59185,-2.06982 -14.55161,-7.06348 -18.23716,-14.09473c-0.94277,-1.80029 -1.66597,-3.70166 -2.40483,-5.59131z" fill="url(#color-8)"/><path d="M91.46807,171.78223c0.73887,1.88965 1.46206,3.79102 2.40483,5.59131c3.68555,7.03125 10.64531,12.0249 18.23716,14.09473c5.60464,1.83984 10.92217,1.86768 16.68867,1.74023c-0.5625,0.28418 -0.66299,0.19922 -0.80918,0.74414c-0.15059,0.55518 -0.17007,1.13818 -0.05713,1.70215c0.35801,0.3457 0.64878,0.16992 1.28628,0.30908c-6.08335,0.59473 -9.49043,0.0249 -15.29414,-1.18945c-0.51064,-0.39404 -3.91216,-1.36084 -4.77891,-1.67578c-1.83633,-0.6709 -10.25889,-5.76123 -10.75283,-7.62451l0.18662,0.03369c3.31597,3.34277 7.27617,5.97803 11.64053,7.74463c0.72275,0.29883 1.75239,0.77344 2.51323,0.8042c0.29268,-0.18457 0.96196,-1.44287 1.25991,-1.89111c-7.6396,-1.36084 -16.37856,-7.03857 -19.98545,-14.13867c-0.56719,-1.11621 -2.7022,-5.29102 -2.5396,-6.24463z" fill="url(#color-9)"/><path d="M168.86572,91.09263c2.09766,-0.22705 4.00928,0.03633 6.08936,0.16406c1.25537,2.49565 2.80664,4.63696 4.25098,7.00269c1.04004,1.70347 1.87061,3.70708 2.97217,5.38315c0.14941,0.22705 0.09814,0.14414 0.2124,0.44033c-0.78516,-0.10605 -1.57178,-0.1938 -2.36133,-0.26309l-0.05566,0.34658l0.22412,0.24038l-0.04687,0.12627c1.41357,0.26968 3.57568,0.646 4.89111,1.04736c1.03418,0.19028 1.43408,0.30439 2.42871,0.65215c-1.28613,0.15747 -1.39014,0.71733 -1.76514,1.8895l0.10107,0.09551l-0.17432,0.1188l-3.89062,-0.72144c-7.49854,-0.85649 -12.58447,-0.47314 -19.89551,1.14595c0.55225,0.69653 1.69189,1.19941 2.46533,1.86035c3.30176,2.23506 5.1416,3.59209 8.20605,6.07603c-1.96143,0.35508 -5.94287,1.82109 -7.81934,2.77383c-1.48096,1.39863 -2.25439,1.88306 -3.52881,3.5959l-1.42676,-0.99653c-1.12939,-0.80229 -2.20166,-1.50264 -3.36328,-2.2519c-2.37305,-1.42192 -4.45459,-2.51675 -6.86719,-3.80537l-0.0791,0.00718c-0.7207,-0.58462 -2.69824,-0.86206 -3.25488,-1.53193c-0.7623,0.36914 -1.44185,0.71001 -2.18613,1.11548c-3.65698,1.84937 -5.4583,3.50713 -8.58252,5.34976c0.27334,-1.39526 4.87163,-2.22759 4.25127,-4.5334c-0.93677,-0.83906 -2.49976,1.67124 -3.72729,1.69233c-0.85078,0.57173 -1.69058,1.15957 -2.51909,1.76323c-0.91597,0.13535 -1.10215,0.69712 -2.09341,1.22007c-1.13628,-0.13682 -4.58174,-4.06538 -5.41187,-5.16885c-1.04546,-1.39014 -2.09912,-4.03638 -3.59224,-5.06074l1.86094,-1.55771l2.28354,-1.71562l-0.21401,-0.04072c-0.57407,0.01611 -0.55195,0.01377 -1.10273,-0.1623c-0.90469,-1.03623 -3.52705,-0.56982 -4.70508,-1.07695c0.40869,-0.44663 0.86953,-1.06831 1.23003,-1.56196c2.21748,-3.0356 4.81831,-5.64082 7.41724,-8.35649c2.31035,0.10649 5.70879,0.84771 8.01504,1.51157c0.77666,0.22295 2.84722,0.76553 3.49512,1.05498c0.53452,-0.25532 0.90938,-0.45132 1.47334,-0.62476c0.78794,-0.53672 3.23408,-1.58042 4.22314,-1.99526c6.26997,-2.62939 15.72847,-5.30361 22.57222,-5.24839z" fill="url(#color-10)"/><path d="M168.86572,91.09263c2.09766,-0.22705 4.00928,0.03633 6.08936,0.16406c1.25537,2.49565 2.80664,4.63696 4.25098,7.00269c1.04004,1.70347 1.87061,3.70708 2.97217,5.38315c0.14941,0.22705 0.09814,0.14414 0.2124,0.44033c-0.78516,-0.10605 -1.57178,-0.1938 -2.36133,-0.26309c-1.01221,-0.15425 -2.2251,-0.20977 -3.26367,-0.28271c-8.8623,-0.06138 -15.30176,1.0686 -23.66748,4.22827c-1.42236,0.53701 -5.66455,2.79097 -6.68965,2.87915c0.63691,-0.38218 4.11445,-1.87163 4.19355,-1.9374c-0.12305,-1.52856 -5.86875,-8.85718 -7.28145,-10.57573c-0.36226,0.07939 -0.60894,0.13403 -0.97837,0.17563l-0.27187,0.0293c0.78794,-0.53672 3.23408,-1.58042 4.22314,-1.99526c6.26997,-2.62939 15.72847,-5.30361 22.57222,-5.24839z" fill="url(#color-11)"/><path d="M168.86572,91.09263c2.09766,-0.22705 4.00928,0.03633 6.08936,0.16406c1.25537,2.49565 2.80664,4.63696 4.25098,7.00269c1.04004,1.70347 1.87061,3.70708 2.97217,5.38315c0.14941,0.22705 0.09814,0.14414 0.2124,0.44033c-0.78516,-0.10605 -1.57178,-0.1938 -2.36133,-0.26309c-1.01221,-0.15425 -2.2251,-0.20977 -3.26367,-0.28271l0.51123,-0.14648c0.30322,-0.34746 0.04834,-2.95444 0.04395,-3.75557c-0.47021,-0.5335 -1.02686,-0.95508 -1.56738,-1.41899c-1.81641,-1.56079 -2.12842,-3.80903 -1.83105,-6.10195c0.39111,-0.11704 0.3457,-0.23101 0.63721,-0.67632c-1.77832,-0.04263 -3.92578,-0.19263 -5.69385,-0.34512z" fill="#9d6c24"/><path d="M135.93354,118.11255l0.07939,-0.17944c2.21118,-1.59536 4.67432,-3.12085 7.06479,-4.43408c1.20952,-0.66431 2.96675,-1.88643 4.13906,-2.44087c8.44189,-3.99492 16.92334,-6.76011 26.33203,-7.00137c1.54834,-0.0397 4.96582,0.33809 6.60205,0.47622c1.41357,0.26968 3.57568,0.646 4.89111,1.04736c1.03418,0.19028 1.43408,0.30439 2.42871,0.65215c-1.28613,0.15747 -1.39014,0.71733 -1.76514,1.8895l0.10107,0.09551l-0.17432,0.1188l-3.89062,-0.72144c-7.49854,-0.85649 -12.58447,-0.47314 -19.89551,1.14595c0.55225,0.69653 1.69189,1.19941 2.46533,1.86035c3.30176,2.23506 5.1416,3.59209 8.20605,6.07603c-1.96143,0.35508 -5.94287,1.82109 -7.81934,2.77383c-1.48096,1.39863 -2.25439,1.88306 -3.52881,3.5959l-1.42676,-0.99653c-1.12939,-0.80229 -2.20166,-1.50264 -3.36328,-2.2519c-2.37305,-1.42192 -4.45459,-2.51675 -6.86719,-3.80537l-0.0791,0.00718c-0.7207,-0.58462 -2.69824,-0.86206 -3.25488,-1.53193c-0.7623,0.36914 -1.44185,0.71001 -2.18613,1.11548c-3.65698,1.84937 -5.4583,3.50713 -8.58252,5.34976c0.27334,-1.39526 4.87163,-2.22759 4.25127,-4.5334c-0.93677,-0.83906 -2.49976,1.67124 -3.72729,1.69233z" fill="url(#color-12)"/><path d="M164.31152,110.62119c3.30176,2.23506 5.1416,3.59209 8.20605,6.07603c-1.96143,0.35508 -5.94287,1.82109 -7.81934,2.77383c-1.48096,1.39863 -2.25439,1.88306 -3.52881,3.5959l-1.42676,-0.99653c-1.12939,-0.80229 -2.20166,-1.50264 -3.36328,-2.2519c-2.37305,-1.42192 -4.45459,-2.51675 -6.86719,-3.80537c1.3125,-1.50571 12.54199,-4.79854 14.79932,-5.39194z" fill="url(#color-13)"/><path d="M159.74268,122.07041c1.63037,-0.93911 3.20508,-1.90957 4.95557,-2.59937c-1.48096,1.39863 -2.25439,1.88306 -3.52881,3.5959z" fill="#cb9c46"/><path d="M146.17822,114.48838c4.39893,-2.53008 10.74756,-4.56167 15.66797,-5.72754c0.55225,0.69653 1.69189,1.19941 2.46533,1.86035c-2.25732,0.59341 -13.48682,3.88623 -14.79932,5.39194l-0.0791,0.00718c-0.7207,-0.58462 -2.69824,-0.86206 -3.25488,-1.53193z" fill="#3a1b00"/><path d="M181.7417,107.61489c1.19531,-0.43506 1.99805,0.41616 2.79053,0.11499c0.44824,-0.52749 0.62109,-1.19619 0.85986,-1.86226l-0.36182,-0.12671l0.01172,-0.16055c1.03418,0.19028 1.43408,0.30439 2.42871,0.65215c-1.28613,0.15747 -1.39014,0.71733 -1.76514,1.8895l0.10107,0.09551l-0.17432,0.1188z" fill="#cb9c46"/><path d="M129.08687,96.39448c2.31035,0.10649 5.70879,0.84771 8.01504,1.51157c0.77666,0.22295 2.84722,0.76553 3.49512,1.05498c-5.84619,2.92808 -8.85732,5.07319 -14.1356,8.63188l-0.21401,-0.04072c-0.57407,0.01611 -0.55195,0.01377 -1.10273,-0.1623c-0.90469,-1.03623 -3.52705,-0.56982 -4.70508,-1.07695c0.40869,-0.44663 0.86953,-1.06831 1.23003,-1.56196c2.21748,-3.0356 4.81831,-5.64082 7.41724,-8.35649z" fill="url(#color-14)"/><path d="M137.1019,97.90605c0.77666,0.22295 2.84722,0.76553 3.49512,1.05498c-5.84619,2.92808 -8.85732,5.07319 -14.1356,8.63188l-0.21401,-0.04072c-0.10649,-0.94731 -0.76069,-0.17461 -1.24028,-0.98833c0.34907,-1.37959 10.23047,-7.42603 12.09478,-8.65781z" fill="#6c4110"/><path d="M161.84619,108.76084c7.31104,-1.61909 12.39697,-2.00244 19.89551,-1.14595l3.89063,0.72144c0.6665,0.18354 1.68164,0.42949 2.29248,0.68423c0.375,0.69536 2.07422,3.52295 2.55176,4.05762c1.54834,-0.27231 4.02832,6.53892 4.66846,7.89346c0.2915,1.04648 0.74121,2.52642 0.80713,3.59722l-0.2915,0.11045c1.15723,5.82773 -0.85107,15.04688 -2.82715,20.65195c-0.28564,-0.34731 0.88916,-3.07749 0.97998,-3.63208c0.14063,-0.84595 0.92285,-1.83794 0.23438,-2.54458c-0.56543,0.07632 -0.94482,0.06357 -1.51904,0.06064c-0.55371,1.44272 -1.10156,4.74419 -2.01123,5.85791c-1.77539,4.07285 -2.78906,6.72568 -5.00391,10.73643c-0.48926,-1.10449 -0.96387,-2.21777 -1.42236,-3.33545c0.38525,-0.60059 0.63281,-1.0752 0.95801,-1.70068c-0.70752,-1.53809 -2.14453,-4.09863 -3.08057,-5.44175c-0.17725,-0.33999 -0.34863,-0.68262 -0.51562,-1.02788c1.58936,-1.87617 4.49854,-10.35981 5.09033,-12.97427c-1.00928,-1.40947 -3.35742,-4.3292 -4.57178,-5.49023c-0.84082,-1.17524 -3.46729,-3.90161 -4.5835,-4.72397c-0.9126,-1.10874 -3.73975,-3.45981 -4.87061,-4.41812c-3.06445,-2.48394 -4.9043,-3.84097 -8.20605,-6.07603c-0.77344,-0.66094 -1.91309,-1.16382 -2.46533,-1.86035z" fill="#000000"/><path d="M186.54346,131.32954c1.13086,1.54937 2.87549,3.90835 3.79395,5.55732c0.36328,0.57979 1.40039,2.31123 1.78418,2.73604c-0.44385,1.49575 -1.27441,3.98599 -1.604,5.45024c-1.77539,4.07285 -2.78906,6.72568 -5.00391,10.73643c-0.48926,-1.10449 -0.96387,-2.21777 -1.42236,-3.33545c0.38525,-0.60059 0.63281,-1.0752 0.95801,-1.70068c-0.70752,-1.53809 -2.14453,-4.09863 -3.08057,-5.44175c-0.17725,-0.33999 -0.34863,-0.68262 -0.51562,-1.02788c1.58936,-1.87617 4.49854,-10.35981 5.09033,-12.97427z" fill="url(#color-15)"/><path d="M190.3374,136.88687c0.36328,0.57979 1.40039,2.31123 1.78418,2.73604c-0.44385,1.49575 -1.27441,3.98599 -1.604,5.45024c-1.77539,4.07285 -2.78906,6.72568 -5.00391,10.73643c-0.48926,-1.10449 -0.96387,-2.21777 -1.42236,-3.33545c0.38525,-0.60059 0.63281,-1.0752 0.95801,-1.70068c1.71387,-2.74512 4.68457,-10.71284 5.28809,-13.88657z" fill="#462605"/><path d="M190.47656,113.07817c1.54834,-0.27231 4.02832,6.53892 4.66846,7.89346c0.2915,1.04648 0.74121,2.52642 0.80713,3.59722l-0.2915,0.11045c1.15723,5.82773 -0.85107,15.04688 -2.82715,20.65195c-0.28564,-0.34731 0.88916,-3.07749 0.97998,-3.63208c0.14063,-0.84595 0.92285,-1.83794 0.23438,-2.54458c-0.56543,0.07632 -0.94482,0.06357 -1.51904,0.06064c-0.55371,1.44272 -1.10156,4.74419 -2.01123,5.85791c0.32959,-1.46426 1.16016,-3.95449 1.604,-5.45024c1.72119,-5.8355 2.05078,-14.40571 0.646,-20.23213c-0.57861,-2.40249 -1.28613,-4.11021 -2.29102,-6.3126z" fill="url(#color-16)"/><path d="M195.14502,120.97163c0.2915,1.04648 0.74121,2.52642 0.80713,3.59722l-0.2915,0.11045c-0.22559,-0.53057 -0.47607,-3.07471 -0.51562,-3.70767z" fill="#9d6c24"/><path d="M164.69824,119.47104c1.87646,-0.95273 5.85791,-2.41875 7.81934,-2.77383c1.13086,0.9583 3.95801,3.30937 4.87061,4.41812c1.11621,0.82236 3.74268,3.54873 4.5835,4.72397c1.21436,1.16104 3.5625,4.08076 4.57178,5.49023c-0.5918,2.61445 -3.50098,11.0981 -5.09033,12.97427l-0.19629,-0.16318c-0.59912,-0.90791 -2.47266,-3.77505 -3.14502,-4.41797c-0.25195,0.74224 -0.40869,0.74121 -1.15723,0.91831c-4.74023,-6.30088 -8.98828,-10.20791 -15.05566,-15.07485l0.02051,-0.18882c-0.2666,-0.45103 -1.25684,-1.01396 -1.76953,-1.42222c-0.13916,-0.49878 -0.1333,-0.24697 0.03809,-0.78003c0.89355,-0.33384 1.37109,0.97075 2.27197,0.93999c-0.11719,-0.22178 -1.02393,-0.84858 -1.29053,-1.0481c1.27441,-1.71284 2.04785,-2.19727 3.52881,-3.5959z" fill="#f5e08f"/><path d="M181.97168,125.83931c1.21436,1.16104 3.5625,4.08076 4.57178,5.49023c-0.5918,2.61445 -3.50098,11.0981 -5.09033,12.97427l-0.19629,-0.16318c-0.59912,-0.90791 -2.47266,-3.77505 -3.14502,-4.41797c-1.30664,-1.81978 -2.625,-3.39097 -4.02979,-5.13047c0.41455,0.20757 0.80859,0.66431 1.14844,1.00869c2.29688,-2.11553 5.80371,-5.93716 7.57764,-8.50664c-0.54053,-0.52544 -0.63574,-0.56206 -0.83643,-1.25493z" fill="url(#color-17)"/><path d="M164.69824,119.47104c1.87646,-0.95273 5.85791,-2.41875 7.81934,-2.77383c1.13086,0.9583 3.95801,3.30937 4.87061,4.41812c-0.68262,-0.15894 -0.70752,-0.29033 -1.22461,-0.79409c-0.25781,-0.24683 -0.51416,-0.49526 -0.77051,-0.74502c-1.24658,1.24365 -2.11084,2.73003 -3.20508,4.07036c-1.30664,1.59932 -2.66602,3.30674 -4.01221,4.8627c0.61377,0.59648 1.32568,1.20996 1.7373,1.95029c-1.91455,-1.37476 -5.03027,-5.05225 -7.45312,-6.34453c-0.11719,-0.22178 -1.02393,-0.84858 -1.29053,-1.0481c1.27441,-1.71284 2.04785,-2.19727 3.52881,-3.5959z" fill="url(#color-18)"/><path d="M118.74229,156.12744c0.20742,0.29297 0.47681,0.65186 0.66768,0.94482l0.23423,-0.01318c0.62812,0.75439 2.33174,3.54199 2.72637,3.88184c1.2394,2.17383 4.23677,5.90479 6.02388,7.72705c0.87935,0.89795 2.31475,1.68311 3.2603,2.80371c0.80508,0.73682 1.52476,1.37695 2.3688,2.06689c0.95977,1.11182 4.95234,3.93164 6.28037,4.85303c-1.56138,0.63281 -3.18926,1.8208 -4.73643,2.46826c-1.64546,0.6709 -3.30937,1.29346 -4.9897,1.87207c-0.78003,0.25928 -2.33364,0.69434 -2.99048,0.96973c-1.34019,-1.08984 -2.88721,-2.36279 -4.06055,-3.62842c-1.59287,-1.0166 -7.30063,-7.44141 -8.50093,-9.11572c-0.44941,-0.34717 -0.95771,-1.11621 -1.31294,-1.59961c-0.19746,-2.40674 3.49424,-11.37451 5.02939,-13.23047z" fill="url(#color-19)"/><path d="M133.53296,173.61768c-0.69829,-0.71924 -1.36919,-1.35791 -2.10088,-2.04492l0.22266,-0.10107c0.80508,0.73682 1.52476,1.37695 2.3688,2.06689c0.95977,1.11182 4.95234,3.93164 6.28037,4.85303c-1.56138,0.63281 -3.18926,1.8208 -4.73643,2.46826c-1.64546,0.6709 -3.30937,1.29346 -4.9897,1.87207c-0.78003,0.25928 -2.33364,0.69434 -2.99048,0.96973c-1.34019,-1.08984 -2.88721,-2.36279 -4.06055,-3.62842c0.75176,0.10986 2.36646,1.83105 2.99136,2.44336c1.39014,-2.93555 4.49634,-6.90967 7.01484,-8.89893z" fill="url(#color-20)"/><path d="M118.74229,156.12744c0.20742,0.29297 0.47681,0.65186 0.66768,0.94482c0.43213,0.66504 0.84126,1.29053 1.23911,1.97754l-0.06401,0.12744l-0.45293,-0.49951c-0.38467,0.17725 -2.05269,3.75879 -2.72549,4.62744c-1.03242,1.33154 -1.42734,1.51172 -2.71538,2.56494c-0.74692,2.19873 -0.99727,2.81396 0.37632,4.82959l-0.04175,0.25781c-0.44941,-0.34717 -0.95771,-1.11621 -1.31294,-1.59961c-0.19746,-2.40674 3.49424,-11.37451 5.02939,-13.23047z" fill="#cb9c46"/><path d="M121.23501,157.14844c4.73335,6.54492 9.33091,11.85059 15.79072,16.81055c-0.18838,0.41016 -0.57788,0.7251 -0.90981,1.04883c-0.50596,-0.42187 -1.54644,-1.42529 -2.09238,-1.46924c-0.84404,-0.68994 -1.56372,-1.33008 -2.3688,-2.06689c-0.94556,-1.12061 -2.38096,-1.90576 -3.2603,-2.80371c-1.78711,-1.82227 -4.78447,-5.55322 -6.02388,-7.72705c0.18618,-0.18896 0.33076,-0.36328 0.50537,-0.56396c0.10122,-0.97266 -1.20132,-1.93799 -1.74858,-3.02197z" fill="url(#color-21)"/><path d="M134.02354,173.53857c0.54595,0.04395 1.58643,1.04736 2.09238,1.46924c0.33193,-0.32373 0.72144,-0.63867 0.90981,-1.04883c4.26533,3.30615 8.87183,6.14795 13.74038,8.47559c-0.33398,0.65039 -0.79102,0.92285 -1.36963,1.38135c-0.72949,-0.35303 -1.45605,-0.71338 -2.17676,-1.08252c-1.45298,-1.0957 -5.03306,-3.05127 -6.91582,-4.3418c-1.32803,-0.92139 -5.32061,-3.74121 -6.28037,-4.85303z" fill="url(#color-22)"/><path d="M115.53765,150.23145c-0.23101,-0.67529 -0.36108,-0.89941 -0.17358,-1.59521c0.30952,-0.39258 0.27451,-0.38379 0.74136,-0.54785c1.10859,3.02637 3.5811,6.28711 5.12959,9.06006l-0.10767,0.20654c0.54727,1.08398 1.8498,2.04932 1.74858,3.02197c-0.17461,0.20068 -0.31919,0.375 -0.50537,0.56396c-0.39463,-0.33984 -2.09824,-3.12744 -2.72637,-3.88184l-0.23423,0.01318c-0.19087,-0.29297 -0.46025,-0.65186 -0.66768,-0.94482c-1.10098,-1.94678 -2.16929,-3.9126 -3.20464,-5.896z" fill="#cb9c46"/><path d="M149.51221,116.01313c2.4126,1.28862 4.49414,2.38345 6.86719,3.80537c-0.37354,0.51738 -0.78516,0.93135 -0.79687,1.54512c-2.84912,-1.60811 -5.13574,-2.83975 -8.11963,-4.23047l1.97021,-1.11284z" fill="url(#color-23)"/><path d="M181.25684,144.14063l0.19629,0.16318c0.16699,0.34526 0.33838,0.68789 0.51563,1.02788c0.93604,1.34312 2.37305,3.90366 3.08057,5.44175c-0.3252,0.62549 -0.57275,1.1001 -0.95801,1.70068c-0.854,-2.06543 -2.31152,-4.47217 -3.43799,-6.42319l-0.27539,-0.43066c0.6167,-0.55239 0.61084,-0.66855 0.87891,-1.47964z" fill="url(#color-24)"/><path d="M181.25684,144.14063l0.19629,0.16318c0.16699,0.34526 0.33838,0.68789 0.51563,1.02788c0.00146,0.63589 0.08643,0.35288 -0.26367,0.88066c-0.5918,0.18296 -0.49658,0.1689 -1.05176,-0.16143l-0.27539,-0.43066c0.6167,-0.55239 0.61084,-0.66855 0.87891,-1.47964z" fill="#cb9c46"/><path d="M150.76611,182.43457l1.70654,0.78369c1.11182,0.46875 2.3877,0.96826 3.43506,1.53955l-0.45557,0.30469l-1.78711,0.88916c-0.56104,-0.43506 -2.32031,-1.17187 -3.03516,-1.48682c-0.54199,0.36621 -0.74854,0.41602 -1.37549,0.646c0.28271,-0.20654 0.49072,-0.34131 0.73535,-0.5918l-0.2417,-0.4541l-0.35156,-0.24902c0.57861,-0.4585 1.03564,-0.73096 1.36963,-1.38135z" fill="#462605"/><path d="M150.76611,182.43457l1.70654,0.78369c-0.6167,0.45117 -1.15283,0.93604 -1.87793,1.11182c-0.42187,-0.08496 -0.4541,-0.09375 -0.84668,-0.26514l-0.35156,-0.24902c0.57861,-0.4585 1.03564,-0.73096 1.36963,-1.38135z" fill="#9d6c24"/><path d="M156.37939,119.81851c1.16162,0.74927 2.23389,1.44961 3.36328,2.2519l1.42676,0.99653c0.2666,0.19951 1.17334,0.82632 1.29053,1.0481c-0.90088,0.03076 -1.37842,-1.27383 -2.27197,-0.93999c-0.17139,0.53306 -0.17725,0.28125 -0.03809,0.78003c0.5127,0.40825 1.50293,0.97119 1.76953,1.42222l-0.02051,0.18882c-2.12842,-1.3563 -4.11475,-2.82715 -6.31641,-4.20249c0.01172,-0.61377 0.42334,-1.02773 0.79688,-1.54512z" fill="url(#color-25)"/><path d="M178.11182,139.72266c0.67236,0.64292 2.5459,3.51006 3.14502,4.41797c-0.26807,0.81108 -0.26221,0.92725 -0.87891,1.47964c-1.14258,-1.73833 -2.19873,-3.30015 -3.42334,-4.9793c0.74854,-0.1771 0.90527,-0.17607 1.15723,-0.91831z" fill="#cb9c46"/><path d="M143.99209,115.60386c0.74429,-0.40547 1.42383,-0.74634 2.18613,-1.11548c0.55664,0.66987 2.53418,0.94731 3.25488,1.53193l-1.97021,1.11284c-0.97266,-0.39932 -2.61885,-1.01909 -3.4708,-1.5293z" fill="#6c4110"/><path d="M145.93623,158.71143c-2.78745,2.88281 -8.24604,2.58105 -11.11011,-0.06299c-1.73159,-1.61572 -2.73354,-3.86572 -2.77632,-6.23291c-0.02754,-2.31006 0.89092,-4.5293 2.54209,-6.14502c1.65586,-1.61001 3.82588,-2.35576 6.11147,-2.30361c1.42002,0.03237 3.64819,0.48853 4.62422,1.53867c1.3311,0.77563 2.36675,1.94268 3.37749,3.09258c-1.10449,1.10742 -1.90283,1.87939 -3.11704,2.89453c-0.77021,-1.13818 -1.11973,-1.63184 -2.05591,-2.63818c-1.69175,-0.93018 -2.35679,-1.45166 -4.45386,-0.87451c-4.06304,1.11914 -4.13892,6.87891 -0.48457,8.56494c3.43008,1.46045 5.0209,-1.08398 7.12632,-2.82422c-0.2083,0.84961 -1.42339,1.81641 -2.10703,2.44336l0.0561,0.13184c0.29106,0.70166 0.73521,2.45361 1.0916,2.77881c0.76245,-0.04687 0.39141,-0.33691 1.17554,-0.36328z" fill="url(#color-26)"/><path d="M143.53213,148.85449l0.05596,-0.2417c-0.10342,-0.07617 -0.20684,-0.15088 -0.31025,-0.22705c-0.11396,-0.85547 1.05615,-2.16943 1.22944,-3.12144c0.55679,0.32139 0.28403,0.28989 0.82031,0.24126c1.3311,0.77563 2.36675,1.94268 3.37749,3.09258c-1.10449,1.10742 -1.90283,1.87939 -3.11704,2.89453c-0.77021,-1.13818 -1.11973,-1.63184 -2.05591,-2.63818z" fill="#f5e08f"/><path d="M145.72002,153.7207c0.70078,-0.91406 3.0876,-3.03955 3.99434,-3.89648c2.13721,-2.01709 4.8501,-5.15435 7.82373,-5.68374c3.79248,0.14619 2.82422,-0.24829 6.31348,1.2832c-0.00293,1.38589 0.03809,2.58999 -0.20947,3.96255c-0.39258,0.07031 -0.46582,-0.1582 -0.90088,-0.3252c-2.22656,-1.51611 -3.86279,-1.84424 -6.26953,-0.22705c-1.5249,1.02539 -2.65137,2.61182 -4.01221,3.71191c-1.95996,1.5835 -4.59229,4.8501 -6.52324,6.16553c-0.78413,0.02637 -0.41309,0.31641 -1.17554,0.36328c-0.3564,-0.3252 -0.80054,-2.07715 -1.0916,-2.77881l-0.0561,-0.13184c0.68364,-0.62695 1.89873,-1.59375 2.10703,-2.44336z" fill="url(#color-27)"/><path d="M157.53809,144.14048c2.21777,-0.50947 4.45898,-0.18223 6.3999,1.01807c1.90723,1.19854 3.25635,3.10708 3.75293,5.30288c0.53613,2.24707 0.14355,4.61426 -1.08984,6.56689c-1.4458,2.26465 -4.71094,4.12354 -7.45459,3.67822c0.39551,-0.40576 0.89355,0.07617 1.41064,-0.28271c0.08057,-0.72363 0.03662,-2.99707 -0.45996,-3.51416c0.93896,-0.20361 1.65381,-0.47461 2.41406,-1.08984c0.90381,-0.73242 1.47803,-1.79443 1.59521,-2.95166c0.1582,-1.60254 -0.40576,-2.64111 -1.36523,-3.80713c0.43506,0.16699 0.5083,0.39551 0.90088,0.3252c0.24756,-1.37256 0.20654,-2.57666 0.20947,-3.96255c-3.48926,-1.53149 -2.521,-1.13701 -6.31348,-1.2832z" fill="url(#color-28)"/><path d="M154.12646,153.25195c1.74316,2.25439 2.92969,3.60645 5.9707,3.65771c0.49658,0.51709 0.54053,2.79053 0.45996,3.51416c-0.51709,0.35889 -1.01514,-0.12305 -1.41064,0.28271c-3.54199,0.0542 -5.53271,-2.32178 -7.77246,-4.63916c0.88623,-0.96973 1.80469,-1.90723 2.75244,-2.81543z" fill="url(#color-29)"/><path d="M148.5542,137.86816c2.8916,-0.20815 5.66016,0.2124 7.72266,2.56714c0.30176,0.34497 0.25342,0.45293 0.18311,0.85386c-1.15869,0.51226 -2.68359,-1.34106 -4.73877,-1.88804l-0.19336,-0.04966c-1.56738,-0.17886 -3.5874,-0.16611 -4.9585,0.71616c-0.82896,0.53408 -1.77173,1.67651 -2.82495,1.34092l-0.13711,-0.32959c0.23379,-1.85142 3.36636,-2.81396 4.94692,-3.21079z" fill="#f5e08f"/><path d="M149.33057,140.65254c1.40186,-0.10591 4.80615,0.4752 5.10645,2.16123c-0.20215,0.56953 -0.20654,0.43374 -0.76025,0.8814c-1.07959,-0.92153 -1.47949,-1.20806 -2.80811,-1.62085c-2.58545,-0.34116 -3.36328,1.25552 -4.95791,1.20249c-0.42217,-0.25796 -0.28667,-0.08145 -0.44004,-0.53159c0.40649,-1.14082 2.77588,-1.90371 3.85986,-2.09268z" fill="#f5e08f"/><path d="M149.49902,143.42329c1.27002,-0.04937 2.54883,0.10723 2.91504,1.52271c-0.18457,0.47769 -0.0249,0.29956 -0.52148,0.52456c-0.53027,-0.01421 -0.82324,-0.32227 -1.26855,-0.64731c-1.59521,-0.21445 -1.56885,0.90205 -2.84326,0.50991c-0.32666,-0.46128 -0.25195,-0.21812 -0.2959,-0.73198c0.55225,-0.77051 1.11035,-0.89385 2.01416,-1.17788z" fill="#f5e08f"/><path d="M190.95703,150.18896l0.47754,-0.62256l0.17725,0.07031l0.10107,0.24756c-0.41602,0.89502 -0.89209,1.86621 -1.28174,2.76416c-0.00146,0.26953 -0.01318,0.85547 0.15381,1.05322c1.73291,2.0332 3.60059,4.39014 5.42578,6.30322c1.57471,1.65088 2.03613,1.85449 3.89355,2.82275c-0.1084,0.37207 -0.0542,0.24023 -0.2959,0.55957l0.13623,0.25195c0.49219,-0.6167 1.28613,-2.08154 1.71533,-2.82568c1.0708,3.61963 2.56494,9.28271 2.27637,13.07666c-0.01611,0.78076 -0.01904,1.55273 -0.08936,2.33057c-0.09961,1.42969 -0.25635,2.36865 -0.50684,3.78223c-1.34326,5.99561 -4.10449,11.45068 -8.47559,15.79834c-0.75,0.74561 -2.18262,2.10205 -3.08936,2.59277c-2.0376,1.68604 -5.41553,3.37939 -7.9248,4.18652c-0.82617,0.25195 -1.59082,0.50537 -2.44043,0.6665c-0.87012,0.2124 -1.4707,0.36035 -2.36133,0.479c-2.78613,0.40576 -4.021,0.1582 -6.35742,0.33984c-3.08496,-0.14795 -6.70166,-0.86572 -9.6665,-1.64648c-0.91406,-0.24756 -2.51807,-0.75439 -3.35156,-1.10449c-2.38623,0.95361 -4.79736,2.37891 -7.24072,3.14648c-8.20605,3.26074 -17.93145,5.60156 -26.798,4.59521c-2.6521,-3.29443 -4.89829,-7.31543 -6.91406,-11.00537c-0.33809,-0.61816 -0.71807,-1.22021 -1.09937,-1.81348c-0.64893,-0.07324 -2.65928,-0.56982 -3.26191,-0.77344c-0.20039,-0.24756 -0.25488,-0.2666 -0.52881,-0.41309l-0.26353,-0.14062c0.27378,-0.1333 0.23906,-0.09375 0.55781,-0.13623c5.80371,1.21436 9.21079,1.78418 15.29414,1.18945c-0.6375,-0.13916 -0.92827,0.03662 -1.28628,-0.30908c-0.11294,-0.56396 -0.09346,-1.14697 0.05713,-1.70215c0.14619,-0.54492 0.24668,-0.45996 0.80918,-0.74414c3.21504,-0.27393 6.40078,-0.82031 9.5228,-1.63623c-0.35859,-0.38525 -1.98076,-1.3916 -2.59351,-1.85449l-1.25728,-0.87305c-2.15947,-1.32422 -4.93374,-3.53467 -6.88345,-5.14307c0.65684,-0.27539 2.21045,-0.71045 2.99048,-0.96973c1.68032,-0.57861 3.34424,-1.20117 4.9897,-1.87207c1.54717,-0.64746 3.17505,-1.83545 4.73643,-2.46826c1.88276,1.29053 5.46284,3.24609 6.91582,4.3418c0.7207,0.36914 1.44727,0.72949 2.17676,1.08252l0.35156,0.24902l0.2417,0.4541c-0.24463,0.25049 -0.45264,0.38525 -0.73535,0.5918c0.62695,-0.22998 0.8335,-0.27979 1.37549,-0.646c0.71484,0.31494 2.47412,1.05176 3.03516,1.48682l1.78711,-0.88916l0.45557,-0.30469c6.30322,-2.7876 14.16504,-9.75879 19.01953,-14.56787c1.36816,-0.63428 4.11914,-4.27734 5.18994,-5.62646l1.80908,0.01172l0.09229,0.19336c-0.79102,0.92139 -1.51025,1.82373 -2.26318,2.77588l0.21533,0.07031c4.73291,-5.81104 7.79443,-10.56738 10.98633,-17.42578z" fill="#f5e08f"/><path d="M201.31641,182.83594c1.01807,-1.29199 0.63574,-2.10205 1.82373,-2.83301c-1.34326,5.99561 -4.10449,11.45068 -8.47559,15.79834c-0.75,0.74561 -2.18262,2.10205 -3.08936,2.59277c-2.0376,1.68604 -5.41553,3.37939 -7.9248,4.18652c-0.82617,0.25195 -1.59082,0.50537 -2.44043,0.6665c-0.87012,0.2124 -1.4707,0.36035 -2.36133,0.479c-2.78613,0.40576 -4.021,0.1582 -6.35742,0.33984c-3.08496,-0.14795 -6.70166,-0.86572 -9.6665,-1.64648c-0.91406,-0.24756 -2.51807,-0.75439 -3.35156,-1.10449c0.41602,-0.22266 0.81006,-0.45703 1.21729,-0.69727c2.74512,-0.89941 9.9917,-6.07178 12.50391,-7.88232l2.40234,-1.79297c2.67188,0.35742 5.37158,0.44385 8.05957,0.25488c0.15381,0.00732 0.31934,0.01904 0.47021,0.00293c6.96094,-0.7749 11.26025,-2.46387 15.72656,-7.68164c0.57568,-0.63721 1.18652,-1.72705 1.63477,-2.48437l0.41455,-0.13477c-0.0498,0.88037 -0.97119,1.08398 -0.58594,1.93652z" fill="#ebc463"/><path d="M173.19434,192.73535c0.14063,0.04688 0.67822,0.2168 0.76904,0.27832c0.43506,0.01611 0.80566,-0.0249 1.16162,0.20068c0.75293,0.59619 3.67822,0.51855 4.77686,0.64746c-2.39795,2.29395 -4.27002,5.521 -6.54639,7.98047c-0.41309,0.44531 -1.50586,1.54102 -1.74463,1.94092l0.88037,0.28271c-3.08496,-0.14795 -6.70166,-0.86572 -9.6665,-1.64648c-0.91406,-0.24756 -2.51807,-0.75439 -3.35156,-1.10449c0.41602,-0.22266 0.81006,-0.45703 1.21729,-0.69727c2.74512,-0.89941 9.9917,-6.07178 12.50391,-7.88232z" fill="url(#color-30)"/><path d="M173.19434,192.73535c0.14063,0.04688 0.67822,0.2168 0.76904,0.27832c0.38379,0.35449 0.48047,0.36035 0.96094,0.50537l0.08496,0.17725c-0.89941,1.50293 -7.13672,5.53125 -8.90186,6.63281c-0.68115,0.4248 -2.79492,1.60986 -3.28271,2.09033c-0.91406,-0.24756 -2.51807,-0.75439 -3.35156,-1.10449c0.41602,-0.22266 0.81006,-0.45703 1.21729,-0.69727c2.74512,-0.89941 9.9917,-6.07178 12.50391,-7.88232z" fill="url(#color-31)"/><path d="M179.90186,193.86182c0.93018,0.01318 4.27588,-0.57715 4.72266,-0.27686l0.06299,0.40137c0.26221,-0.56836 0.06738,-0.44238 0.48633,-0.62988l0.17432,0.1582c-0.0293,0.68408 -1.67725,3.4248 -2.03906,4.27148c-0.17725,0.41602 -1.14844,0.99023 -1.43994,1.95557l0.28125,-0.00879c0.34277,-0.40576 1.93652,-1.87646 2.354,-2.11523l0.18311,0.03076c-0.14941,0.75146 -0.75,1.43115 -1.08691,2.20313l-0.1875,-0.0498l-0.62109,0.9624l-0.09814,-0.09814l-0.07617,0.1377l0.16553,0.16992c-0.5127,0.82178 -1.30078,1.16895 -1.26416,1.5498l0.33691,0.19043c-0.47314,0.59912 -0.32666,-0.31494 -0.646,0.5332c-0.87012,0.2124 -1.4707,0.36035 -2.36133,0.479c-2.78613,0.40576 -4.021,0.1582 -6.35742,0.33984l-0.88037,-0.28271c0.23877,-0.3999 1.33154,-1.49561 1.74463,-1.94092c2.27637,-2.45947 4.14844,-5.68652 6.54639,-7.98047z" fill="#fbeead"/><path d="M178.84863,203.72607c0.24316,-0.35596 0.21533,-0.75879 0.50537,-1.13232c0.55371,-0.71338 1.13525,-1.2041 2.05957,-1.30371c0.42188,-0.04541 0.92725,-0.22705 1.36963,-0.31641c-0.5127,0.82178 -1.30078,1.16895 -1.26416,1.5498l0.33691,0.19043c-0.47314,0.59912 -0.32666,-0.31494 -0.646,0.5332c-0.87012,0.2124 -1.4707,0.36035 -2.36133,0.479z" fill="#f5e08f"/><path d="M201.31641,182.83594c1.01807,-1.29199 0.63574,-2.10205 1.82373,-2.83301c-1.34326,5.99561 -4.10449,11.45068 -8.47559,15.79834c-0.75,0.74561 -2.18262,2.10205 -3.08936,2.59277c-1.29199,0.21387 -2.73633,1.66992 -3.39404,1.77686c0.24609,-1.46631 7.19971,-7.51318 5.08447,-9.40137c3.74414,-1.94678 6.01904,-4.31104 8.05078,-7.93359z" fill="url(#color-32)"/><path d="M199.85303,183.51855l0.43506,0.15967c-0.01172,0.07031 -2.73633,3.56543 -2.98682,3.76758c-4.43701,3.59912 -10.43408,5.7832 -16.1543,5.82861c-2.06836,0.00293 -4.00195,-0.01318 -6.02197,-0.06006c-0.35596,-0.22559 -0.72656,-0.18457 -1.16162,-0.20068c-0.09082,-0.06152 -0.62842,-0.23145 -0.76904,-0.27832l2.40234,-1.79297c2.67188,0.35742 5.37158,0.44385 8.05957,0.25488c0.15381,0.00732 0.31934,0.01904 0.47021,0.00293c6.96094,-0.7749 11.26025,-2.46387 15.72656,-7.68164z" fill="#6c4110"/><path d="M183.65039,202.58057c1.46191,-3.60645 4.51172,-7.26562 7.04297,-10.18945c0.64014,-0.73975 1.69922,-1.18799 2.57227,-1.62158c2.11523,1.88818 -4.83838,7.93506 -5.08447,9.40137c0.65771,-0.10693 2.10205,-1.56299 3.39404,-1.77686c-2.0376,1.68604 -5.41553,3.37939 -7.9248,4.18652z" fill="url(#color-33)"/><path d="M201.45996,160.81348c1.0708,3.61963 2.56494,9.28271 2.27637,13.07666c-0.01611,0.78076 -0.01904,1.55273 -0.08936,2.33057c-0.09961,1.42969 -0.25635,2.36865 -0.50684,3.78223c-1.18799,0.73096 -0.80566,1.54102 -1.82373,2.83301c-0.38525,-0.85254 0.53613,-1.05615 0.58594,-1.93652l-0.41455,0.13477c-0.44824,0.75732 -1.05908,1.84717 -1.63477,2.48438c-4.46631,5.21777 -8.76562,6.90674 -15.72656,7.68164c-0.15088,0.01611 -0.31641,0.00439 -0.47021,-0.00293c-2.68799,0.18896 -5.3877,0.10254 -8.05957,-0.25488c2.50635,-2.02295 6.33398,-5.09912 8.51221,-7.52344c0.79395,-0.46729 5.17529,-5.49463 6.13037,-6.57715c2.76416,-3.53174 7.40918,-9.18311 9.50537,-13.20264c0.49219,-0.6167 1.28613,-2.08154 1.71533,-2.82568z" fill="#462605"/><path d="M190.23926,176.8418c0.60498,4.62158 -3.43945,11.15625 -6.58301,14.35547c-2.68799,0.18896 -5.3877,0.10254 -8.05957,-0.25488c2.50635,-2.02295 6.33398,-5.09912 8.51221,-7.52344c0.79395,-0.46729 5.17529,-5.49463 6.13037,-6.57715z" fill="#000000"/><path d="M203.26318,175.96436l0.38379,0.25635c-0.09961,1.42969 -0.25635,2.36865 -0.50684,3.78223c-1.18799,0.73096 -0.80566,1.54102 -1.82373,2.83301c-0.38525,-0.85254 0.53613,-1.05615 0.58594,-1.93652l-0.41455,0.13477c0.7749,-1.55273 1.44434,-3.36621 1.77539,-5.06982z" fill="#9d6c24"/><path d="M203.26318,175.96436c0.06152,-0.74561 0.09668,-1.42969 0.47314,-2.07422c-0.01611,0.78076 -0.01904,1.55273 -0.08936,2.33057z" fill="#6c4110"/><path d="M141.48545,194.4873c0.07881,0.36768 -0.02534,0.17871 0.20537,0.38086c2.6562,2.33496 5.07773,5.11084 7.53867,7.66553c0.52295,0.54199 1.16748,1.35645 1.62158,1.96875c-0.00146,-0.00293 1.24512,-0.03809 1.38135,-0.04102c-8.20605,3.26074 -17.93145,5.60156 -26.798,4.59521c-2.6521,-3.29443 -4.89829,-7.31543 -6.91406,-11.00537c-0.33809,-0.61816 -0.71807,-1.22021 -1.09937,-1.81348c9.64395,1.31543 14.77808,0.5625 24.06445,-1.75049z" fill="url(#color-34)"/><path d="M181.40771,167.34668c-0.82617,0.72363 -2.14453,2.51367 -2.80957,2.75098c0.09229,-0.28271 0.02197,-0.17285 0.2168,-0.37939c4.48975,-4.72705 8.71143,-11.25146 11.61621,-17.06982c-0.00146,0.26953 -0.01318,0.85547 0.15381,1.05322c1.73291,2.0332 3.60059,4.39014 5.42578,6.30322c1.57471,1.65088 2.03613,1.85449 3.89355,2.82275c-0.1084,0.37207 -0.0542,0.24023 -0.2959,0.55957l0.13623,0.25195c-2.09619,4.01953 -6.74121,9.6709 -9.50537,13.20264c-0.95508,1.08252 -5.33643,6.10986 -6.13037,6.57715l-0.0249,-0.30029c1.05176,-1.30225 3.03662,-3.26074 4.25391,-4.51172c-0.6167,-0.84375 -1.73877,-1.86621 -2.2998,-2.65869c-1.30225,-1.83984 -4.3125,-6.54639 -4.63037,-8.60156z" fill="url(#color-35)"/><path d="M140.30391,178.3916c1.88276,1.29053 5.46284,3.24609 6.91582,4.3418c0.7207,0.36914 1.44727,0.72949 2.17676,1.08252l0.35156,0.24902l0.2417,0.4541c-0.24463,0.25049 -0.45264,0.38525 -0.73535,0.5918c-3.55371,1.64502 -9.6813,3.68262 -13.52637,4.60693l-1.25728,-0.87305c-2.15947,-1.32422 -4.93374,-3.53467 -6.88345,-5.14307c0.65684,-0.27539 2.21045,-0.71045 2.99048,-0.96973c1.68032,-0.57861 3.34424,-1.20117 4.9897,-1.87207c1.54717,-0.64746 3.17505,-1.83545 4.73643,-2.46826z" fill="url(#color-36)"/><path d="M134.47075,188.84473c2.99136,0.38965 8.43179,-4.2583 10.92129,-5.77734c0.73037,-0.44385 0.9769,-0.54639 1.82769,-0.33398c0.7207,0.36914 1.44727,0.72949 2.17676,1.08252l0.35156,0.24902l0.2417,0.4541c-0.24463,0.25049 -0.45264,0.38525 -0.73535,0.5918c-3.55371,1.64502 -9.6813,3.68262 -13.52637,4.60693z" fill="#6c4110"/><path d="M149.25439,185.11084c0.62695,-0.22998 0.8335,-0.27979 1.37549,-0.646c0.71484,0.31494 2.47412,1.05176 3.03516,1.48682l1.78711,-0.88916l0.15967,0.19336l-0.12598,0.05566c-0.98145,0.43945 -3.25781,1.64941 -4.09424,2.26172c-0.16699,0.5874 0.20215,0.86426 -0.11572,1.80469l-0.3501,0.4043c0.24756,0.09082 0.93018,-0.24756 1.25537,-0.37354l0.02051,0.1377c-6.24771,3.18457 -13.06714,4.97754 -19.9708,6.12451c-0.60527,0.09961 -2.53564,0.3457 -3.01216,0.29297c-0.6375,-0.13916 -0.92827,0.03662 -1.28628,-0.30908c-0.11294,-0.56396 -0.09346,-1.14697 0.05713,-1.70215c0.14619,-0.54492 0.24668,-0.45996 0.80918,-0.74414c3.21504,-0.27393 6.40078,-0.82031 9.5228,-1.63623c-0.35859,-0.38525 -1.98076,-1.3916 -2.59351,-1.85449c3.84507,-0.92432 9.97266,-2.96191 13.52637,-4.60693z" fill="url(#color-37)"/><path d="M149.25439,185.11084c0.62695,-0.22998 0.8335,-0.27979 1.37549,-0.646c0.71484,0.31494 2.47412,1.05176 3.03516,1.48682c-5.3291,2.70996 -9.54302,4.18359 -15.34351,5.62061c-0.35859,-0.38525 -1.98076,-1.3916 -2.59351,-1.85449c3.84507,-0.92432 9.97266,-2.96191 13.52637,-4.60693z" fill="#3a1b00"/><path d="M141.48545,194.4873c1.79048,-0.60791 3.59648,-1.21729 5.37979,-1.83984c0.70313,-0.24609 3.2168,-1.3916 3.646,-1.44141c-0.59766,0.5332 -1.24365,0.38672 -1.68164,0.96973c0.11426,0.32959 1.35645,2.65576 1.57031,2.89014c1.46484,1.61572 5.18115,5.82422 6.87158,6.81738c0.73242,-0.30469 2.80664,-1.33008 3.41895,-1.26562c-0.40723,0.24023 -0.80127,0.47461 -1.21729,0.69727c-2.38623,0.95361 -4.79736,2.37891 -7.24072,3.14648c-0.13623,0.00293 -1.38281,0.03809 -1.38135,0.04102c-0.4541,-0.6123 -1.09863,-1.42676 -1.62158,-1.96875c-2.46094,-2.55469 -4.88247,-5.33057 -7.53867,-7.66553c-0.23071,-0.20215 -0.12656,-0.01318 -0.20537,-0.38086z" fill="#ebc463"/><path d="M174.92725,170.18994c1.36816,-0.63428 4.11914,-4.27734 5.18994,-5.62646l1.80908,0.01172l0.09229,0.19336c-0.79102,0.92139 -1.51025,1.82373 -2.26318,2.77588l0.21533,0.07031c-4.27295,5.78613 -11.56641,11.73779 -17.47266,15.81299c-1.24658,0.85986 -10.25391,5.92676 -11.22217,5.9502c0.31787,-0.94043 -0.05127,-1.21729 0.11572,-1.80469c0.83643,-0.6123 3.11279,-1.82227 4.09424,-2.26172l0.12598,-0.05566l-0.15967,-0.19336l0.45557,-0.30469c6.30322,-2.7876 14.16504,-9.75879 19.01953,-14.56787z" fill="#cb9c46"/><path d="M195.14502,120.97163c3.91113,1.86123 7.91162,4.4127 10.84424,7.59639c0.89795,0.97427 2.76709,4.43218 3.20947,4.61221l0.12305,0.06328c0.19482,-0.24185 0.15234,-0.78193 0.17871,-1.17393c0.75879,6.09038 -2.60449,17.13794 -5.11377,22.75708c-0.50244,1.05908 -2.72314,5.31445 -2.92676,5.98682c-0.4292,0.74414 -1.22314,2.20898 -1.71533,2.82568l-0.13623,-0.25195c0.2417,-0.31934 0.1875,-0.1875 0.2959,-0.55957c-1.85742,-0.96826 -2.31885,-1.17187 -3.89355,-2.82275c-1.8252,-1.91309 -3.69287,-4.27002 -5.42578,-6.30322c-0.16699,-0.19775 -0.15527,-0.78369 -0.15381,-1.05322c0.38965,-0.89795 0.86572,-1.86914 1.28174,-2.76416l-0.10107,-0.24756l-0.17725,-0.07031l-0.47754,0.62256c0.44824,-1.48828 1.35645,-3.13184 1.87646,-4.85771c1.97607,-5.60508 3.98438,-14.82422 2.82715,-20.65195l0.2915,-0.11045c-0.06592,-1.0708 -0.51562,-2.55073 -0.80713,-3.59722z" fill="url(#color-38)"/><path d="M193.42529,145.54395l0.06738,0.11177c0.52295,0.86821 0.28418,0.93267 1.09424,1.74712c2.87842,2.89014 4.90869,5.02734 8.66602,6.7251c0.30469,0.13623 0.61377,0.25781 0.92871,0.36475l0.20508,0.33398c-0.50244,1.05908 -2.72314,5.31445 -2.92676,5.98682c-0.4292,0.74414 -1.22314,2.20898 -1.71533,2.82568l-0.13623,-0.25195c0.2417,-0.31934 0.1875,-0.1875 0.2959,-0.55957c-1.85742,-0.96826 -2.31885,-1.17187 -3.89355,-2.82275c-1.8252,-1.91309 -3.69287,-4.27002 -5.42578,-6.30322c-0.16699,-0.19775 -0.15527,-0.78369 -0.15381,-1.05322c0.38965,-0.89795 0.86572,-1.86914 1.28174,-2.76416c0.37061,-0.50684 1.44287,-3.57407 1.7124,-4.34033z" fill="url(#color-39)"/><path d="M195.95215,124.56885c-0.0249,0.85312 0.14795,1.66333 0.25635,2.51133c0.57129,4.51904 -0.19482,9.20684 -1.28174,13.59712c-0.33838,1.36304 -0.8833,3.60293 -1.50146,4.86665c-0.26953,0.76626 -1.3418,3.8335 -1.7124,4.34033l-0.10107,-0.24756l-0.17725,-0.07031l-0.47754,0.62256c0.44824,-1.48828 1.35645,-3.13184 1.87646,-4.85771c1.97607,-5.60508 3.98438,-14.82422 2.82715,-20.65195z" fill="#cb9c46"/><path d="M174.95508,91.25669c1.84863,0.06943 3.39258,0.54727 5.15186,0.95713c15.3208,3.57144 25.94678,17.02354 28.69922,32.0918c0.27686,1.51377 0.56689,3.22734 0.51709,4.75957c0.08203,0.99023 0.19043,2.01343 0.17725,3.00439c-0.02637,0.39199 0.01611,0.93208 -0.17871,1.17393l-0.12305,-0.06328c-0.44238,-0.18003 -2.31152,-3.63794 -3.20947,-4.61221c-2.93262,-3.18369 -6.93311,-5.73516 -10.84424,-7.59639c-0.64014,-1.35454 -3.12012,-8.16577 -4.66846,-7.89346c-0.47754,-0.53467 -2.17676,-3.36226 -2.55176,-4.05762c-0.61084,-0.25474 -1.62598,-0.50068 -2.29248,-0.68423l0.17432,-0.1188l-0.10107,-0.09551c0.375,-1.17217 0.479,-1.73203 1.76514,-1.8895c-0.99463,-0.34775 -1.39453,-0.46187 -2.42871,-0.65215c-1.31543,-0.40137 -3.47754,-0.77769 -4.89111,-1.04736l0.04688,-0.12627l-0.22412,-0.24038l0.05566,-0.34658c0.78955,0.06929 1.57617,0.15703 2.36133,0.26309c-0.11426,-0.29619 -0.06299,-0.21328 -0.2124,-0.44033c-1.10156,-1.67607 -1.93213,-3.67969 -2.97217,-5.38315c-1.44434,-2.36572 -2.99561,-4.50703 -4.25098,-7.00269z" fill="url(#color-40)"/><path d="M187.4707,106.23252c6.00586,1.74741 11.63379,5.53521 15.63135,10.3563c0.70898,0.85459 2.1958,3.36973 2.82568,3.82749l0.0835,-0.0665c1.00342,1.11899 2.81396,6.96855 3.31201,8.71538c0.08203,0.99023 0.19043,2.01343 0.17725,3.00439c-0.02637,0.39199 0.01611,0.93208 -0.17871,1.17393l-0.12305,-0.06328c-0.44238,-0.18003 -2.31152,-3.63794 -3.20947,-4.61221c-2.93262,-3.18369 -6.93311,-5.73516 -10.84424,-7.59639c-0.64014,-1.35454 -3.12012,-8.16577 -4.66846,-7.89346c-0.47754,-0.53467 -2.17676,-3.36226 -2.55176,-4.05762c-0.61084,-0.25474 -1.62598,-0.50068 -2.29248,-0.68423l0.17432,-0.1188l-0.10107,-0.09551c0.375,-1.17217 0.479,-1.73203 1.76514,-1.8895z" fill="url(#color-41)"/><path d="M187.4707,106.23252c6.00586,1.74741 11.63379,5.53521 15.63135,10.3563c0.70898,0.85459 2.1958,3.36973 2.82568,3.82749l0.0835,-0.0665c1.00342,1.11899 2.81396,6.96855 3.31201,8.71538c0.08203,0.99023 0.19043,2.01343 0.17725,3.00439c-0.02637,0.39199 0.01611,0.93208 -0.17871,1.17393l-0.12305,-0.06328c-0.03662,-1.1291 -0.34131,-2.33818 -0.60205,-3.43696c-2.45947,-10.35601 -10.56738,-17.88516 -20.67187,-20.72271c-0.61084,-0.25474 -1.62598,-0.50068 -2.29248,-0.68423l0.17432,-0.1188l-0.10107,-0.09551c0.375,-1.17217 0.479,-1.73203 1.76514,-1.8895z" fill="url(#color-42)"/><path d="M180.0293,103.81978c0.78955,0.06929 1.57617,0.15703 2.36133,0.26309c9.62256,2.00669 19.10303,7.11416 23.62061,16.26694l-0.0835,0.0665c-0.62988,-0.45776 -2.1167,-2.9729 -2.82568,-3.82749c-3.99756,-4.82109 -9.62549,-8.60889 -15.63135,-10.3563c-0.99463,-0.34775 -1.39453,-0.46187 -2.42871,-0.65215c-1.31543,-0.40137 -3.47754,-0.77769 -4.89111,-1.04736l0.04688,-0.12627l-0.22412,-0.24038z" fill="#ebc463"/><path d="M190.51758,145.07314c0.90967,-1.11372 1.45752,-4.41519 2.01123,-5.85791c0.57422,0.00293 0.95361,0.01567 1.51904,-0.06064c0.68848,0.70664 -0.09375,1.69863 -0.23437,2.54458c-0.09082,0.55459 -1.26562,3.28477 -0.97998,3.63208c-0.52002,1.72588 -1.42822,3.36943 -1.87646,4.85771c-3.19189,6.8584 -6.25342,11.61475 -10.98633,17.42578l-0.21533,-0.07031c0.75293,-0.95215 1.47217,-1.85449 2.26318,-2.77588l-0.09229,-0.19336l-1.80908,-0.01172c-1.0708,1.34912 -3.82178,4.99219 -5.18994,5.62646c1.2085,-1.5 2.63525,-2.96924 3.8833,-4.49121c2.50195,-3.10693 4.74316,-6.41455 6.70313,-9.88916c2.21484,-4.01074 3.22852,-6.66357 5.00391,-10.73643z" fill="#9d6c24"/></g></svg></svg>